<?xml version="1.0" encoding="UTF-8"?>
<!DOCTYPE svg PUBLIC "-//W3C//DTD SVG 1.1//EN" "http://www.w3.org/Graphics/SVG/1.1/DTD/svg11.dtd">
<svg xmlns="http://www.w3.org/2000/svg" version="1.1" width="4320px" height="4320px" style="shape-rendering:geometricPrecision; text-rendering:geometricPrecision; image-rendering:optimizeQuality; fill-rule:evenodd; clip-rule:evenodd" xmlns:xlink="http://www.w3.org/1999/xlink">
<g><path style="opacity:0.964" fill="#000000" d="M 3103.5,1567.5 C 2986.17,1567.5 2868.83,1567.5 2751.5,1567.5C 2751.5,1556.83 2751.5,1546.17 2751.5,1535.5C 2740.83,1535.5 2730.17,1535.5 2719.5,1535.5C 2719.5,1546.17 2719.5,1556.83 2719.5,1567.5C 2687.5,1567.5 2655.5,1567.5 2623.5,1567.5C 2623.5,1578.17 2623.5,1588.83 2623.5,1599.5C 2612.83,1599.5 2602.17,1599.5 2591.5,1599.5C 2591.5,1620.83 2591.5,1642.17 2591.5,1663.5C 2602.17,1663.5 2612.83,1663.5 2623.5,1663.5C 2623.5,1674.17 2623.5,1684.83 2623.5,1695.5C 2644.83,1695.5 2666.17,1695.5 2687.5,1695.5C 2687.5,1706.17 2687.5,1716.83 2687.5,1727.5C 2815.5,1727.5 2943.5,1727.5 3071.5,1727.5C 3071.5,1738.17 3071.5,1748.83 3071.5,1759.5C 2922.17,1759.5 2772.83,1759.5 2623.5,1759.5C 2623.5,1748.83 2623.5,1738.17 2623.5,1727.5C 2602.17,1727.5 2580.83,1727.5 2559.5,1727.5C 2559.5,1663.5 2559.5,1599.5 2559.5,1535.5C 2580.83,1535.5 2602.17,1535.5 2623.5,1535.5C 2623.5,1524.83 2623.5,1514.17 2623.5,1503.5C 2772.83,1503.5 2922.17,1503.5 3071.5,1503.5C 3071.5,1514.17 3071.5,1524.83 3071.5,1535.5C 3082.17,1535.5 3092.83,1535.5 3103.5,1535.5C 3103.5,1546.17 3103.5,1556.83 3103.5,1567.5 Z"/></g>
<g><path style="opacity:1" fill="#978074" d="M 2751.5,1567.5 C 2740.83,1567.5 2730.17,1567.5 2719.5,1567.5C 2719.5,1556.83 2719.5,1546.17 2719.5,1535.5C 2730.17,1535.5 2740.83,1535.5 2751.5,1535.5C 2751.5,1546.17 2751.5,1556.83 2751.5,1567.5 Z"/></g>
<g><path style="opacity:1" fill="#e4c2ae" d="M 2719.5,1567.5 C 2730.17,1567.5 2740.83,1567.5 2751.5,1567.5C 2868.83,1567.5 2986.17,1567.5 3103.5,1567.5C 3103.5,1599.5 3103.5,1631.5 3103.5,1663.5C 3092.83,1663.5 3082.17,1663.5 3071.5,1663.5C 3071.5,1674.17 3071.5,1684.83 3071.5,1695.5C 3028.83,1695.5 2986.17,1695.5 2943.5,1695.5C 2943.5,1684.83 2943.5,1674.17 2943.5,1663.5C 2932.83,1663.5 2922.17,1663.5 2911.5,1663.5C 2911.5,1674.17 2911.5,1684.83 2911.5,1695.5C 2836.83,1695.5 2762.17,1695.5 2687.5,1695.5C 2687.5,1684.83 2687.5,1674.17 2687.5,1663.5C 2666.17,1663.5 2644.83,1663.5 2623.5,1663.5C 2612.83,1663.5 2602.17,1663.5 2591.5,1663.5C 2591.5,1642.17 2591.5,1620.83 2591.5,1599.5C 2602.17,1599.5 2612.83,1599.5 2623.5,1599.5C 2623.5,1588.83 2623.5,1578.17 2623.5,1567.5C 2655.5,1567.5 2687.5,1567.5 2719.5,1567.5 Z"/></g>
<g><path style="opacity:1" fill="#be9177" d="M 2623.5,1663.5 C 2644.83,1663.5 2666.17,1663.5 2687.5,1663.5C 2687.5,1674.17 2687.5,1684.83 2687.5,1695.5C 2666.17,1695.5 2644.83,1695.5 2623.5,1695.5C 2623.5,1684.83 2623.5,1674.17 2623.5,1663.5 Z"/></g>
<g><path style="opacity:1" fill="#be9177" d="M 3071.5,1695.5 C 3071.5,1706.17 3071.5,1716.83 3071.5,1727.5C 2943.5,1727.5 2815.5,1727.5 2687.5,1727.5C 2687.5,1716.83 2687.5,1706.17 2687.5,1695.5C 2762.17,1695.5 2836.83,1695.5 2911.5,1695.5C 2911.5,1684.83 2911.5,1674.17 2911.5,1663.5C 2922.17,1663.5 2932.83,1663.5 2943.5,1663.5C 2943.5,1674.17 2943.5,1684.83 2943.5,1695.5C 2986.17,1695.5 3028.83,1695.5 3071.5,1695.5 Z"/></g>
<g><path style="opacity:1" fill="#be9177" d="M 3103.5,1663.5 C 3103.5,1674.17 3103.5,1684.83 3103.5,1695.5C 3092.83,1695.5 3082.17,1695.5 3071.5,1695.5C 3071.5,1684.83 3071.5,1674.17 3071.5,1663.5C 3082.17,1663.5 3092.83,1663.5 3103.5,1663.5 Z"/></g>
</svg>
