<?xml version="1.0" encoding="UTF-8"?>
<!DOCTYPE svg PUBLIC "-//W3C//DTD SVG 1.1//EN" "http://www.w3.org/Graphics/SVG/1.1/DTD/svg11.dtd">
<svg xmlns="http://www.w3.org/2000/svg" version="1.1" width="4320px" height="4320px" style="shape-rendering:geometricPrecision; text-rendering:geometricPrecision; image-rendering:optimizeQuality; fill-rule:evenodd; clip-rule:evenodd" xmlns:xlink="http://www.w3.org/1999/xlink">
<g><path style="opacity:0.886" fill="#c1c1c2" d="M 1855.5,2783.5 C 1855.5,2794.17 1855.5,2804.83 1855.5,2815.5C 1844.83,2815.5 1834.17,2815.5 1823.5,2815.5C 1823.5,2804.83 1823.5,2794.17 1823.5,2783.5C 1834.17,2783.5 1844.83,2783.5 1855.5,2783.5 Z"/></g>
<g><path style="opacity:1" fill="#0a090e" d="M 1855.5,2783.5 C 1919.5,2783.5 1983.5,2783.5 2047.5,2783.5C 2047.5,2794.17 2047.5,2804.83 2047.5,2815.5C 2058.17,2815.5 2068.83,2815.5 2079.5,2815.5C 2079.5,2826.17 2079.5,2836.83 2079.5,2847.5C 2090.17,2847.5 2100.83,2847.5 2111.5,2847.5C 2111.5,2858.17 2111.5,2868.83 2111.5,2879.5C 2122.17,2879.5 2132.83,2879.5 2143.5,2879.5C 2143.5,2900.83 2143.5,2922.17 2143.5,2943.5C 2143.5,2954.17 2143.5,2964.83 2143.5,2975.5C 2154.17,2975.5 2164.83,2975.5 2175.5,2975.5C 2175.5,2996.83 2175.5,3018.17 2175.5,3039.5C 2164.83,3039.5 2154.17,3039.5 2143.5,3039.5C 2143.5,3071.5 2143.5,3103.5 2143.5,3135.5C 2132.83,3135.5 2122.17,3135.5 2111.5,3135.5C 2111.5,3060.83 2111.5,2986.17 2111.5,2911.5C 2100.83,2911.5 2090.17,2911.5 2079.5,2911.5C 2079.5,2900.83 2079.5,2890.17 2079.5,2879.5C 2068.83,2879.5 2058.17,2879.5 2047.5,2879.5C 2047.5,2868.83 2047.5,2858.17 2047.5,2847.5C 2026.17,2847.5 2004.83,2847.5 1983.5,2847.5C 1983.5,2836.83 1983.5,2826.17 1983.5,2815.5C 1951.5,2815.5 1919.5,2815.5 1887.5,2815.5C 1887.5,2826.17 1887.5,2836.83 1887.5,2847.5C 1866.17,2847.5 1844.83,2847.5 1823.5,2847.5C 1823.5,2858.17 1823.5,2868.83 1823.5,2879.5C 1812.83,2879.5 1802.17,2879.5 1791.5,2879.5C 1791.5,2890.17 1791.5,2900.83 1791.5,2911.5C 1780.83,2911.5 1770.17,2911.5 1759.5,2911.5C 1759.5,2922.17 1759.5,2932.83 1759.5,2943.5C 1759.5,2975.5 1759.5,3007.5 1759.5,3039.5C 1748.83,3039.5 1738.17,3039.5 1727.5,3039.5C 1716.83,3039.5 1706.17,3039.5 1695.5,3039.5C 1695.5,3018.17 1695.5,2996.83 1695.5,2975.5C 1706.17,2975.5 1716.83,2975.5 1727.5,2975.5C 1727.5,2943.5 1727.5,2911.5 1727.5,2879.5C 1738.17,2879.5 1748.83,2879.5 1759.5,2879.5C 1759.5,2868.83 1759.5,2858.17 1759.5,2847.5C 1770.17,2847.5 1780.83,2847.5 1791.5,2847.5C 1791.5,2836.83 1791.5,2826.17 1791.5,2815.5C 1802.17,2815.5 1812.83,2815.5 1823.5,2815.5C 1834.17,2815.5 1844.83,2815.5 1855.5,2815.5C 1855.5,2804.83 1855.5,2794.17 1855.5,2783.5 Z"/></g>
<g><path style="opacity:1" fill="#c3c5d2" d="M 1983.5,2847.5 C 1972.83,2847.5 1962.17,2847.5 1951.5,2847.5C 1951.5,2858.17 1951.5,2868.83 1951.5,2879.5C 1940.83,2879.5 1930.17,2879.5 1919.5,2879.5C 1919.5,2890.17 1919.5,2900.83 1919.5,2911.5C 1908.83,2911.5 1898.17,2911.5 1887.5,2911.5C 1887.5,2922.17 1887.5,2932.83 1887.5,2943.5C 1876.83,2943.5 1866.17,2943.5 1855.5,2943.5C 1855.5,2964.83 1855.5,2986.17 1855.5,3007.5C 1844.83,3007.5 1834.17,3007.5 1823.5,3007.5C 1823.5,3028.83 1823.5,3050.17 1823.5,3071.5C 1812.83,3071.5 1802.17,3071.5 1791.5,3071.5C 1791.5,3103.5 1791.5,3135.5 1791.5,3167.5C 1780.83,3167.5 1770.17,3167.5 1759.5,3167.5C 1759.5,3220.83 1759.5,3274.17 1759.5,3327.5C 1770.17,3327.5 1780.83,3327.5 1791.5,3327.5C 1791.5,3359.5 1791.5,3391.5 1791.5,3423.5C 1802.17,3423.5 1812.83,3423.5 1823.5,3423.5C 1823.5,3434.17 1823.5,3444.83 1823.5,3455.5C 1770.17,3455.5 1716.83,3455.5 1663.5,3455.5C 1663.5,3423.5 1663.5,3391.5 1663.5,3359.5C 1674.17,3359.5 1684.83,3359.5 1695.5,3359.5C 1695.5,3306.17 1695.5,3252.83 1695.5,3199.5C 1706.17,3199.5 1716.83,3199.5 1727.5,3199.5C 1727.5,3146.17 1727.5,3092.83 1727.5,3039.5C 1738.17,3039.5 1748.83,3039.5 1759.5,3039.5C 1759.5,3007.5 1759.5,2975.5 1759.5,2943.5C 1770.17,2943.5 1780.83,2943.5 1791.5,2943.5C 1791.5,2932.83 1791.5,2922.17 1791.5,2911.5C 1791.5,2900.83 1791.5,2890.17 1791.5,2879.5C 1802.17,2879.5 1812.83,2879.5 1823.5,2879.5C 1823.5,2868.83 1823.5,2858.17 1823.5,2847.5C 1844.83,2847.5 1866.17,2847.5 1887.5,2847.5C 1887.5,2836.83 1887.5,2826.17 1887.5,2815.5C 1919.5,2815.5 1951.5,2815.5 1983.5,2815.5C 1983.5,2826.17 1983.5,2836.83 1983.5,2847.5 Z"/></g>
<g><path style="opacity:1" fill="#cacfe0" d="M 1983.5,2847.5 C 2004.83,2847.5 2026.17,2847.5 2047.5,2847.5C 2047.5,2858.17 2047.5,2868.83 2047.5,2879.5C 2058.17,2879.5 2068.83,2879.5 2079.5,2879.5C 2079.5,2890.17 2079.5,2900.83 2079.5,2911.5C 2090.17,2911.5 2100.83,2911.5 2111.5,2911.5C 2111.5,2986.17 2111.5,3060.83 2111.5,3135.5C 2111.5,3178.17 2111.5,3220.83 2111.5,3263.5C 2100.83,3263.5 2090.17,3263.5 2079.5,3263.5C 2079.5,3284.83 2079.5,3306.17 2079.5,3327.5C 2068.83,3327.5 2058.17,3327.5 2047.5,3327.5C 2047.5,3338.17 2047.5,3348.83 2047.5,3359.5C 2036.83,3359.5 2026.17,3359.5 2015.5,3359.5C 2015.5,3370.17 2015.5,3380.83 2015.5,3391.5C 2004.83,3391.5 1994.17,3391.5 1983.5,3391.5C 1983.5,3402.17 1983.5,3412.83 1983.5,3423.5C 1972.83,3423.5 1962.17,3423.5 1951.5,3423.5C 1951.5,3434.17 1951.5,3444.83 1951.5,3455.5C 1908.83,3455.5 1866.17,3455.5 1823.5,3455.5C 1823.5,3444.83 1823.5,3434.17 1823.5,3423.5C 1812.83,3423.5 1802.17,3423.5 1791.5,3423.5C 1791.5,3391.5 1791.5,3359.5 1791.5,3327.5C 1780.83,3327.5 1770.17,3327.5 1759.5,3327.5C 1759.5,3274.17 1759.5,3220.83 1759.5,3167.5C 1770.17,3167.5 1780.83,3167.5 1791.5,3167.5C 1791.5,3135.5 1791.5,3103.5 1791.5,3071.5C 1802.17,3071.5 1812.83,3071.5 1823.5,3071.5C 1823.5,3050.17 1823.5,3028.83 1823.5,3007.5C 1834.17,3007.5 1844.83,3007.5 1855.5,3007.5C 1855.5,2986.17 1855.5,2964.83 1855.5,2943.5C 1866.17,2943.5 1876.83,2943.5 1887.5,2943.5C 1887.5,2932.83 1887.5,2922.17 1887.5,2911.5C 1898.17,2911.5 1908.83,2911.5 1919.5,2911.5C 1919.5,2900.83 1919.5,2890.17 1919.5,2879.5C 1930.17,2879.5 1940.83,2879.5 1951.5,2879.5C 1951.5,2868.83 1951.5,2858.17 1951.5,2847.5C 1962.17,2847.5 1972.83,2847.5 1983.5,2847.5 Z"/></g>
<g><path style="opacity:1" fill="#bebfc1" d="M 1791.5,2911.5 C 1791.5,2922.17 1791.5,2932.83 1791.5,2943.5C 1780.83,2943.5 1770.17,2943.5 1759.5,2943.5C 1759.5,2932.83 1759.5,2922.17 1759.5,2911.5C 1770.17,2911.5 1780.83,2911.5 1791.5,2911.5 Z"/></g>
<g><path style="opacity:0.184" fill="#c2c3c2" d="M 2143.5,2943.5 C 2154.17,2943.5 2164.83,2943.5 2175.5,2943.5C 2175.5,2954.17 2175.5,2964.83 2175.5,2975.5C 2175.5,2964.83 2175.5,2954.17 2175.5,2943.5C 2164.83,2943.5 2154.17,2943.5 2143.5,2943.5 Z"/></g>
<g><path style="opacity:1" fill="#000000" d="M 1695.5,3039.5 C 1706.17,3039.5 1716.83,3039.5 1727.5,3039.5C 1727.5,3092.83 1727.5,3146.17 1727.5,3199.5C 1716.83,3199.5 1706.17,3199.5 1695.5,3199.5C 1695.5,3252.83 1695.5,3306.17 1695.5,3359.5C 1684.83,3359.5 1674.17,3359.5 1663.5,3359.5C 1663.5,3391.5 1663.5,3423.5 1663.5,3455.5C 1716.83,3455.5 1770.17,3455.5 1823.5,3455.5C 1866.17,3455.5 1908.83,3455.5 1951.5,3455.5C 1994.17,3455.5 2036.83,3455.5 2079.5,3455.5C 2079.5,3412.83 2079.5,3370.17 2079.5,3327.5C 2090.17,3327.5 2100.83,3327.5 2111.5,3327.5C 2111.5,3306.17 2111.5,3284.83 2111.5,3263.5C 2111.5,3220.83 2111.5,3178.17 2111.5,3135.5C 2122.17,3135.5 2132.83,3135.5 2143.5,3135.5C 2143.5,3146.17 2143.5,3156.83 2143.5,3167.5C 2154.17,3167.5 2164.83,3167.5 2175.5,3167.5C 2175.5,3178.17 2175.5,3188.83 2175.5,3199.5C 2164.83,3199.5 2154.17,3199.5 2143.5,3199.5C 2143.5,3274.17 2143.5,3348.83 2143.5,3423.5C 2132.83,3423.5 2122.17,3423.5 2111.5,3423.5C 2111.5,3434.17 2111.5,3444.83 2111.5,3455.5C 2111.5,3466.17 2111.5,3476.83 2111.5,3487.5C 2111.5,3498.17 2111.5,3508.83 2111.5,3519.5C 2111.5,3540.83 2111.5,3562.17 2111.5,3583.5C 2100.83,3583.5 2090.17,3583.5 2079.5,3583.5C 2068.83,3583.5 2058.17,3583.5 2047.5,3583.5C 2036.83,3583.5 2026.17,3583.5 2015.5,3583.5C 2015.5,3594.17 2015.5,3604.83 2015.5,3615.5C 1962.17,3615.5 1908.83,3615.5 1855.5,3615.5C 1855.5,3604.83 1855.5,3594.17 1855.5,3583.5C 1844.83,3583.5 1834.17,3583.5 1823.5,3583.5C 1770.17,3583.5 1716.83,3583.5 1663.5,3583.5C 1663.5,3572.83 1663.5,3562.17 1663.5,3551.5C 1652.83,3551.5 1642.17,3551.5 1631.5,3551.5C 1620.83,3551.5 1610.17,3551.5 1599.5,3551.5C 1599.5,3530.17 1599.5,3508.83 1599.5,3487.5C 1610.17,3487.5 1620.83,3487.5 1631.5,3487.5C 1631.5,3412.83 1631.5,3338.17 1631.5,3263.5C 1642.17,3263.5 1652.83,3263.5 1663.5,3263.5C 1663.5,3210.17 1663.5,3156.83 1663.5,3103.5C 1674.17,3103.5 1684.83,3103.5 1695.5,3103.5C 1695.5,3082.17 1695.5,3060.83 1695.5,3039.5 Z"/></g>
<g><path style="opacity:0.991" fill="#000000" d="M 2175.5,3039.5 C 2175.5,3071.5 2175.5,3103.5 2175.5,3135.5C 2164.83,3135.5 2154.17,3135.5 2143.5,3135.5C 2143.5,3103.5 2143.5,3071.5 2143.5,3039.5C 2154.17,3039.5 2164.83,3039.5 2175.5,3039.5 Z"/></g>
<g><path style="opacity:0.169" fill="#b7b8b7" d="M 2143.5,3135.5 C 2154.17,3135.5 2164.83,3135.5 2175.5,3135.5C 2175.5,3146.17 2175.5,3156.83 2175.5,3167.5C 2164.83,3167.5 2154.17,3167.5 2143.5,3167.5C 2143.5,3156.83 2143.5,3146.17 2143.5,3135.5 Z"/></g>
<g><path style="opacity:1" fill="#c2c4cd" d="M 2111.5,3263.5 C 2111.5,3284.83 2111.5,3306.17 2111.5,3327.5C 2100.83,3327.5 2090.17,3327.5 2079.5,3327.5C 2079.5,3306.17 2079.5,3284.83 2079.5,3263.5C 2090.17,3263.5 2100.83,3263.5 2111.5,3263.5 Z"/></g>
<g><path style="opacity:1" fill="#c2c6d1" d="M 2079.5,3327.5 C 2079.5,3370.17 2079.5,3412.83 2079.5,3455.5C 2036.83,3455.5 1994.17,3455.5 1951.5,3455.5C 1951.5,3444.83 1951.5,3434.17 1951.5,3423.5C 1962.17,3423.5 1972.83,3423.5 1983.5,3423.5C 1983.5,3412.83 1983.5,3402.17 1983.5,3391.5C 1994.17,3391.5 2004.83,3391.5 2015.5,3391.5C 2015.5,3380.83 2015.5,3370.17 2015.5,3359.5C 2026.17,3359.5 2036.83,3359.5 2047.5,3359.5C 2047.5,3348.83 2047.5,3338.17 2047.5,3327.5C 2058.17,3327.5 2068.83,3327.5 2079.5,3327.5 Z"/></g>
<g><path style="opacity:0.004" fill="#fefffe" d="M 2143.5,3423.5 C 2143.5,3434.17 2143.5,3444.83 2143.5,3455.5C 2132.83,3455.5 2122.17,3455.5 2111.5,3455.5C 2111.5,3444.83 2111.5,3434.17 2111.5,3423.5C 2122.17,3423.5 2132.83,3423.5 2143.5,3423.5 Z"/></g>
<g><path style="opacity:1" fill="#c2c5d1" d="M 1759.5,3519.5 C 1748.83,3519.5 1738.17,3519.5 1727.5,3519.5C 1706.17,3519.5 1684.83,3519.5 1663.5,3519.5C 1663.5,3508.83 1663.5,3498.17 1663.5,3487.5C 1695.5,3487.5 1727.5,3487.5 1759.5,3487.5C 1759.5,3498.17 1759.5,3508.83 1759.5,3519.5 Z"/></g>
<g><path style="opacity:0.639" fill="#bebfbe" d="M 2111.5,3487.5 C 2122.17,3487.5 2132.83,3487.5 2143.5,3487.5C 2143.5,3498.17 2143.5,3508.83 2143.5,3519.5C 2132.83,3519.5 2122.17,3519.5 2111.5,3519.5C 2111.5,3508.83 2111.5,3498.17 2111.5,3487.5 Z"/></g>
<g><path style="opacity:1" fill="#b7b9bc" d="M 1727.5,3519.5 C 1738.17,3519.5 1748.83,3519.5 1759.5,3519.5C 1759.5,3530.17 1759.5,3540.83 1759.5,3551.5C 1748.83,3551.5 1738.17,3551.5 1727.5,3551.5C 1727.5,3540.83 1727.5,3530.17 1727.5,3519.5 Z"/></g>
<g><path style="opacity:1" fill="#c2c6d1" d="M 1759.5,3519.5 C 1791.5,3519.5 1823.5,3519.5 1855.5,3519.5C 1855.5,3530.17 1855.5,3540.83 1855.5,3551.5C 1823.5,3551.5 1791.5,3551.5 1759.5,3551.5C 1759.5,3540.83 1759.5,3530.17 1759.5,3519.5 Z"/></g>
<g><path style="opacity:1" fill="#cacfe0" d="M 1855.5,3519.5 C 1919.5,3519.5 1983.5,3519.5 2047.5,3519.5C 2047.5,3530.17 2047.5,3540.83 2047.5,3551.5C 1983.5,3551.5 1919.5,3551.5 1855.5,3551.5C 1855.5,3540.83 1855.5,3530.17 1855.5,3519.5 Z"/></g>
<g><path style="opacity:0.039" fill="#b2b3b2" d="M 1631.5,3551.5 C 1642.17,3551.5 1652.83,3551.5 1663.5,3551.5C 1663.5,3562.17 1663.5,3572.83 1663.5,3583.5C 1652.83,3583.5 1642.17,3583.5 1631.5,3583.5C 1631.5,3572.83 1631.5,3562.17 1631.5,3551.5 Z"/></g>
<g><path style="opacity:0.89" fill="#bebfbe" d="M 1823.5,3583.5 C 1834.17,3583.5 1844.83,3583.5 1855.5,3583.5C 1855.5,3594.17 1855.5,3604.83 1855.5,3615.5C 1844.83,3615.5 1834.17,3615.5 1823.5,3615.5C 1823.5,3604.83 1823.5,3594.17 1823.5,3583.5 Z"/></g>
<g><path style="opacity:0.008" fill="#7f807f" d="M 2047.5,3583.5 C 2058.17,3583.5 2068.83,3583.5 2079.5,3583.5C 2079.5,3594.17 2079.5,3604.83 2079.5,3615.5C 2068.83,3615.5 2058.17,3615.5 2047.5,3615.5C 2047.5,3604.83 2047.5,3594.17 2047.5,3583.5 Z"/></g>
</svg>
