<?xml version="1.0" encoding="UTF-8"?>
<!DOCTYPE svg PUBLIC "-//W3C//DTD SVG 1.1//EN" "http://www.w3.org/Graphics/SVG/1.1/DTD/svg11.dtd">
<svg xmlns="http://www.w3.org/2000/svg" version="1.1" width="4320px" height="4320px" style="shape-rendering:geometricPrecision; text-rendering:geometricPrecision; image-rendering:optimizeQuality; fill-rule:evenodd; clip-rule:evenodd" xmlns:xlink="http://www.w3.org/1999/xlink">
<g><path style="opacity:0.996" fill="#1b1a1f" d="M 2239.5,2815.5 C 2239.5,2826.17 2239.5,2836.83 2239.5,2847.5C 2228.83,2847.5 2218.17,2847.5 2207.5,2847.5C 2207.5,2836.83 2207.5,2826.17 2207.5,2815.5C 2218.17,2815.5 2228.83,2815.5 2239.5,2815.5 Z"/></g>
<g><path style="opacity:1" fill="#0a090e" d="M 2239.5,2815.5 C 2303.5,2815.5 2367.5,2815.5 2431.5,2815.5C 2431.5,2826.17 2431.5,2836.83 2431.5,2847.5C 2452.83,2847.5 2474.17,2847.5 2495.5,2847.5C 2495.5,2858.17 2495.5,2868.83 2495.5,2879.5C 2495.5,2890.17 2495.5,2900.83 2495.5,2911.5C 2506.17,2911.5 2516.83,2911.5 2527.5,2911.5C 2527.5,2922.17 2527.5,2932.83 2527.5,2943.5C 2538.17,2943.5 2548.83,2943.5 2559.5,2943.5C 2559.5,2996.83 2559.5,3050.17 2559.5,3103.5C 2548.83,3103.5 2538.17,3103.5 2527.5,3103.5C 2527.5,3082.17 2527.5,3060.83 2527.5,3039.5C 2516.83,3039.5 2506.17,3039.5 2495.5,3039.5C 2495.5,3007.5 2495.5,2975.5 2495.5,2943.5C 2484.83,2943.5 2474.17,2943.5 2463.5,2943.5C 2463.5,2932.83 2463.5,2922.17 2463.5,2911.5C 2463.5,2900.83 2463.5,2890.17 2463.5,2879.5C 2452.83,2879.5 2442.17,2879.5 2431.5,2879.5C 2420.83,2879.5 2410.17,2879.5 2399.5,2879.5C 2399.5,2868.83 2399.5,2858.17 2399.5,2847.5C 2388.83,2847.5 2378.17,2847.5 2367.5,2847.5C 2335.5,2847.5 2303.5,2847.5 2271.5,2847.5C 2271.5,2858.17 2271.5,2868.83 2271.5,2879.5C 2250.17,2879.5 2228.83,2879.5 2207.5,2879.5C 2207.5,2890.17 2207.5,2900.83 2207.5,2911.5C 2196.83,2911.5 2186.17,2911.5 2175.5,2911.5C 2175.5,2932.83 2175.5,2954.17 2175.5,2975.5C 2164.83,2975.5 2154.17,2975.5 2143.5,2975.5C 2143.5,3028.83 2143.5,3082.17 2143.5,3135.5C 2132.83,3135.5 2122.17,3135.5 2111.5,3135.5C 2111.5,3071.5 2111.5,3007.5 2111.5,2943.5C 2122.17,2943.5 2132.83,2943.5 2143.5,2943.5C 2143.5,2932.83 2143.5,2922.17 2143.5,2911.5C 2143.5,2900.83 2143.5,2890.17 2143.5,2879.5C 2154.17,2879.5 2164.83,2879.5 2175.5,2879.5C 2175.5,2868.83 2175.5,2858.17 2175.5,2847.5C 2186.17,2847.5 2196.83,2847.5 2207.5,2847.5C 2218.17,2847.5 2228.83,2847.5 2239.5,2847.5C 2239.5,2836.83 2239.5,2826.17 2239.5,2815.5 Z"/></g>
<g><path style="opacity:1" fill="#c3c6d2" d="M 2367.5,2847.5 C 2367.5,2858.17 2367.5,2868.83 2367.5,2879.5C 2346.17,2879.5 2324.83,2879.5 2303.5,2879.5C 2303.5,2900.83 2303.5,2922.17 2303.5,2943.5C 2292.83,2943.5 2282.17,2943.5 2271.5,2943.5C 2271.5,2954.17 2271.5,2964.83 2271.5,2975.5C 2260.83,2975.5 2250.17,2975.5 2239.5,2975.5C 2239.5,3018.17 2239.5,3060.83 2239.5,3103.5C 2228.83,3103.5 2218.17,3103.5 2207.5,3103.5C 2207.5,3188.83 2207.5,3274.17 2207.5,3359.5C 2218.17,3359.5 2228.83,3359.5 2239.5,3359.5C 2239.5,3380.83 2239.5,3402.17 2239.5,3423.5C 2250.17,3423.5 2260.83,3423.5 2271.5,3423.5C 2271.5,3434.17 2271.5,3444.83 2271.5,3455.5C 2282.17,3455.5 2292.83,3455.5 2303.5,3455.5C 2303.5,3466.17 2303.5,3476.83 2303.5,3487.5C 2282.17,3487.5 2260.83,3487.5 2239.5,3487.5C 2239.5,3498.17 2239.5,3508.83 2239.5,3519.5C 2207.5,3519.5 2175.5,3519.5 2143.5,3519.5C 2143.5,3391.5 2143.5,3263.5 2143.5,3135.5C 2143.5,3082.17 2143.5,3028.83 2143.5,2975.5C 2154.17,2975.5 2164.83,2975.5 2175.5,2975.5C 2175.5,2954.17 2175.5,2932.83 2175.5,2911.5C 2186.17,2911.5 2196.83,2911.5 2207.5,2911.5C 2207.5,2900.83 2207.5,2890.17 2207.5,2879.5C 2228.83,2879.5 2250.17,2879.5 2271.5,2879.5C 2271.5,2868.83 2271.5,2858.17 2271.5,2847.5C 2303.5,2847.5 2335.5,2847.5 2367.5,2847.5 Z"/></g>
<g><path style="opacity:1" fill="#cbcfe0" d="M 2367.5,2847.5 C 2378.17,2847.5 2388.83,2847.5 2399.5,2847.5C 2399.5,2858.17 2399.5,2868.83 2399.5,2879.5C 2410.17,2879.5 2420.83,2879.5 2431.5,2879.5C 2442.17,2879.5 2452.83,2879.5 2463.5,2879.5C 2463.5,2890.17 2463.5,2900.83 2463.5,2911.5C 2463.5,2922.17 2463.5,2932.83 2463.5,2943.5C 2474.17,2943.5 2484.83,2943.5 2495.5,2943.5C 2495.5,2975.5 2495.5,3007.5 2495.5,3039.5C 2506.17,3039.5 2516.83,3039.5 2527.5,3039.5C 2527.5,3060.83 2527.5,3082.17 2527.5,3103.5C 2527.5,3167.5 2527.5,3231.5 2527.5,3295.5C 2527.5,3306.17 2527.5,3316.83 2527.5,3327.5C 2516.83,3327.5 2506.17,3327.5 2495.5,3327.5C 2495.5,3348.83 2495.5,3370.17 2495.5,3391.5C 2484.83,3391.5 2474.17,3391.5 2463.5,3391.5C 2463.5,3402.17 2463.5,3412.83 2463.5,3423.5C 2452.83,3423.5 2442.17,3423.5 2431.5,3423.5C 2431.5,3434.17 2431.5,3444.83 2431.5,3455.5C 2420.83,3455.5 2410.17,3455.5 2399.5,3455.5C 2399.5,3466.17 2399.5,3476.83 2399.5,3487.5C 2367.5,3487.5 2335.5,3487.5 2303.5,3487.5C 2303.5,3476.83 2303.5,3466.17 2303.5,3455.5C 2292.83,3455.5 2282.17,3455.5 2271.5,3455.5C 2271.5,3444.83 2271.5,3434.17 2271.5,3423.5C 2260.83,3423.5 2250.17,3423.5 2239.5,3423.5C 2239.5,3402.17 2239.5,3380.83 2239.5,3359.5C 2228.83,3359.5 2218.17,3359.5 2207.5,3359.5C 2207.5,3274.17 2207.5,3188.83 2207.5,3103.5C 2218.17,3103.5 2228.83,3103.5 2239.5,3103.5C 2239.5,3060.83 2239.5,3018.17 2239.5,2975.5C 2250.17,2975.5 2260.83,2975.5 2271.5,2975.5C 2271.5,2964.83 2271.5,2954.17 2271.5,2943.5C 2282.17,2943.5 2292.83,2943.5 2303.5,2943.5C 2303.5,2922.17 2303.5,2900.83 2303.5,2879.5C 2324.83,2879.5 2346.17,2879.5 2367.5,2879.5C 2367.5,2868.83 2367.5,2858.17 2367.5,2847.5 Z"/></g>
<g><path style="opacity:1" fill="#45444a" d="M 2431.5,2879.5 C 2442.17,2879.5 2452.83,2879.5 2463.5,2879.5C 2463.5,2890.17 2463.5,2900.83 2463.5,2911.5C 2452.83,2911.5 2442.17,2911.5 2431.5,2911.5C 2431.5,2900.83 2431.5,2890.17 2431.5,2879.5 Z"/></g>
<g><path style="opacity:0.953" fill="#444347" d="M 2495.5,2879.5 C 2506.17,2879.5 2516.83,2879.5 2527.5,2879.5C 2527.5,2890.17 2527.5,2900.83 2527.5,2911.5C 2527.5,2900.83 2527.5,2890.17 2527.5,2879.5C 2516.83,2879.5 2506.17,2879.5 2495.5,2879.5 Z"/></g>
<g><path style="opacity:0.263" fill="#c1c2c1" d="M 2143.5,2911.5 C 2143.5,2922.17 2143.5,2932.83 2143.5,2943.5C 2132.83,2943.5 2122.17,2943.5 2111.5,2943.5C 2111.5,2932.83 2111.5,2922.17 2111.5,2911.5C 2122.17,2911.5 2132.83,2911.5 2143.5,2911.5 Z"/></g>
<g><path style="opacity:1" fill="#000000" d="M 2527.5,3103.5 C 2538.17,3103.5 2548.83,3103.5 2559.5,3103.5C 2559.5,3114.17 2559.5,3124.83 2559.5,3135.5C 2570.17,3135.5 2580.83,3135.5 2591.5,3135.5C 2591.5,3242.17 2591.5,3348.83 2591.5,3455.5C 2602.17,3455.5 2612.83,3455.5 2623.5,3455.5C 2623.5,3487.5 2623.5,3519.5 2623.5,3551.5C 2612.83,3551.5 2602.17,3551.5 2591.5,3551.5C 2591.5,3562.17 2591.5,3572.83 2591.5,3583.5C 2570.17,3583.5 2548.83,3583.5 2527.5,3583.5C 2527.5,3594.17 2527.5,3604.83 2527.5,3615.5C 2474.17,3615.5 2420.83,3615.5 2367.5,3615.5C 2367.5,3626.17 2367.5,3636.83 2367.5,3647.5C 2282.17,3647.5 2196.83,3647.5 2111.5,3647.5C 2111.5,3572.83 2111.5,3498.17 2111.5,3423.5C 2100.83,3423.5 2090.17,3423.5 2079.5,3423.5C 2079.5,3380.83 2079.5,3338.17 2079.5,3295.5C 2090.17,3295.5 2100.83,3295.5 2111.5,3295.5C 2111.5,3284.83 2111.5,3274.17 2111.5,3263.5C 2111.5,3252.83 2111.5,3242.17 2111.5,3231.5C 2111.5,3199.5 2111.5,3167.5 2111.5,3135.5C 2122.17,3135.5 2132.83,3135.5 2143.5,3135.5C 2143.5,3263.5 2143.5,3391.5 2143.5,3519.5C 2175.5,3519.5 2207.5,3519.5 2239.5,3519.5C 2239.5,3508.83 2239.5,3498.17 2239.5,3487.5C 2260.83,3487.5 2282.17,3487.5 2303.5,3487.5C 2335.5,3487.5 2367.5,3487.5 2399.5,3487.5C 2420.83,3487.5 2442.17,3487.5 2463.5,3487.5C 2463.5,3476.83 2463.5,3466.17 2463.5,3455.5C 2495.5,3455.5 2527.5,3455.5 2559.5,3455.5C 2559.5,3402.17 2559.5,3348.83 2559.5,3295.5C 2548.83,3295.5 2538.17,3295.5 2527.5,3295.5C 2527.5,3231.5 2527.5,3167.5 2527.5,3103.5 Z"/></g>
<g><path style="opacity:0.071" fill="#b7b8b7" d="M 2559.5,3103.5 C 2570.17,3103.5 2580.83,3103.5 2591.5,3103.5C 2591.5,3114.17 2591.5,3124.83 2591.5,3135.5C 2591.5,3124.83 2591.5,3114.17 2591.5,3103.5C 2580.83,3103.5 2570.17,3103.5 2559.5,3103.5 Z"/></g>
<g><path style="opacity:0.231" fill="#bdbebd" d="M 2111.5,3231.5 C 2111.5,3242.17 2111.5,3252.83 2111.5,3263.5C 2100.83,3263.5 2090.17,3263.5 2079.5,3263.5C 2079.5,3252.83 2079.5,3242.17 2079.5,3231.5C 2090.17,3231.5 2100.83,3231.5 2111.5,3231.5 Z"/></g>
<g><path style="opacity:0.694" fill="#6a6b6a" d="M 2079.5,3263.5 C 2090.17,3263.5 2100.83,3263.5 2111.5,3263.5C 2111.5,3274.17 2111.5,3284.83 2111.5,3295.5C 2100.83,3295.5 2090.17,3295.5 2079.5,3295.5C 2079.5,3284.83 2079.5,3274.17 2079.5,3263.5 Z"/></g>
<g><path style="opacity:1" fill="#c3c6d1" d="M 2527.5,3295.5 C 2538.17,3295.5 2548.83,3295.5 2559.5,3295.5C 2559.5,3348.83 2559.5,3402.17 2559.5,3455.5C 2527.5,3455.5 2495.5,3455.5 2463.5,3455.5C 2463.5,3466.17 2463.5,3476.83 2463.5,3487.5C 2442.17,3487.5 2420.83,3487.5 2399.5,3487.5C 2399.5,3476.83 2399.5,3466.17 2399.5,3455.5C 2410.17,3455.5 2420.83,3455.5 2431.5,3455.5C 2431.5,3444.83 2431.5,3434.17 2431.5,3423.5C 2442.17,3423.5 2452.83,3423.5 2463.5,3423.5C 2463.5,3412.83 2463.5,3402.17 2463.5,3391.5C 2474.17,3391.5 2484.83,3391.5 2495.5,3391.5C 2495.5,3370.17 2495.5,3348.83 2495.5,3327.5C 2506.17,3327.5 2516.83,3327.5 2527.5,3327.5C 2527.5,3316.83 2527.5,3306.17 2527.5,3295.5 Z"/></g>
<g><path style="opacity:1" fill="#a4a9b4" d="M 2559.5,3519.5 C 2548.83,3519.5 2538.17,3519.5 2527.5,3519.5C 2527.5,3508.83 2527.5,3498.17 2527.5,3487.5C 2538.17,3487.5 2548.83,3487.5 2559.5,3487.5C 2559.5,3498.17 2559.5,3508.83 2559.5,3519.5 Z"/></g>
<g><path style="opacity:1" fill="#cacfe0" d="M 2527.5,3519.5 C 2538.17,3519.5 2548.83,3519.5 2559.5,3519.5C 2559.5,3530.17 2559.5,3540.83 2559.5,3551.5C 2527.5,3551.5 2495.5,3551.5 2463.5,3551.5C 2452.83,3551.5 2442.17,3551.5 2431.5,3551.5C 2420.83,3551.5 2410.17,3551.5 2399.5,3551.5C 2399.5,3540.83 2399.5,3530.17 2399.5,3519.5C 2442.17,3519.5 2484.83,3519.5 2527.5,3519.5 Z"/></g>
<g><path style="opacity:1" fill="#c2c6d1" d="M 2367.5,3551.5 C 2367.5,3562.17 2367.5,3572.83 2367.5,3583.5C 2303.5,3583.5 2239.5,3583.5 2175.5,3583.5C 2175.5,3572.83 2175.5,3562.17 2175.5,3551.5C 2239.5,3551.5 2303.5,3551.5 2367.5,3551.5 Z"/></g>
<g><path style="opacity:1" fill="#c5c9d8" d="M 2367.5,3551.5 C 2378.17,3551.5 2388.83,3551.5 2399.5,3551.5C 2410.17,3551.5 2420.83,3551.5 2431.5,3551.5C 2431.5,3562.17 2431.5,3572.83 2431.5,3583.5C 2410.17,3583.5 2388.83,3583.5 2367.5,3583.5C 2367.5,3572.83 2367.5,3562.17 2367.5,3551.5 Z"/></g>
<g><path style="opacity:1" fill="#c1c3ca" d="M 2431.5,3551.5 C 2442.17,3551.5 2452.83,3551.5 2463.5,3551.5C 2463.5,3562.17 2463.5,3572.83 2463.5,3583.5C 2452.83,3583.5 2442.17,3583.5 2431.5,3583.5C 2431.5,3572.83 2431.5,3562.17 2431.5,3551.5 Z"/></g>
<g><path style="opacity:0.788" fill="#919291" d="M 2623.5,3551.5 C 2623.5,3562.17 2623.5,3572.83 2623.5,3583.5C 2612.83,3583.5 2602.17,3583.5 2591.5,3583.5C 2591.5,3572.83 2591.5,3562.17 2591.5,3551.5C 2602.17,3551.5 2612.83,3551.5 2623.5,3551.5 Z"/></g>
</svg>
