<?xml version="1.0" encoding="UTF-8"?>
<!DOCTYPE svg PUBLIC "-//W3C//DTD SVG 1.1//EN" "http://www.w3.org/Graphics/SVG/1.1/DTD/svg11.dtd">
<svg xmlns="http://www.w3.org/2000/svg" version="1.1" width="4320px" height="4320px" style="shape-rendering:geometricPrecision; text-rendering:geometricPrecision; image-rendering:optimizeQuality; fill-rule:evenodd; clip-rule:evenodd" xmlns:xlink="http://www.w3.org/1999/xlink">
<g><path style="opacity:0.925" fill="#000000" d="M 2047.5,1567.5 C 2036.83,1567.5 2026.17,1567.5 2015.5,1567.5C 2015.5,1546.17 2015.5,1524.83 2015.5,1503.5C 2004.83,1503.5 1994.17,1503.5 1983.5,1503.5C 1983.5,1492.83 1983.5,1482.17 1983.5,1471.5C 1962.17,1471.5 1940.83,1471.5 1919.5,1471.5C 1919.5,1460.83 1919.5,1450.17 1919.5,1439.5C 1898.17,1439.5 1876.83,1439.5 1855.5,1439.5C 1855.5,1450.17 1855.5,1460.83 1855.5,1471.5C 1791.5,1471.5 1727.5,1471.5 1663.5,1471.5C 1663.5,1482.17 1663.5,1492.83 1663.5,1503.5C 1642.17,1503.5 1620.83,1503.5 1599.5,1503.5C 1599.5,1524.83 1599.5,1546.17 1599.5,1567.5C 1610.17,1567.5 1620.83,1567.5 1631.5,1567.5C 1631.5,1588.83 1631.5,1610.17 1631.5,1631.5C 1642.17,1631.5 1652.83,1631.5 1663.5,1631.5C 1663.5,1695.5 1663.5,1759.5 1663.5,1823.5C 1684.83,1823.5 1706.17,1823.5 1727.5,1823.5C 1738.17,1823.5 1748.83,1823.5 1759.5,1823.5C 1759.5,1812.83 1759.5,1802.17 1759.5,1791.5C 1812.83,1791.5 1866.17,1791.5 1919.5,1791.5C 1919.5,1802.17 1919.5,1812.83 1919.5,1823.5C 1908.83,1823.5 1898.17,1823.5 1887.5,1823.5C 1887.5,1834.17 1887.5,1844.83 1887.5,1855.5C 1802.17,1855.5 1716.83,1855.5 1631.5,1855.5C 1631.5,1866.17 1631.5,1876.83 1631.5,1887.5C 1620.83,1887.5 1610.17,1887.5 1599.5,1887.5C 1599.5,1791.5 1599.5,1695.5 1599.5,1599.5C 1588.83,1599.5 1578.17,1599.5 1567.5,1599.5C 1567.5,1588.83 1567.5,1578.17 1567.5,1567.5C 1556.83,1567.5 1546.17,1567.5 1535.5,1567.5C 1535.5,1578.17 1535.5,1588.83 1535.5,1599.5C 1524.83,1599.5 1514.17,1599.5 1503.5,1599.5C 1503.5,1567.5 1503.5,1535.5 1503.5,1503.5C 1514.17,1503.5 1524.83,1503.5 1535.5,1503.5C 1535.5,1492.83 1535.5,1482.17 1535.5,1471.5C 1546.17,1471.5 1556.83,1471.5 1567.5,1471.5C 1567.5,1460.83 1567.5,1450.17 1567.5,1439.5C 1620.83,1439.5 1674.17,1439.5 1727.5,1439.5C 1727.5,1428.83 1727.5,1418.17 1727.5,1407.5C 1812.83,1407.5 1898.17,1407.5 1983.5,1407.5C 1983.5,1418.17 1983.5,1428.83 1983.5,1439.5C 1994.17,1439.5 2004.83,1439.5 2015.5,1439.5C 2015.5,1450.17 2015.5,1460.83 2015.5,1471.5C 2026.17,1471.5 2036.83,1471.5 2047.5,1471.5C 2047.5,1503.5 2047.5,1535.5 2047.5,1567.5 Z"/></g>
<g><path style="opacity:1" fill="#dfdfdf" d="M 1983.5,1503.5 C 1898.17,1503.5 1812.83,1503.5 1727.5,1503.5C 1727.5,1514.17 1727.5,1524.83 1727.5,1535.5C 1706.17,1535.5 1684.83,1535.5 1663.5,1535.5C 1663.5,1546.17 1663.5,1556.83 1663.5,1567.5C 1652.83,1567.5 1642.17,1567.5 1631.5,1567.5C 1620.83,1567.5 1610.17,1567.5 1599.5,1567.5C 1599.5,1546.17 1599.5,1524.83 1599.5,1503.5C 1620.83,1503.5 1642.17,1503.5 1663.5,1503.5C 1663.5,1492.83 1663.5,1482.17 1663.5,1471.5C 1727.5,1471.5 1791.5,1471.5 1855.5,1471.5C 1855.5,1460.83 1855.5,1450.17 1855.5,1439.5C 1876.83,1439.5 1898.17,1439.5 1919.5,1439.5C 1919.5,1450.17 1919.5,1460.83 1919.5,1471.5C 1940.83,1471.5 1962.17,1471.5 1983.5,1471.5C 1983.5,1482.17 1983.5,1492.83 1983.5,1503.5 Z"/></g>
<g><path style="opacity:1" fill="#efefef" d="M 1983.5,1503.5 C 1994.17,1503.5 2004.83,1503.5 2015.5,1503.5C 2015.5,1524.83 2015.5,1546.17 2015.5,1567.5C 2026.17,1567.5 2036.83,1567.5 2047.5,1567.5C 2047.5,1610.17 2047.5,1652.83 2047.5,1695.5C 2036.83,1695.5 2026.17,1695.5 2015.5,1695.5C 2015.5,1716.83 2015.5,1738.17 2015.5,1759.5C 2004.83,1759.5 1994.17,1759.5 1983.5,1759.5C 1983.5,1770.17 1983.5,1780.83 1983.5,1791.5C 1972.83,1791.5 1962.17,1791.5 1951.5,1791.5C 1940.83,1791.5 1930.17,1791.5 1919.5,1791.5C 1866.17,1791.5 1812.83,1791.5 1759.5,1791.5C 1748.83,1791.5 1738.17,1791.5 1727.5,1791.5C 1727.5,1802.17 1727.5,1812.83 1727.5,1823.5C 1706.17,1823.5 1684.83,1823.5 1663.5,1823.5C 1663.5,1759.5 1663.5,1695.5 1663.5,1631.5C 1652.83,1631.5 1642.17,1631.5 1631.5,1631.5C 1631.5,1610.17 1631.5,1588.83 1631.5,1567.5C 1642.17,1567.5 1652.83,1567.5 1663.5,1567.5C 1663.5,1556.83 1663.5,1546.17 1663.5,1535.5C 1684.83,1535.5 1706.17,1535.5 1727.5,1535.5C 1727.5,1524.83 1727.5,1514.17 1727.5,1503.5C 1812.83,1503.5 1898.17,1503.5 1983.5,1503.5 Z"/></g>
<g><path style="opacity:1" fill="#0f100f" d="M 1759.5,1791.5 C 1759.5,1802.17 1759.5,1812.83 1759.5,1823.5C 1748.83,1823.5 1738.17,1823.5 1727.5,1823.5C 1727.5,1812.83 1727.5,1802.17 1727.5,1791.5C 1738.17,1791.5 1748.83,1791.5 1759.5,1791.5 Z"/></g>
<g><path style="opacity:0.012" fill="#fefffe" d="M 1919.5,1791.5 C 1930.17,1791.5 1940.83,1791.5 1951.5,1791.5C 1951.5,1802.17 1951.5,1812.83 1951.5,1823.5C 1940.83,1823.5 1930.17,1823.5 1919.5,1823.5C 1919.5,1812.83 1919.5,1802.17 1919.5,1791.5 Z"/></g>
</svg>
