<?xml version="1.0" encoding="UTF-8"?>
<!DOCTYPE svg PUBLIC "-//W3C//DTD SVG 1.1//EN" "http://www.w3.org/Graphics/SVG/1.1/DTD/svg11.dtd">
<svg xmlns="http://www.w3.org/2000/svg" version="1.1" width="4320px" height="4320px" style="shape-rendering:geometricPrecision; text-rendering:geometricPrecision; image-rendering:optimizeQuality; fill-rule:evenodd; clip-rule:evenodd" xmlns:xlink="http://www.w3.org/1999/xlink">
<g><path style="opacity:0.953" fill="#000000" d="M 2143.5,1663.5 C 2154.17,1663.5 2164.83,1663.5 2175.5,1663.5C 2175.5,1674.17 2175.5,1684.83 2175.5,1695.5C 2186.17,1695.5 2196.83,1695.5 2207.5,1695.5C 2207.5,1706.17 2207.5,1716.83 2207.5,1727.5C 2218.17,1727.5 2228.83,1727.5 2239.5,1727.5C 2239.5,1738.17 2239.5,1748.83 2239.5,1759.5C 2250.17,1759.5 2260.83,1759.5 2271.5,1759.5C 2271.5,1770.17 2271.5,1780.83 2271.5,1791.5C 2292.83,1791.5 2314.17,1791.5 2335.5,1791.5C 2335.5,1802.17 2335.5,1812.83 2335.5,1823.5C 2442.17,1823.5 2548.83,1823.5 2655.5,1823.5C 2655.5,1802.17 2655.5,1780.83 2655.5,1759.5C 2655.5,1684.83 2655.5,1610.17 2655.5,1535.5C 2655.5,1524.83 2655.5,1514.17 2655.5,1503.5C 2644.83,1503.5 2634.17,1503.5 2623.5,1503.5C 2527.5,1503.5 2431.5,1503.5 2335.5,1503.5C 2335.5,1514.17 2335.5,1524.83 2335.5,1535.5C 2324.83,1535.5 2314.17,1535.5 2303.5,1535.5C 2303.5,1546.17 2303.5,1556.83 2303.5,1567.5C 2292.83,1567.5 2282.17,1567.5 2271.5,1567.5C 2271.5,1578.17 2271.5,1588.83 2271.5,1599.5C 2260.83,1599.5 2250.17,1599.5 2239.5,1599.5C 2239.5,1610.17 2239.5,1620.83 2239.5,1631.5C 2228.83,1631.5 2218.17,1631.5 2207.5,1631.5C 2207.5,1610.17 2207.5,1588.83 2207.5,1567.5C 2218.17,1567.5 2228.83,1567.5 2239.5,1567.5C 2239.5,1546.17 2239.5,1524.83 2239.5,1503.5C 2260.83,1503.5 2282.17,1503.5 2303.5,1503.5C 2303.5,1492.83 2303.5,1482.17 2303.5,1471.5C 2324.83,1471.5 2346.17,1471.5 2367.5,1471.5C 2367.5,1460.83 2367.5,1450.17 2367.5,1439.5C 2463.5,1439.5 2559.5,1439.5 2655.5,1439.5C 2655.5,1450.17 2655.5,1460.83 2655.5,1471.5C 2666.17,1471.5 2676.83,1471.5 2687.5,1471.5C 2687.5,1492.83 2687.5,1514.17 2687.5,1535.5C 2698.17,1535.5 2708.83,1535.5 2719.5,1535.5C 2719.5,1631.5 2719.5,1727.5 2719.5,1823.5C 2708.83,1823.5 2698.17,1823.5 2687.5,1823.5C 2687.5,1844.83 2687.5,1866.17 2687.5,1887.5C 2580.83,1887.5 2474.17,1887.5 2367.5,1887.5C 2367.5,1876.83 2367.5,1866.17 2367.5,1855.5C 2335.5,1855.5 2303.5,1855.5 2271.5,1855.5C 2271.5,1844.83 2271.5,1834.17 2271.5,1823.5C 2260.83,1823.5 2250.17,1823.5 2239.5,1823.5C 2239.5,1812.83 2239.5,1802.17 2239.5,1791.5C 2228.83,1791.5 2218.17,1791.5 2207.5,1791.5C 2207.5,1780.83 2207.5,1770.17 2207.5,1759.5C 2196.83,1759.5 2186.17,1759.5 2175.5,1759.5C 2175.5,1748.83 2175.5,1738.17 2175.5,1727.5C 2164.83,1727.5 2154.17,1727.5 2143.5,1727.5C 2143.5,1716.83 2143.5,1706.17 2143.5,1695.5C 2132.83,1695.5 2122.17,1695.5 2111.5,1695.5C 2111.5,1684.83 2111.5,1674.17 2111.5,1663.5C 2122.17,1663.5 2132.83,1663.5 2143.5,1663.5 Z"/></g>
<g><path style="opacity:1" fill="#efefef" d="M 2623.5,1503.5 C 2634.17,1503.5 2644.83,1503.5 2655.5,1503.5C 2655.5,1514.17 2655.5,1524.83 2655.5,1535.5C 2655.5,1610.17 2655.5,1684.83 2655.5,1759.5C 2623.5,1759.5 2591.5,1759.5 2559.5,1759.5C 2559.5,1770.17 2559.5,1780.83 2559.5,1791.5C 2495.5,1791.5 2431.5,1791.5 2367.5,1791.5C 2367.5,1780.83 2367.5,1770.17 2367.5,1759.5C 2335.5,1759.5 2303.5,1759.5 2271.5,1759.5C 2260.83,1759.5 2250.17,1759.5 2239.5,1759.5C 2239.5,1748.83 2239.5,1738.17 2239.5,1727.5C 2228.83,1727.5 2218.17,1727.5 2207.5,1727.5C 2207.5,1716.83 2207.5,1706.17 2207.5,1695.5C 2196.83,1695.5 2186.17,1695.5 2175.5,1695.5C 2175.5,1684.83 2175.5,1674.17 2175.5,1663.5C 2175.5,1652.83 2175.5,1642.17 2175.5,1631.5C 2186.17,1631.5 2196.83,1631.5 2207.5,1631.5C 2218.17,1631.5 2228.83,1631.5 2239.5,1631.5C 2239.5,1620.83 2239.5,1610.17 2239.5,1599.5C 2250.17,1599.5 2260.83,1599.5 2271.5,1599.5C 2271.5,1588.83 2271.5,1578.17 2271.5,1567.5C 2282.17,1567.5 2292.83,1567.5 2303.5,1567.5C 2303.5,1556.83 2303.5,1546.17 2303.5,1535.5C 2314.17,1535.5 2324.83,1535.5 2335.5,1535.5C 2335.5,1524.83 2335.5,1514.17 2335.5,1503.5C 2431.5,1503.5 2527.5,1503.5 2623.5,1503.5 Z"/></g>
<g><path style="opacity:1" fill="#2c2d2c" d="M 2623.5,1503.5 C 2634.17,1503.5 2644.83,1503.5 2655.5,1503.5C 2655.5,1514.17 2655.5,1524.83 2655.5,1535.5C 2644.83,1535.5 2634.17,1535.5 2623.5,1535.5C 2623.5,1524.83 2623.5,1514.17 2623.5,1503.5 Z"/></g>
<g><path style="opacity:0.973" fill="#dedfde" d="M 2175.5,1631.5 C 2175.5,1642.17 2175.5,1652.83 2175.5,1663.5C 2164.83,1663.5 2154.17,1663.5 2143.5,1663.5C 2143.5,1652.83 2143.5,1642.17 2143.5,1631.5C 2154.17,1631.5 2164.83,1631.5 2175.5,1631.5 Z"/></g>
<g><path style="opacity:1" fill="#dfe0df" d="M 2175.5,1663.5 C 2186.17,1663.5 2196.83,1663.5 2207.5,1663.5C 2207.5,1674.17 2207.5,1684.83 2207.5,1695.5C 2207.5,1684.83 2207.5,1674.17 2207.5,1663.5C 2196.83,1663.5 2186.17,1663.5 2175.5,1663.5 Z"/></g>
<g><path style="opacity:1" fill="#dfe0df" d="M 2207.5,1695.5 C 2218.17,1695.5 2228.83,1695.5 2239.5,1695.5C 2239.5,1706.17 2239.5,1716.83 2239.5,1727.5C 2239.5,1716.83 2239.5,1706.17 2239.5,1695.5C 2228.83,1695.5 2218.17,1695.5 2207.5,1695.5 Z"/></g>
<g><path style="opacity:1" fill="#dfe0df" d="M 2239.5,1727.5 C 2250.17,1727.5 2260.83,1727.5 2271.5,1727.5C 2271.5,1738.17 2271.5,1748.83 2271.5,1759.5C 2271.5,1748.83 2271.5,1738.17 2271.5,1727.5C 2260.83,1727.5 2250.17,1727.5 2239.5,1727.5 Z"/></g>
<g><path style="opacity:1" fill="#dfe0df" d="M 2271.5,1759.5 C 2303.5,1759.5 2335.5,1759.5 2367.5,1759.5C 2367.5,1770.17 2367.5,1780.83 2367.5,1791.5C 2431.5,1791.5 2495.5,1791.5 2559.5,1791.5C 2559.5,1780.83 2559.5,1770.17 2559.5,1759.5C 2591.5,1759.5 2623.5,1759.5 2655.5,1759.5C 2655.5,1780.83 2655.5,1802.17 2655.5,1823.5C 2548.83,1823.5 2442.17,1823.5 2335.5,1823.5C 2335.5,1812.83 2335.5,1802.17 2335.5,1791.5C 2314.17,1791.5 2292.83,1791.5 2271.5,1791.5C 2271.5,1780.83 2271.5,1770.17 2271.5,1759.5 Z"/></g>
</svg>
