<?xml version="1.0" encoding="UTF-8"?>
<!DOCTYPE svg PUBLIC "-//W3C//DTD SVG 1.1//EN" "http://www.w3.org/Graphics/SVG/1.1/DTD/svg11.dtd">
<svg xmlns="http://www.w3.org/2000/svg" version="1.1" width="4320px" height="4320px" style="shape-rendering:geometricPrecision; text-rendering:geometricPrecision; image-rendering:optimizeQuality; fill-rule:evenodd; clip-rule:evenodd" xmlns:xlink="http://www.w3.org/1999/xlink">
<g><path style="opacity:0.972" fill="#000000" d="M 1791.5,3391.5 C 1834.17,3391.5 1876.83,3391.5 1919.5,3391.5C 1919.5,3402.17 1919.5,3412.83 1919.5,3423.5C 1940.83,3423.5 1962.17,3423.5 1983.5,3423.5C 1983.5,3444.83 1983.5,3466.17 1983.5,3487.5C 1994.17,3487.5 2004.83,3487.5 2015.5,3487.5C 2015.5,3519.5 2015.5,3551.5 2015.5,3583.5C 2036.83,3583.5 2058.17,3583.5 2079.5,3583.5C 2079.5,3594.17 2079.5,3604.83 2079.5,3615.5C 2111.5,3615.5 2143.5,3615.5 2175.5,3615.5C 2175.5,3626.17 2175.5,3636.83 2175.5,3647.5C 2186.17,3647.5 2196.83,3647.5 2207.5,3647.5C 2207.5,3658.17 2207.5,3668.83 2207.5,3679.5C 2218.17,3679.5 2228.83,3679.5 2239.5,3679.5C 2239.5,3711.5 2239.5,3743.5 2239.5,3775.5C 2250.17,3775.5 2260.83,3775.5 2271.5,3775.5C 2271.5,3807.5 2271.5,3839.5 2271.5,3871.5C 2260.83,3871.5 2250.17,3871.5 2239.5,3871.5C 2239.5,3892.83 2239.5,3914.17 2239.5,3935.5C 2218.17,3935.5 2196.83,3935.5 2175.5,3935.5C 2175.5,3946.17 2175.5,3956.83 2175.5,3967.5C 2111.5,3967.5 2047.5,3967.5 1983.5,3967.5C 1983.5,3956.83 1983.5,3946.17 1983.5,3935.5C 1940.83,3935.5 1898.17,3935.5 1855.5,3935.5C 1855.5,3924.83 1855.5,3914.17 1855.5,3903.5C 1823.5,3903.5 1791.5,3903.5 1759.5,3903.5C 1759.5,3892.83 1759.5,3882.17 1759.5,3871.5C 1738.17,3871.5 1716.83,3871.5 1695.5,3871.5C 1695.5,3860.83 1695.5,3850.17 1695.5,3839.5C 1684.83,3839.5 1674.17,3839.5 1663.5,3839.5C 1663.5,3807.5 1663.5,3775.5 1663.5,3743.5C 1652.83,3743.5 1642.17,3743.5 1631.5,3743.5C 1631.5,3722.17 1631.5,3700.83 1631.5,3679.5C 1642.17,3679.5 1652.83,3679.5 1663.5,3679.5C 1663.5,3636.83 1663.5,3594.17 1663.5,3551.5C 1674.17,3551.5 1684.83,3551.5 1695.5,3551.5C 1695.5,3530.17 1695.5,3508.83 1695.5,3487.5C 1706.17,3487.5 1716.83,3487.5 1727.5,3487.5C 1727.5,3466.17 1727.5,3444.83 1727.5,3423.5C 1748.83,3423.5 1770.17,3423.5 1791.5,3423.5C 1791.5,3412.83 1791.5,3402.17 1791.5,3391.5 Z"/></g>
<g><path style="opacity:1" fill="#201914" d="M 1791.5,3455.5 C 1791.5,3466.17 1791.5,3476.83 1791.5,3487.5C 1780.83,3487.5 1770.17,3487.5 1759.5,3487.5C 1759.5,3476.83 1759.5,3466.17 1759.5,3455.5C 1770.17,3455.5 1780.83,3455.5 1791.5,3455.5 Z"/></g>
<g><path style="opacity:1" fill="#be9177" d="M 1791.5,3455.5 C 1834.17,3455.5 1876.83,3455.5 1919.5,3455.5C 1919.5,3466.17 1919.5,3476.83 1919.5,3487.5C 1930.17,3487.5 1940.83,3487.5 1951.5,3487.5C 1951.5,3519.5 1951.5,3551.5 1951.5,3583.5C 1887.5,3583.5 1823.5,3583.5 1759.5,3583.5C 1759.5,3572.83 1759.5,3562.17 1759.5,3551.5C 1759.5,3540.83 1759.5,3530.17 1759.5,3519.5C 1759.5,3508.83 1759.5,3498.17 1759.5,3487.5C 1770.17,3487.5 1780.83,3487.5 1791.5,3487.5C 1791.5,3476.83 1791.5,3466.17 1791.5,3455.5 Z"/></g>
<g><path style="opacity:1" fill="#b58970" d="M 1759.5,3519.5 C 1759.5,3530.17 1759.5,3540.83 1759.5,3551.5C 1748.83,3551.5 1738.17,3551.5 1727.5,3551.5C 1727.5,3540.83 1727.5,3530.17 1727.5,3519.5C 1738.17,3519.5 1748.83,3519.5 1759.5,3519.5 Z"/></g>
<g><path style="opacity:1" fill="#1b1b1b" d="M 1951.5,3679.5 C 1951.5,3690.17 1951.5,3700.83 1951.5,3711.5C 1972.83,3711.5 1994.17,3711.5 2015.5,3711.5C 2026.17,3711.5 2036.83,3711.5 2047.5,3711.5C 2047.5,3722.17 2047.5,3732.83 2047.5,3743.5C 2058.17,3743.5 2068.83,3743.5 2079.5,3743.5C 2079.5,3732.83 2079.5,3722.17 2079.5,3711.5C 2090.17,3711.5 2100.83,3711.5 2111.5,3711.5C 2111.5,3700.83 2111.5,3690.17 2111.5,3679.5C 2122.17,3679.5 2132.83,3679.5 2143.5,3679.5C 2143.5,3690.17 2143.5,3700.83 2143.5,3711.5C 2154.17,3711.5 2164.83,3711.5 2175.5,3711.5C 2175.5,3722.17 2175.5,3732.83 2175.5,3743.5C 2186.17,3743.5 2196.83,3743.5 2207.5,3743.5C 2207.5,3775.5 2207.5,3807.5 2207.5,3839.5C 2154.17,3839.5 2100.83,3839.5 2047.5,3839.5C 2047.5,3828.83 2047.5,3818.17 2047.5,3807.5C 2015.5,3807.5 1983.5,3807.5 1951.5,3807.5C 1951.5,3796.83 1951.5,3786.17 1951.5,3775.5C 1930.17,3775.5 1908.83,3775.5 1887.5,3775.5C 1887.5,3764.83 1887.5,3754.17 1887.5,3743.5C 1855.5,3743.5 1823.5,3743.5 1791.5,3743.5C 1791.5,3732.83 1791.5,3722.17 1791.5,3711.5C 1780.83,3711.5 1770.17,3711.5 1759.5,3711.5C 1759.5,3700.83 1759.5,3690.17 1759.5,3679.5C 1748.83,3679.5 1738.17,3679.5 1727.5,3679.5C 1727.5,3668.83 1727.5,3658.17 1727.5,3647.5C 1716.83,3647.5 1706.17,3647.5 1695.5,3647.5C 1695.5,3636.83 1695.5,3626.17 1695.5,3615.5C 1727.5,3615.5 1759.5,3615.5 1791.5,3615.5C 1791.5,3626.17 1791.5,3636.83 1791.5,3647.5C 1823.5,3647.5 1855.5,3647.5 1887.5,3647.5C 1887.5,3658.17 1887.5,3668.83 1887.5,3679.5C 1908.83,3679.5 1930.17,3679.5 1951.5,3679.5 Z"/></g>
<g><path style="opacity:1" fill="#121312" d="M 2047.5,3647.5 C 2047.5,3658.17 2047.5,3668.83 2047.5,3679.5C 2036.83,3679.5 2026.17,3679.5 2015.5,3679.5C 1994.17,3679.5 1972.83,3679.5 1951.5,3679.5C 1951.5,3668.83 1951.5,3658.17 1951.5,3647.5C 1940.83,3647.5 1930.17,3647.5 1919.5,3647.5C 1919.5,3636.83 1919.5,3626.17 1919.5,3615.5C 1951.5,3615.5 1983.5,3615.5 2015.5,3615.5C 2015.5,3626.17 2015.5,3636.83 2015.5,3647.5C 2026.17,3647.5 2036.83,3647.5 2047.5,3647.5 Z"/></g>
<g><path style="opacity:1" fill="#1b1817" d="M 1695.5,3647.5 C 1706.17,3647.5 1716.83,3647.5 1727.5,3647.5C 1727.5,3658.17 1727.5,3668.83 1727.5,3679.5C 1738.17,3679.5 1748.83,3679.5 1759.5,3679.5C 1759.5,3690.17 1759.5,3700.83 1759.5,3711.5C 1770.17,3711.5 1780.83,3711.5 1791.5,3711.5C 1791.5,3722.17 1791.5,3732.83 1791.5,3743.5C 1823.5,3743.5 1855.5,3743.5 1887.5,3743.5C 1887.5,3754.17 1887.5,3764.83 1887.5,3775.5C 1908.83,3775.5 1930.17,3775.5 1951.5,3775.5C 1951.5,3786.17 1951.5,3796.83 1951.5,3807.5C 1983.5,3807.5 2015.5,3807.5 2047.5,3807.5C 2047.5,3818.17 2047.5,3828.83 2047.5,3839.5C 2004.83,3839.5 1962.17,3839.5 1919.5,3839.5C 1919.5,3828.83 1919.5,3818.17 1919.5,3807.5C 1876.83,3807.5 1834.17,3807.5 1791.5,3807.5C 1791.5,3796.83 1791.5,3786.17 1791.5,3775.5C 1770.17,3775.5 1748.83,3775.5 1727.5,3775.5C 1727.5,3764.83 1727.5,3754.17 1727.5,3743.5C 1716.83,3743.5 1706.17,3743.5 1695.5,3743.5C 1695.5,3711.5 1695.5,3679.5 1695.5,3647.5 Z"/></g>
<g><path style="opacity:1" fill="#0f100f" d="M 2047.5,3647.5 C 2068.83,3647.5 2090.17,3647.5 2111.5,3647.5C 2111.5,3658.17 2111.5,3668.83 2111.5,3679.5C 2100.83,3679.5 2090.17,3679.5 2079.5,3679.5C 2079.5,3690.17 2079.5,3700.83 2079.5,3711.5C 2068.83,3711.5 2058.17,3711.5 2047.5,3711.5C 2036.83,3711.5 2026.17,3711.5 2015.5,3711.5C 2015.5,3700.83 2015.5,3690.17 2015.5,3679.5C 2026.17,3679.5 2036.83,3679.5 2047.5,3679.5C 2047.5,3668.83 2047.5,3658.17 2047.5,3647.5 Z"/></g>
<g><path style="opacity:1" fill="#000000" d="M 1951.5,3679.5 C 1972.83,3679.5 1994.17,3679.5 2015.5,3679.5C 2015.5,3690.17 2015.5,3700.83 2015.5,3711.5C 1994.17,3711.5 1972.83,3711.5 1951.5,3711.5C 1951.5,3700.83 1951.5,3690.17 1951.5,3679.5 Z"/></g>
<g><path style="opacity:1" fill="#000000" d="M 2111.5,3679.5 C 2111.5,3690.17 2111.5,3700.83 2111.5,3711.5C 2100.83,3711.5 2090.17,3711.5 2079.5,3711.5C 2079.5,3700.83 2079.5,3690.17 2079.5,3679.5C 2090.17,3679.5 2100.83,3679.5 2111.5,3679.5 Z"/></g>
<g><path style="opacity:1" fill="#111211" d="M 2143.5,3679.5 C 2154.17,3679.5 2164.83,3679.5 2175.5,3679.5C 2175.5,3690.17 2175.5,3700.83 2175.5,3711.5C 2175.5,3700.83 2175.5,3690.17 2175.5,3679.5C 2164.83,3679.5 2154.17,3679.5 2143.5,3679.5 Z"/></g>
<g><path style="opacity:1" fill="#000000" d="M 2047.5,3711.5 C 2058.17,3711.5 2068.83,3711.5 2079.5,3711.5C 2079.5,3722.17 2079.5,3732.83 2079.5,3743.5C 2068.83,3743.5 2058.17,3743.5 2047.5,3743.5C 2047.5,3732.83 2047.5,3722.17 2047.5,3711.5 Z"/></g>
<g><path style="opacity:1" fill="#0f100f" d="M 1727.5,3775.5 C 1727.5,3786.17 1727.5,3796.83 1727.5,3807.5C 1716.83,3807.5 1706.17,3807.5 1695.5,3807.5C 1695.5,3796.83 1695.5,3786.17 1695.5,3775.5C 1706.17,3775.5 1716.83,3775.5 1727.5,3775.5 Z"/></g>
<g><path style="opacity:1" fill="#0f100f" d="M 1791.5,3807.5 C 1791.5,3818.17 1791.5,3828.83 1791.5,3839.5C 1780.83,3839.5 1770.17,3839.5 1759.5,3839.5C 1759.5,3828.83 1759.5,3818.17 1759.5,3807.5C 1770.17,3807.5 1780.83,3807.5 1791.5,3807.5 Z"/></g>
<g><path style="opacity:1" fill="#0f100f" d="M 1823.5,3839.5 C 1844.83,3839.5 1866.17,3839.5 1887.5,3839.5C 1887.5,3850.17 1887.5,3860.83 1887.5,3871.5C 1866.17,3871.5 1844.83,3871.5 1823.5,3871.5C 1823.5,3860.83 1823.5,3850.17 1823.5,3839.5 Z"/></g>
<g><path style="opacity:1" fill="#121212" d="M 1919.5,3871.5 C 2004.83,3871.5 2090.17,3871.5 2175.5,3871.5C 2175.5,3882.17 2175.5,3892.83 2175.5,3903.5C 2090.17,3903.5 2004.83,3903.5 1919.5,3903.5C 1919.5,3892.83 1919.5,3882.17 1919.5,3871.5 Z"/></g>
</svg>
