<?xml version="1.0" encoding="UTF-8"?>
<!DOCTYPE svg PUBLIC "-//W3C//DTD SVG 1.1//EN" "http://www.w3.org/Graphics/SVG/1.1/DTD/svg11.dtd">
<svg xmlns="http://www.w3.org/2000/svg" version="1.1" width="4320px" height="4320px" style="shape-rendering:geometricPrecision; text-rendering:geometricPrecision; image-rendering:optimizeQuality; fill-rule:evenodd; clip-rule:evenodd" xmlns:xlink="http://www.w3.org/1999/xlink">
<g><path style="opacity:0.988" fill="#bf9178" d="M 2239.5,1407.5 C 2239.5,1418.17 2239.5,1428.83 2239.5,1439.5C 2228.83,1439.5 2218.17,1439.5 2207.5,1439.5C 2207.5,1450.17 2207.5,1460.83 2207.5,1471.5C 2218.17,1471.5 2228.83,1471.5 2239.5,1471.5C 2250.17,1471.5 2260.83,1471.5 2271.5,1471.5C 2271.5,1482.17 2271.5,1492.83 2271.5,1503.5C 2282.17,1503.5 2292.83,1503.5 2303.5,1503.5C 2303.5,1524.83 2303.5,1546.17 2303.5,1567.5C 2292.83,1567.5 2282.17,1567.5 2271.5,1567.5C 2271.5,1588.83 2271.5,1610.17 2271.5,1631.5C 2250.17,1631.5 2228.83,1631.5 2207.5,1631.5C 2207.5,1620.83 2207.5,1610.17 2207.5,1599.5C 2186.17,1599.5 2164.83,1599.5 2143.5,1599.5C 2143.5,1588.83 2143.5,1578.17 2143.5,1567.5C 2132.83,1567.5 2122.17,1567.5 2111.5,1567.5C 2111.5,1556.83 2111.5,1546.17 2111.5,1535.5C 2100.83,1535.5 2090.17,1535.5 2079.5,1535.5C 2079.5,1524.83 2079.5,1514.17 2079.5,1503.5C 2068.83,1503.5 2058.17,1503.5 2047.5,1503.5C 2047.5,1492.83 2047.5,1482.17 2047.5,1471.5C 2058.17,1471.5 2068.83,1471.5 2079.5,1471.5C 2079.5,1428.83 2079.5,1386.17 2079.5,1343.5C 2079.5,1332.83 2079.5,1322.17 2079.5,1311.5C 2090.17,1311.5 2100.83,1311.5 2111.5,1311.5C 2111.5,1300.83 2111.5,1290.17 2111.5,1279.5C 2132.83,1279.5 2154.17,1279.5 2175.5,1279.5C 2175.5,1290.17 2175.5,1300.83 2175.5,1311.5C 2196.83,1311.5 2218.17,1311.5 2239.5,1311.5C 2239.5,1343.5 2239.5,1375.5 2239.5,1407.5 Z"/></g>
<g><path style="opacity:0.979" fill="#000000" d="M 2079.5,1343.5 C 2079.5,1386.17 2079.5,1428.83 2079.5,1471.5C 2068.83,1471.5 2058.17,1471.5 2047.5,1471.5C 2047.5,1482.17 2047.5,1492.83 2047.5,1503.5C 2058.17,1503.5 2068.83,1503.5 2079.5,1503.5C 2079.5,1514.17 2079.5,1524.83 2079.5,1535.5C 2090.17,1535.5 2100.83,1535.5 2111.5,1535.5C 2111.5,1546.17 2111.5,1556.83 2111.5,1567.5C 2122.17,1567.5 2132.83,1567.5 2143.5,1567.5C 2143.5,1578.17 2143.5,1588.83 2143.5,1599.5C 2164.83,1599.5 2186.17,1599.5 2207.5,1599.5C 2207.5,1610.17 2207.5,1620.83 2207.5,1631.5C 2228.83,1631.5 2250.17,1631.5 2271.5,1631.5C 2271.5,1610.17 2271.5,1588.83 2271.5,1567.5C 2282.17,1567.5 2292.83,1567.5 2303.5,1567.5C 2303.5,1546.17 2303.5,1524.83 2303.5,1503.5C 2292.83,1503.5 2282.17,1503.5 2271.5,1503.5C 2271.5,1492.83 2271.5,1482.17 2271.5,1471.5C 2260.83,1471.5 2250.17,1471.5 2239.5,1471.5C 2239.5,1460.83 2239.5,1450.17 2239.5,1439.5C 2239.5,1428.83 2239.5,1418.17 2239.5,1407.5C 2250.17,1407.5 2260.83,1407.5 2271.5,1407.5C 2271.5,1418.17 2271.5,1428.83 2271.5,1439.5C 2303.5,1439.5 2335.5,1439.5 2367.5,1439.5C 2367.5,1450.17 2367.5,1460.83 2367.5,1471.5C 2378.17,1471.5 2388.83,1471.5 2399.5,1471.5C 2399.5,1482.17 2399.5,1492.83 2399.5,1503.5C 2410.17,1503.5 2420.83,1503.5 2431.5,1503.5C 2431.5,1524.83 2431.5,1546.17 2431.5,1567.5C 2442.17,1567.5 2452.83,1567.5 2463.5,1567.5C 2463.5,1588.83 2463.5,1610.17 2463.5,1631.5C 2474.17,1631.5 2484.83,1631.5 2495.5,1631.5C 2495.5,1652.83 2495.5,1674.17 2495.5,1695.5C 2506.17,1695.5 2516.83,1695.5 2527.5,1695.5C 2527.5,1791.5 2527.5,1887.5 2527.5,1983.5C 2516.83,1983.5 2506.17,1983.5 2495.5,1983.5C 2495.5,1994.17 2495.5,2004.83 2495.5,2015.5C 2506.17,2015.5 2516.83,2015.5 2527.5,2015.5C 2527.5,2026.17 2527.5,2036.83 2527.5,2047.5C 2516.83,2047.5 2506.17,2047.5 2495.5,2047.5C 2495.5,2058.17 2495.5,2068.83 2495.5,2079.5C 2506.17,2079.5 2516.83,2079.5 2527.5,2079.5C 2527.5,2164.83 2527.5,2250.17 2527.5,2335.5C 2538.17,2335.5 2548.83,2335.5 2559.5,2335.5C 2559.5,2399.5 2559.5,2463.5 2559.5,2527.5C 2484.83,2527.5 2410.17,2527.5 2335.5,2527.5C 2335.5,2538.17 2335.5,2548.83 2335.5,2559.5C 2250.17,2559.5 2164.83,2559.5 2079.5,2559.5C 2079.5,2548.83 2079.5,2538.17 2079.5,2527.5C 2026.17,2527.5 1972.83,2527.5 1919.5,2527.5C 1919.5,2516.83 1919.5,2506.17 1919.5,2495.5C 1876.83,2495.5 1834.17,2495.5 1791.5,2495.5C 1791.5,2484.83 1791.5,2474.17 1791.5,2463.5C 1770.17,2463.5 1748.83,2463.5 1727.5,2463.5C 1727.5,2452.83 1727.5,2442.17 1727.5,2431.5C 1738.17,2431.5 1748.83,2431.5 1759.5,2431.5C 1759.5,2410.17 1759.5,2388.83 1759.5,2367.5C 1770.17,2367.5 1780.83,2367.5 1791.5,2367.5C 1791.5,2335.5 1791.5,2303.5 1791.5,2271.5C 1802.17,2271.5 1812.83,2271.5 1823.5,2271.5C 1823.5,2250.17 1823.5,2228.83 1823.5,2207.5C 1834.17,2207.5 1844.83,2207.5 1855.5,2207.5C 1855.5,2079.5 1855.5,1951.5 1855.5,1823.5C 1844.83,1823.5 1834.17,1823.5 1823.5,1823.5C 1823.5,1791.5 1823.5,1759.5 1823.5,1727.5C 1812.83,1727.5 1802.17,1727.5 1791.5,1727.5C 1791.5,1674.17 1791.5,1620.83 1791.5,1567.5C 1802.17,1567.5 1812.83,1567.5 1823.5,1567.5C 1823.5,1535.5 1823.5,1503.5 1823.5,1471.5C 1844.83,1471.5 1866.17,1471.5 1887.5,1471.5C 1887.5,1460.83 1887.5,1450.17 1887.5,1439.5C 1930.17,1439.5 1972.83,1439.5 2015.5,1439.5C 2015.5,1428.83 2015.5,1418.17 2015.5,1407.5C 2026.17,1407.5 2036.83,1407.5 2047.5,1407.5C 2047.5,1386.17 2047.5,1364.83 2047.5,1343.5C 2058.17,1343.5 2068.83,1343.5 2079.5,1343.5 Z"/></g>
<g><path style="opacity:1" fill="#6e5445" d="M 2239.5,1439.5 C 2239.5,1450.17 2239.5,1460.83 2239.5,1471.5C 2228.83,1471.5 2218.17,1471.5 2207.5,1471.5C 2207.5,1460.83 2207.5,1450.17 2207.5,1439.5C 2218.17,1439.5 2228.83,1439.5 2239.5,1439.5 Z"/></g>
<g><path style="opacity:1" fill="#949594" d="M 1983.5,1503.5 C 1972.83,1503.5 1962.17,1503.5 1951.5,1503.5C 1951.5,1492.83 1951.5,1482.17 1951.5,1471.5C 1962.17,1471.5 1972.83,1471.5 1983.5,1471.5C 1983.5,1482.17 1983.5,1492.83 1983.5,1503.5 Z"/></g>
<g><path style="opacity:1" fill="#838484" d="M 1919.5,1503.5 C 1919.5,1524.83 1919.5,1546.17 1919.5,1567.5C 1908.83,1567.5 1898.17,1567.5 1887.5,1567.5C 1887.5,1588.83 1887.5,1610.17 1887.5,1631.5C 1898.17,1631.5 1908.83,1631.5 1919.5,1631.5C 1919.5,1663.5 1919.5,1695.5 1919.5,1727.5C 1930.17,1727.5 1940.83,1727.5 1951.5,1727.5C 1951.5,1748.83 1951.5,1770.17 1951.5,1791.5C 1962.17,1791.5 1972.83,1791.5 1983.5,1791.5C 1983.5,1802.17 1983.5,1812.83 1983.5,1823.5C 1994.17,1823.5 2004.83,1823.5 2015.5,1823.5C 2015.5,1834.17 2015.5,1844.83 2015.5,1855.5C 2004.83,1855.5 1994.17,1855.5 1983.5,1855.5C 1983.5,1919.5 1983.5,1983.5 1983.5,2047.5C 1972.83,2047.5 1962.17,2047.5 1951.5,2047.5C 1951.5,2186.17 1951.5,2324.83 1951.5,2463.5C 1930.17,2463.5 1908.83,2463.5 1887.5,2463.5C 1887.5,2452.83 1887.5,2442.17 1887.5,2431.5C 1876.83,2431.5 1866.17,2431.5 1855.5,2431.5C 1834.17,2431.5 1812.83,2431.5 1791.5,2431.5C 1791.5,2420.83 1791.5,2410.17 1791.5,2399.5C 1802.17,2399.5 1812.83,2399.5 1823.5,2399.5C 1823.5,2378.17 1823.5,2356.83 1823.5,2335.5C 1834.17,2335.5 1844.83,2335.5 1855.5,2335.5C 1855.5,2303.5 1855.5,2271.5 1855.5,2239.5C 1866.17,2239.5 1876.83,2239.5 1887.5,2239.5C 1887.5,2218.17 1887.5,2196.83 1887.5,2175.5C 1898.17,2175.5 1908.83,2175.5 1919.5,2175.5C 1919.5,2079.5 1919.5,1983.5 1919.5,1887.5C 1908.83,1887.5 1898.17,1887.5 1887.5,1887.5C 1887.5,1844.83 1887.5,1802.17 1887.5,1759.5C 1876.83,1759.5 1866.17,1759.5 1855.5,1759.5C 1855.5,1674.17 1855.5,1588.83 1855.5,1503.5C 1876.83,1503.5 1898.17,1503.5 1919.5,1503.5 Z"/></g>
<g><path style="opacity:1" fill="#c3c4c4" d="M 1919.5,1503.5 C 1930.17,1503.5 1940.83,1503.5 1951.5,1503.5C 1962.17,1503.5 1972.83,1503.5 1983.5,1503.5C 1994.17,1503.5 2004.83,1503.5 2015.5,1503.5C 2015.5,1514.17 2015.5,1524.83 2015.5,1535.5C 2026.17,1535.5 2036.83,1535.5 2047.5,1535.5C 2047.5,1546.17 2047.5,1556.83 2047.5,1567.5C 2058.17,1567.5 2068.83,1567.5 2079.5,1567.5C 2079.5,1578.17 2079.5,1588.83 2079.5,1599.5C 2090.17,1599.5 2100.83,1599.5 2111.5,1599.5C 2111.5,1610.17 2111.5,1620.83 2111.5,1631.5C 2132.83,1631.5 2154.17,1631.5 2175.5,1631.5C 2175.5,1642.17 2175.5,1652.83 2175.5,1663.5C 2196.83,1663.5 2218.17,1663.5 2239.5,1663.5C 2239.5,1674.17 2239.5,1684.83 2239.5,1695.5C 2250.17,1695.5 2260.83,1695.5 2271.5,1695.5C 2271.5,1684.83 2271.5,1674.17 2271.5,1663.5C 2282.17,1663.5 2292.83,1663.5 2303.5,1663.5C 2303.5,1652.83 2303.5,1642.17 2303.5,1631.5C 2314.17,1631.5 2324.83,1631.5 2335.5,1631.5C 2335.5,1610.17 2335.5,1588.83 2335.5,1567.5C 2346.17,1567.5 2356.83,1567.5 2367.5,1567.5C 2367.5,1578.17 2367.5,1588.83 2367.5,1599.5C 2378.17,1599.5 2388.83,1599.5 2399.5,1599.5C 2399.5,1610.17 2399.5,1620.83 2399.5,1631.5C 2410.17,1631.5 2420.83,1631.5 2431.5,1631.5C 2431.5,1652.83 2431.5,1674.17 2431.5,1695.5C 2442.17,1695.5 2452.83,1695.5 2463.5,1695.5C 2463.5,1706.17 2463.5,1716.83 2463.5,1727.5C 2474.17,1727.5 2484.83,1727.5 2495.5,1727.5C 2495.5,1770.17 2495.5,1812.83 2495.5,1855.5C 2484.83,1855.5 2474.17,1855.5 2463.5,1855.5C 2463.5,1866.17 2463.5,1876.83 2463.5,1887.5C 2463.5,1898.17 2463.5,1908.83 2463.5,1919.5C 2452.83,1919.5 2442.17,1919.5 2431.5,1919.5C 2431.5,1930.17 2431.5,1940.83 2431.5,1951.5C 2420.83,1951.5 2410.17,1951.5 2399.5,1951.5C 2399.5,2015.5 2399.5,2079.5 2399.5,2143.5C 2410.17,2143.5 2420.83,2143.5 2431.5,2143.5C 2431.5,2186.17 2431.5,2228.83 2431.5,2271.5C 2442.17,2271.5 2452.83,2271.5 2463.5,2271.5C 2463.5,2303.5 2463.5,2335.5 2463.5,2367.5C 2474.17,2367.5 2484.83,2367.5 2495.5,2367.5C 2495.5,2388.83 2495.5,2410.17 2495.5,2431.5C 2495.5,2442.17 2495.5,2452.83 2495.5,2463.5C 2484.83,2463.5 2474.17,2463.5 2463.5,2463.5C 2452.83,2463.5 2442.17,2463.5 2431.5,2463.5C 2431.5,2474.17 2431.5,2484.83 2431.5,2495.5C 2292.83,2495.5 2154.17,2495.5 2015.5,2495.5C 2015.5,2484.83 2015.5,2474.17 2015.5,2463.5C 1994.17,2463.5 1972.83,2463.5 1951.5,2463.5C 1951.5,2324.83 1951.5,2186.17 1951.5,2047.5C 1962.17,2047.5 1972.83,2047.5 1983.5,2047.5C 1983.5,1983.5 1983.5,1919.5 1983.5,1855.5C 1994.17,1855.5 2004.83,1855.5 2015.5,1855.5C 2015.5,1844.83 2015.5,1834.17 2015.5,1823.5C 2004.83,1823.5 1994.17,1823.5 1983.5,1823.5C 1983.5,1812.83 1983.5,1802.17 1983.5,1791.5C 1972.83,1791.5 1962.17,1791.5 1951.5,1791.5C 1951.5,1770.17 1951.5,1748.83 1951.5,1727.5C 1940.83,1727.5 1930.17,1727.5 1919.5,1727.5C 1919.5,1695.5 1919.5,1663.5 1919.5,1631.5C 1908.83,1631.5 1898.17,1631.5 1887.5,1631.5C 1887.5,1610.17 1887.5,1588.83 1887.5,1567.5C 1898.17,1567.5 1908.83,1567.5 1919.5,1567.5C 1919.5,1546.17 1919.5,1524.83 1919.5,1503.5 Z"/></g>
<g><path style="opacity:1" fill="#838483" d="M 2367.5,1567.5 C 2356.83,1567.5 2346.17,1567.5 2335.5,1567.5C 2335.5,1546.17 2335.5,1524.83 2335.5,1503.5C 2346.17,1503.5 2356.83,1503.5 2367.5,1503.5C 2367.5,1524.83 2367.5,1546.17 2367.5,1567.5 Z"/></g>
<g><path style="opacity:1" fill="#838483" d="M 2367.5,1567.5 C 2378.17,1567.5 2388.83,1567.5 2399.5,1567.5C 2399.5,1578.17 2399.5,1588.83 2399.5,1599.5C 2399.5,1588.83 2399.5,1578.17 2399.5,1567.5C 2388.83,1567.5 2378.17,1567.5 2367.5,1567.5 Z"/></g>
<g><path style="opacity:1" fill="#9b9c9b" d="M 2495.5,1855.5 C 2495.5,1866.17 2495.5,1876.83 2495.5,1887.5C 2484.83,1887.5 2474.17,1887.5 2463.5,1887.5C 2463.5,1876.83 2463.5,1866.17 2463.5,1855.5C 2474.17,1855.5 2484.83,1855.5 2495.5,1855.5 Z"/></g>
<g><path style="opacity:1" fill="#838483" d="M 2463.5,1919.5 C 2463.5,2036.83 2463.5,2154.17 2463.5,2271.5C 2452.83,2271.5 2442.17,2271.5 2431.5,2271.5C 2431.5,2228.83 2431.5,2186.17 2431.5,2143.5C 2420.83,2143.5 2410.17,2143.5 2399.5,2143.5C 2399.5,2079.5 2399.5,2015.5 2399.5,1951.5C 2410.17,1951.5 2420.83,1951.5 2431.5,1951.5C 2431.5,1940.83 2431.5,1930.17 2431.5,1919.5C 2442.17,1919.5 2452.83,1919.5 2463.5,1919.5 Z"/></g>
<g><path style="opacity:0.925" fill="#232423" d="M 2527.5,2047.5 C 2527.5,2058.17 2527.5,2068.83 2527.5,2079.5C 2516.83,2079.5 2506.17,2079.5 2495.5,2079.5C 2495.5,2068.83 2495.5,2058.17 2495.5,2047.5C 2506.17,2047.5 2516.83,2047.5 2527.5,2047.5 Z"/></g>
<g><path style="opacity:1" fill="#838483" d="M 2463.5,2271.5 C 2474.17,2271.5 2484.83,2271.5 2495.5,2271.5C 2495.5,2303.5 2495.5,2335.5 2495.5,2367.5C 2484.83,2367.5 2474.17,2367.5 2463.5,2367.5C 2463.5,2335.5 2463.5,2303.5 2463.5,2271.5 Z"/></g>
<g><path style="opacity:1" fill="#7c7d7c" d="M 1855.5,2431.5 C 1866.17,2431.5 1876.83,2431.5 1887.5,2431.5C 1887.5,2442.17 1887.5,2452.83 1887.5,2463.5C 1876.83,2463.5 1866.17,2463.5 1855.5,2463.5C 1855.5,2452.83 1855.5,2442.17 1855.5,2431.5 Z"/></g>
<g><path style="opacity:1" fill="#484948" d="M 2495.5,2431.5 C 2506.17,2431.5 2516.83,2431.5 2527.5,2431.5C 2527.5,2442.17 2527.5,2452.83 2527.5,2463.5C 2516.83,2463.5 2506.17,2463.5 2495.5,2463.5C 2495.5,2452.83 2495.5,2442.17 2495.5,2431.5 Z"/></g>
<g><path style="opacity:1" fill="#adaead" d="M 2463.5,2463.5 C 2463.5,2474.17 2463.5,2484.83 2463.5,2495.5C 2452.83,2495.5 2442.17,2495.5 2431.5,2495.5C 2431.5,2484.83 2431.5,2474.17 2431.5,2463.5C 2442.17,2463.5 2452.83,2463.5 2463.5,2463.5 Z"/></g>
</svg>
