<?xml version="1.0" encoding="UTF-8"?>
<!DOCTYPE svg PUBLIC "-//W3C//DTD SVG 1.1//EN" "http://www.w3.org/Graphics/SVG/1.1/DTD/svg11.dtd">
<svg xmlns="http://www.w3.org/2000/svg" version="1.1" width="4320px" height="4320px" style="shape-rendering:geometricPrecision; text-rendering:geometricPrecision; image-rendering:optimizeQuality; fill-rule:evenodd; clip-rule:evenodd" xmlns:xlink="http://www.w3.org/1999/xlink">
<g><path style="opacity:0.984" fill="#000000" d="M 1535.5,1567.5 C 1567.5,1567.5 1599.5,1567.5 1631.5,1567.5C 1631.5,1578.17 1631.5,1588.83 1631.5,1599.5C 1652.83,1599.5 1674.17,1599.5 1695.5,1599.5C 1695.5,1610.17 1695.5,1620.83 1695.5,1631.5C 1706.17,1631.5 1716.83,1631.5 1727.5,1631.5C 1727.5,1642.17 1727.5,1652.83 1727.5,1663.5C 1738.17,1663.5 1748.83,1663.5 1759.5,1663.5C 1759.5,1695.5 1759.5,1727.5 1759.5,1759.5C 1748.83,1759.5 1738.17,1759.5 1727.5,1759.5C 1727.5,1780.83 1727.5,1802.17 1727.5,1823.5C 1706.17,1823.5 1684.83,1823.5 1663.5,1823.5C 1663.5,1834.17 1663.5,1844.83 1663.5,1855.5C 1631.5,1855.5 1599.5,1855.5 1567.5,1855.5C 1567.5,1866.17 1567.5,1876.83 1567.5,1887.5C 1524.83,1887.5 1482.17,1887.5 1439.5,1887.5C 1439.5,1898.17 1439.5,1908.83 1439.5,1919.5C 1407.5,1919.5 1375.5,1919.5 1343.5,1919.5C 1343.5,1930.17 1343.5,1940.83 1343.5,1951.5C 1311.5,1951.5 1279.5,1951.5 1247.5,1951.5C 1247.5,1919.5 1247.5,1887.5 1247.5,1855.5C 1258.17,1855.5 1268.83,1855.5 1279.5,1855.5C 1279.5,1823.5 1279.5,1791.5 1279.5,1759.5C 1268.83,1759.5 1258.17,1759.5 1247.5,1759.5C 1247.5,1748.83 1247.5,1738.17 1247.5,1727.5C 1236.83,1727.5 1226.17,1727.5 1215.5,1727.5C 1215.5,1706.17 1215.5,1684.83 1215.5,1663.5C 1226.17,1663.5 1236.83,1663.5 1247.5,1663.5C 1247.5,1652.83 1247.5,1642.17 1247.5,1631.5C 1300.83,1631.5 1354.17,1631.5 1407.5,1631.5C 1407.5,1620.83 1407.5,1610.17 1407.5,1599.5C 1450.17,1599.5 1492.83,1599.5 1535.5,1599.5C 1535.5,1588.83 1535.5,1578.17 1535.5,1567.5 Z"/></g>
<g><path style="opacity:1" fill="#a98169" d="M 1503.5,1631.5 C 1503.5,1642.17 1503.5,1652.83 1503.5,1663.5C 1492.83,1663.5 1482.17,1663.5 1471.5,1663.5C 1471.5,1652.83 1471.5,1642.17 1471.5,1631.5C 1482.17,1631.5 1492.83,1631.5 1503.5,1631.5 Z"/></g>
<g><path style="opacity:1" fill="#be9177" d="M 1503.5,1631.5 C 1556.83,1631.5 1610.17,1631.5 1663.5,1631.5C 1663.5,1642.17 1663.5,1652.83 1663.5,1663.5C 1610.17,1663.5 1556.83,1663.5 1503.5,1663.5C 1503.5,1652.83 1503.5,1642.17 1503.5,1631.5 Z"/></g>
<g><path style="opacity:1" fill="#00774e" d="M 1311.5,1695.5 C 1300.83,1695.5 1290.17,1695.5 1279.5,1695.5C 1279.5,1684.83 1279.5,1674.17 1279.5,1663.5C 1290.17,1663.5 1300.83,1663.5 1311.5,1663.5C 1311.5,1674.17 1311.5,1684.83 1311.5,1695.5 Z"/></g>
<g><path style="opacity:1" fill="#be9177" d="M 1471.5,1663.5 C 1471.5,1674.17 1471.5,1684.83 1471.5,1695.5C 1450.17,1695.5 1428.83,1695.5 1407.5,1695.5C 1396.83,1695.5 1386.17,1695.5 1375.5,1695.5C 1375.5,1684.83 1375.5,1674.17 1375.5,1663.5C 1407.5,1663.5 1439.5,1663.5 1471.5,1663.5 Z"/></g>
<g><path style="opacity:1" fill="#e4c2ae" d="M 1471.5,1663.5 C 1482.17,1663.5 1492.83,1663.5 1503.5,1663.5C 1556.83,1663.5 1610.17,1663.5 1663.5,1663.5C 1674.17,1663.5 1684.83,1663.5 1695.5,1663.5C 1695.5,1695.5 1695.5,1727.5 1695.5,1759.5C 1684.83,1759.5 1674.17,1759.5 1663.5,1759.5C 1663.5,1770.17 1663.5,1780.83 1663.5,1791.5C 1642.17,1791.5 1620.83,1791.5 1599.5,1791.5C 1599.5,1802.17 1599.5,1812.83 1599.5,1823.5C 1567.5,1823.5 1535.5,1823.5 1503.5,1823.5C 1492.83,1823.5 1482.17,1823.5 1471.5,1823.5C 1471.5,1834.17 1471.5,1844.83 1471.5,1855.5C 1450.17,1855.5 1428.83,1855.5 1407.5,1855.5C 1407.5,1802.17 1407.5,1748.83 1407.5,1695.5C 1428.83,1695.5 1450.17,1695.5 1471.5,1695.5C 1471.5,1684.83 1471.5,1674.17 1471.5,1663.5 Z"/></g>
<g><path style="opacity:1" fill="#00774e" d="M 1311.5,1695.5 C 1322.17,1695.5 1332.83,1695.5 1343.5,1695.5C 1343.5,1706.17 1343.5,1716.83 1343.5,1727.5C 1332.83,1727.5 1322.17,1727.5 1311.5,1727.5C 1311.5,1716.83 1311.5,1706.17 1311.5,1695.5 Z"/></g>
<g><path style="opacity:1" fill="#15b17c" d="M 1343.5,1823.5 C 1343.5,1802.17 1343.5,1780.83 1343.5,1759.5C 1354.17,1759.5 1364.83,1759.5 1375.5,1759.5C 1375.5,1780.83 1375.5,1802.17 1375.5,1823.5C 1364.83,1823.5 1354.17,1823.5 1343.5,1823.5 Z"/></g>
<g><path style="opacity:1" fill="#15b17c" d="M 1343.5,1823.5 C 1343.5,1844.83 1343.5,1866.17 1343.5,1887.5C 1332.83,1887.5 1322.17,1887.5 1311.5,1887.5C 1311.5,1866.17 1311.5,1844.83 1311.5,1823.5C 1322.17,1823.5 1332.83,1823.5 1343.5,1823.5 Z"/></g>
<g><path style="opacity:1" fill="#9d8678" d="M 1503.5,1823.5 C 1503.5,1834.17 1503.5,1844.83 1503.5,1855.5C 1492.83,1855.5 1482.17,1855.5 1471.5,1855.5C 1471.5,1844.83 1471.5,1834.17 1471.5,1823.5C 1482.17,1823.5 1492.83,1823.5 1503.5,1823.5 Z"/></g>
</svg>
