<?xml version="1.0" encoding="UTF-8"?>
<!DOCTYPE svg PUBLIC "-//W3C//DTD SVG 1.1//EN" "http://www.w3.org/Graphics/SVG/1.1/DTD/svg11.dtd">
<svg xmlns="http://www.w3.org/2000/svg" version="1.1" width="4320px" height="4320px" style="shape-rendering:geometricPrecision; text-rendering:geometricPrecision; image-rendering:optimizeQuality; fill-rule:evenodd; clip-rule:evenodd" xmlns:xlink="http://www.w3.org/1999/xlink">
<g><path style="opacity:0.983" fill="#000000" d="M 1983.5,383.5 C 2068.83,383.5 2154.17,383.5 2239.5,383.5C 2239.5,394.167 2239.5,404.833 2239.5,415.5C 2271.5,415.5 2303.5,415.5 2335.5,415.5C 2335.5,426.167 2335.5,436.833 2335.5,447.5C 2356.83,447.5 2378.17,447.5 2399.5,447.5C 2399.5,458.167 2399.5,468.833 2399.5,479.5C 2442.17,479.5 2484.83,479.5 2527.5,479.5C 2527.5,490.167 2527.5,500.833 2527.5,511.5C 2612.83,511.5 2698.17,511.5 2783.5,511.5C 2783.5,532.833 2783.5,554.167 2783.5,575.5C 2772.83,575.5 2762.17,575.5 2751.5,575.5C 2751.5,586.167 2751.5,596.833 2751.5,607.5C 2740.83,607.5 2730.17,607.5 2719.5,607.5C 2719.5,618.167 2719.5,628.833 2719.5,639.5C 2708.83,639.5 2698.17,639.5 2687.5,639.5C 2687.5,650.167 2687.5,660.833 2687.5,671.5C 2698.17,671.5 2708.83,671.5 2719.5,671.5C 2719.5,682.167 2719.5,692.833 2719.5,703.5C 2730.17,703.5 2740.83,703.5 2751.5,703.5C 2751.5,735.5 2751.5,767.5 2751.5,799.5C 2762.17,799.5 2772.83,799.5 2783.5,799.5C 2783.5,831.5 2783.5,863.5 2783.5,895.5C 2762.17,895.5 2740.83,895.5 2719.5,895.5C 2719.5,970.167 2719.5,1044.83 2719.5,1119.5C 2730.17,1119.5 2740.83,1119.5 2751.5,1119.5C 2751.5,1151.5 2751.5,1183.5 2751.5,1215.5C 2730.17,1215.5 2708.83,1215.5 2687.5,1215.5C 2687.5,1204.83 2687.5,1194.17 2687.5,1183.5C 2676.83,1183.5 2666.17,1183.5 2655.5,1183.5C 2655.5,1226.17 2655.5,1268.83 2655.5,1311.5C 2644.83,1311.5 2634.17,1311.5 2623.5,1311.5C 2623.5,1332.83 2623.5,1354.17 2623.5,1375.5C 2612.83,1375.5 2602.17,1375.5 2591.5,1375.5C 2591.5,1396.83 2591.5,1418.17 2591.5,1439.5C 2580.83,1439.5 2570.17,1439.5 2559.5,1439.5C 2559.5,1450.17 2559.5,1460.83 2559.5,1471.5C 2538.17,1471.5 2516.83,1471.5 2495.5,1471.5C 2495.5,1450.17 2495.5,1428.83 2495.5,1407.5C 2474.17,1407.5 2452.83,1407.5 2431.5,1407.5C 2431.5,1418.17 2431.5,1428.83 2431.5,1439.5C 2399.5,1439.5 2367.5,1439.5 2335.5,1439.5C 2335.5,1450.17 2335.5,1460.83 2335.5,1471.5C 2303.5,1471.5 2271.5,1471.5 2239.5,1471.5C 2239.5,1460.83 2239.5,1450.17 2239.5,1439.5C 2207.5,1439.5 2175.5,1439.5 2143.5,1439.5C 2143.5,1428.83 2143.5,1418.17 2143.5,1407.5C 2122.17,1407.5 2100.83,1407.5 2079.5,1407.5C 2079.5,1396.83 2079.5,1386.17 2079.5,1375.5C 2068.83,1375.5 2058.17,1375.5 2047.5,1375.5C 2047.5,1386.17 2047.5,1396.83 2047.5,1407.5C 2036.83,1407.5 2026.17,1407.5 2015.5,1407.5C 2015.5,1418.17 2015.5,1428.83 2015.5,1439.5C 2004.83,1439.5 1994.17,1439.5 1983.5,1439.5C 1983.5,1428.83 1983.5,1418.17 1983.5,1407.5C 1972.83,1407.5 1962.17,1407.5 1951.5,1407.5C 1951.5,1396.83 1951.5,1386.17 1951.5,1375.5C 1930.17,1375.5 1908.83,1375.5 1887.5,1375.5C 1887.5,1396.83 1887.5,1418.17 1887.5,1439.5C 1876.83,1439.5 1866.17,1439.5 1855.5,1439.5C 1855.5,1428.83 1855.5,1418.17 1855.5,1407.5C 1844.83,1407.5 1834.17,1407.5 1823.5,1407.5C 1823.5,1386.17 1823.5,1364.83 1823.5,1343.5C 1812.83,1343.5 1802.17,1343.5 1791.5,1343.5C 1791.5,1354.17 1791.5,1364.83 1791.5,1375.5C 1770.17,1375.5 1748.83,1375.5 1727.5,1375.5C 1727.5,1364.83 1727.5,1354.17 1727.5,1343.5C 1716.83,1343.5 1706.17,1343.5 1695.5,1343.5C 1695.5,1311.5 1695.5,1279.5 1695.5,1247.5C 1684.83,1247.5 1674.17,1247.5 1663.5,1247.5C 1663.5,1258.17 1663.5,1268.83 1663.5,1279.5C 1652.83,1279.5 1642.17,1279.5 1631.5,1279.5C 1631.5,1290.17 1631.5,1300.83 1631.5,1311.5C 1620.83,1311.5 1610.17,1311.5 1599.5,1311.5C 1599.5,1300.83 1599.5,1290.17 1599.5,1279.5C 1588.83,1279.5 1578.17,1279.5 1567.5,1279.5C 1567.5,1247.5 1567.5,1215.5 1567.5,1183.5C 1535.5,1183.5 1503.5,1183.5 1471.5,1183.5C 1471.5,1151.5 1471.5,1119.5 1471.5,1087.5C 1482.17,1087.5 1492.83,1087.5 1503.5,1087.5C 1503.5,1055.5 1503.5,1023.5 1503.5,991.5C 1471.5,991.5 1439.5,991.5 1407.5,991.5C 1407.5,980.833 1407.5,970.167 1407.5,959.5C 1396.83,959.5 1386.17,959.5 1375.5,959.5C 1375.5,948.833 1375.5,938.167 1375.5,927.5C 1396.83,927.5 1418.17,927.5 1439.5,927.5C 1439.5,906.167 1439.5,884.833 1439.5,863.5C 1450.17,863.5 1460.83,863.5 1471.5,863.5C 1471.5,852.833 1471.5,842.167 1471.5,831.5C 1482.17,831.5 1492.83,831.5 1503.5,831.5C 1503.5,820.833 1503.5,810.167 1503.5,799.5C 1514.17,799.5 1524.83,799.5 1535.5,799.5C 1535.5,788.833 1535.5,778.167 1535.5,767.5C 1546.17,767.5 1556.83,767.5 1567.5,767.5C 1567.5,756.833 1567.5,746.167 1567.5,735.5C 1578.17,735.5 1588.83,735.5 1599.5,735.5C 1599.5,714.167 1599.5,692.833 1599.5,671.5C 1610.17,671.5 1620.83,671.5 1631.5,671.5C 1631.5,660.833 1631.5,650.167 1631.5,639.5C 1642.17,639.5 1652.83,639.5 1663.5,639.5C 1663.5,618.167 1663.5,596.833 1663.5,575.5C 1674.17,575.5 1684.83,575.5 1695.5,575.5C 1695.5,564.833 1695.5,554.167 1695.5,543.5C 1706.17,543.5 1716.83,543.5 1727.5,543.5C 1727.5,532.833 1727.5,522.167 1727.5,511.5C 1738.17,511.5 1748.83,511.5 1759.5,511.5C 1759.5,500.833 1759.5,490.167 1759.5,479.5C 1780.83,479.5 1802.17,479.5 1823.5,479.5C 1823.5,468.833 1823.5,458.167 1823.5,447.5C 1844.83,447.5 1866.17,447.5 1887.5,447.5C 1887.5,436.833 1887.5,426.167 1887.5,415.5C 1919.5,415.5 1951.5,415.5 1983.5,415.5C 1983.5,404.833 1983.5,394.167 1983.5,383.5 Z"/></g>
<g><path style="opacity:1" fill="#1b191e" d="M 2687.5,767.5 C 2676.83,767.5 2666.17,767.5 2655.5,767.5C 2655.5,756.833 2655.5,746.167 2655.5,735.5C 2644.83,735.5 2634.17,735.5 2623.5,735.5C 2623.5,746.167 2623.5,756.833 2623.5,767.5C 2623.5,778.167 2623.5,788.833 2623.5,799.5C 2634.17,799.5 2644.83,799.5 2655.5,799.5C 2655.5,842.167 2655.5,884.833 2655.5,927.5C 2655.5,938.167 2655.5,948.833 2655.5,959.5C 2666.17,959.5 2676.83,959.5 2687.5,959.5C 2687.5,1012.83 2687.5,1066.17 2687.5,1119.5C 2666.17,1119.5 2644.83,1119.5 2623.5,1119.5C 2623.5,1076.83 2623.5,1034.17 2623.5,991.5C 2612.83,991.5 2602.17,991.5 2591.5,991.5C 2591.5,906.167 2591.5,820.833 2591.5,735.5C 2580.83,735.5 2570.17,735.5 2559.5,735.5C 2559.5,714.167 2559.5,692.833 2559.5,671.5C 2548.83,671.5 2538.17,671.5 2527.5,671.5C 2527.5,714.167 2527.5,756.833 2527.5,799.5C 2516.83,799.5 2506.17,799.5 2495.5,799.5C 2495.5,778.167 2495.5,756.833 2495.5,735.5C 2484.83,735.5 2474.17,735.5 2463.5,735.5C 2463.5,703.5 2463.5,671.5 2463.5,639.5C 2452.83,639.5 2442.17,639.5 2431.5,639.5C 2431.5,671.5 2431.5,703.5 2431.5,735.5C 2420.83,735.5 2410.17,735.5 2399.5,735.5C 2399.5,756.833 2399.5,778.167 2399.5,799.5C 2388.83,799.5 2378.17,799.5 2367.5,799.5C 2367.5,810.167 2367.5,820.833 2367.5,831.5C 2346.17,831.5 2324.83,831.5 2303.5,831.5C 2303.5,820.833 2303.5,810.167 2303.5,799.5C 2314.17,799.5 2324.83,799.5 2335.5,799.5C 2335.5,767.5 2335.5,735.5 2335.5,703.5C 2346.17,703.5 2356.83,703.5 2367.5,703.5C 2367.5,671.5 2367.5,639.5 2367.5,607.5C 2356.83,607.5 2346.17,607.5 2335.5,607.5C 2335.5,628.833 2335.5,650.167 2335.5,671.5C 2324.83,671.5 2314.17,671.5 2303.5,671.5C 2303.5,682.167 2303.5,692.833 2303.5,703.5C 2292.83,703.5 2282.17,703.5 2271.5,703.5C 2271.5,714.167 2271.5,724.833 2271.5,735.5C 2260.83,735.5 2250.17,735.5 2239.5,735.5C 2239.5,746.167 2239.5,756.833 2239.5,767.5C 2218.17,767.5 2196.83,767.5 2175.5,767.5C 2175.5,756.833 2175.5,746.167 2175.5,735.5C 2186.17,735.5 2196.83,735.5 2207.5,735.5C 2207.5,714.167 2207.5,692.833 2207.5,671.5C 2196.83,671.5 2186.17,671.5 2175.5,671.5C 2175.5,682.167 2175.5,692.833 2175.5,703.5C 2164.83,703.5 2154.17,703.5 2143.5,703.5C 2143.5,714.167 2143.5,724.833 2143.5,735.5C 2132.83,735.5 2122.17,735.5 2111.5,735.5C 2111.5,724.833 2111.5,714.167 2111.5,703.5C 2111.5,682.167 2111.5,660.833 2111.5,639.5C 2122.17,639.5 2132.83,639.5 2143.5,639.5C 2143.5,618.167 2143.5,596.833 2143.5,575.5C 2132.83,575.5 2122.17,575.5 2111.5,575.5C 2111.5,586.167 2111.5,596.833 2111.5,607.5C 2100.83,607.5 2090.17,607.5 2079.5,607.5C 2079.5,628.833 2079.5,650.167 2079.5,671.5C 2068.83,671.5 2058.17,671.5 2047.5,671.5C 2047.5,682.167 2047.5,692.833 2047.5,703.5C 2036.83,703.5 2026.17,703.5 2015.5,703.5C 2015.5,724.833 2015.5,746.167 2015.5,767.5C 2004.83,767.5 1994.17,767.5 1983.5,767.5C 1983.5,788.833 1983.5,810.167 1983.5,831.5C 1972.83,831.5 1962.17,831.5 1951.5,831.5C 1951.5,874.167 1951.5,916.833 1951.5,959.5C 1940.83,959.5 1930.17,959.5 1919.5,959.5C 1919.5,1034.17 1919.5,1108.83 1919.5,1183.5C 1930.17,1183.5 1940.83,1183.5 1951.5,1183.5C 1951.5,1215.5 1951.5,1247.5 1951.5,1279.5C 1940.83,1279.5 1930.17,1279.5 1919.5,1279.5C 1919.5,1268.83 1919.5,1258.17 1919.5,1247.5C 1908.83,1247.5 1898.17,1247.5 1887.5,1247.5C 1887.5,1215.5 1887.5,1183.5 1887.5,1151.5C 1876.83,1151.5 1866.17,1151.5 1855.5,1151.5C 1855.5,1002.17 1855.5,852.833 1855.5,703.5C 1844.83,703.5 1834.17,703.5 1823.5,703.5C 1823.5,735.5 1823.5,767.5 1823.5,799.5C 1812.83,799.5 1802.17,799.5 1791.5,799.5C 1791.5,810.167 1791.5,820.833 1791.5,831.5C 1780.83,831.5 1770.17,831.5 1759.5,831.5C 1759.5,842.167 1759.5,852.833 1759.5,863.5C 1759.5,874.167 1759.5,884.833 1759.5,895.5C 1738.17,895.5 1716.83,895.5 1695.5,895.5C 1695.5,906.167 1695.5,916.833 1695.5,927.5C 1684.83,927.5 1674.17,927.5 1663.5,927.5C 1663.5,916.833 1663.5,906.167 1663.5,895.5C 1652.83,895.5 1642.17,895.5 1631.5,895.5C 1631.5,884.833 1631.5,874.167 1631.5,863.5C 1610.17,863.5 1588.83,863.5 1567.5,863.5C 1567.5,842.167 1567.5,820.833 1567.5,799.5C 1578.17,799.5 1588.83,799.5 1599.5,799.5C 1599.5,788.833 1599.5,778.167 1599.5,767.5C 1610.17,767.5 1620.83,767.5 1631.5,767.5C 1631.5,746.167 1631.5,724.833 1631.5,703.5C 1642.17,703.5 1652.83,703.5 1663.5,703.5C 1663.5,692.833 1663.5,682.167 1663.5,671.5C 1674.17,671.5 1684.83,671.5 1695.5,671.5C 1695.5,660.833 1695.5,650.167 1695.5,639.5C 1706.17,639.5 1716.83,639.5 1727.5,639.5C 1727.5,618.167 1727.5,596.833 1727.5,575.5C 1738.17,575.5 1748.83,575.5 1759.5,575.5C 1759.5,564.833 1759.5,554.167 1759.5,543.5C 1780.83,543.5 1802.17,543.5 1823.5,543.5C 1823.5,532.833 1823.5,522.167 1823.5,511.5C 1834.17,511.5 1844.83,511.5 1855.5,511.5C 1855.5,500.833 1855.5,490.167 1855.5,479.5C 1876.83,479.5 1898.17,479.5 1919.5,479.5C 1919.5,468.833 1919.5,458.167 1919.5,447.5C 2036.83,447.5 2154.17,447.5 2271.5,447.5C 2271.5,458.167 2271.5,468.833 2271.5,479.5C 2292.83,479.5 2314.17,479.5 2335.5,479.5C 2335.5,490.167 2335.5,500.833 2335.5,511.5C 2367.5,511.5 2399.5,511.5 2431.5,511.5C 2431.5,522.167 2431.5,532.833 2431.5,543.5C 2495.5,543.5 2559.5,543.5 2623.5,543.5C 2623.5,554.167 2623.5,564.833 2623.5,575.5C 2644.83,575.5 2666.17,575.5 2687.5,575.5C 2687.5,586.167 2687.5,596.833 2687.5,607.5C 2666.17,607.5 2644.83,607.5 2623.5,607.5C 2623.5,628.833 2623.5,650.167 2623.5,671.5C 2634.17,671.5 2644.83,671.5 2655.5,671.5C 2655.5,682.167 2655.5,692.833 2655.5,703.5C 2666.17,703.5 2676.83,703.5 2687.5,703.5C 2687.5,724.833 2687.5,746.167 2687.5,767.5 Z"/></g>
<g><path style="opacity:1" fill="#000000" d="M 2303.5,799.5 C 2303.5,788.833 2303.5,778.167 2303.5,767.5C 2303.5,756.833 2303.5,746.167 2303.5,735.5C 2292.83,735.5 2282.17,735.5 2271.5,735.5C 2271.5,724.833 2271.5,714.167 2271.5,703.5C 2282.17,703.5 2292.83,703.5 2303.5,703.5C 2303.5,692.833 2303.5,682.167 2303.5,671.5C 2314.17,671.5 2324.83,671.5 2335.5,671.5C 2335.5,650.167 2335.5,628.833 2335.5,607.5C 2346.17,607.5 2356.83,607.5 2367.5,607.5C 2367.5,639.5 2367.5,671.5 2367.5,703.5C 2356.83,703.5 2346.17,703.5 2335.5,703.5C 2335.5,735.5 2335.5,767.5 2335.5,799.5C 2324.83,799.5 2314.17,799.5 2303.5,799.5 Z"/></g>
<g><path style="opacity:1" fill="#000000" d="M 2495.5,799.5 C 2484.83,799.5 2474.17,799.5 2463.5,799.5C 2463.5,788.833 2463.5,778.167 2463.5,767.5C 2452.83,767.5 2442.17,767.5 2431.5,767.5C 2431.5,778.167 2431.5,788.833 2431.5,799.5C 2420.83,799.5 2410.17,799.5 2399.5,799.5C 2399.5,778.167 2399.5,756.833 2399.5,735.5C 2410.17,735.5 2420.83,735.5 2431.5,735.5C 2431.5,703.5 2431.5,671.5 2431.5,639.5C 2442.17,639.5 2452.83,639.5 2463.5,639.5C 2463.5,671.5 2463.5,703.5 2463.5,735.5C 2474.17,735.5 2484.83,735.5 2495.5,735.5C 2495.5,756.833 2495.5,778.167 2495.5,799.5 Z"/></g>
<g><path style="opacity:1" fill="#0e0c12" d="M 2111.5,703.5 C 2111.5,714.167 2111.5,724.833 2111.5,735.5C 2100.83,735.5 2090.17,735.5 2079.5,735.5C 2079.5,724.833 2079.5,714.167 2079.5,703.5C 2090.17,703.5 2100.83,703.5 2111.5,703.5 Z"/></g>
<g><path style="opacity:1" fill="#1b1a1e" d="M 2079.5,735.5 C 2090.17,735.5 2100.83,735.5 2111.5,735.5C 2111.5,746.167 2111.5,756.833 2111.5,767.5C 2100.83,767.5 2090.17,767.5 2079.5,767.5C 2079.5,756.833 2079.5,746.167 2079.5,735.5 Z"/></g>
<g><path style="opacity:1" fill="#000000" d="M 2271.5,735.5 C 2271.5,746.167 2271.5,756.833 2271.5,767.5C 2260.83,767.5 2250.17,767.5 2239.5,767.5C 2239.5,756.833 2239.5,746.167 2239.5,735.5C 2250.17,735.5 2260.83,735.5 2271.5,735.5 Z"/></g>
<g><path style="opacity:1" fill="#be9177" d="M 2271.5,735.5 C 2282.17,735.5 2292.83,735.5 2303.5,735.5C 2303.5,746.167 2303.5,756.833 2303.5,767.5C 2292.83,767.5 2282.17,767.5 2271.5,767.5C 2271.5,756.833 2271.5,746.167 2271.5,735.5 Z"/></g>
<g><path style="opacity:1" fill="#0a090e" d="M 2655.5,767.5 C 2644.83,767.5 2634.17,767.5 2623.5,767.5C 2623.5,756.833 2623.5,746.167 2623.5,735.5C 2634.17,735.5 2644.83,735.5 2655.5,735.5C 2655.5,746.167 2655.5,756.833 2655.5,767.5 Z"/></g>
<g><path style="opacity:1" fill="#0a090e" d="M 2079.5,767.5 C 2079.5,788.833 2079.5,810.167 2079.5,831.5C 2058.17,831.5 2036.83,831.5 2015.5,831.5C 2015.5,820.833 2015.5,810.167 2015.5,799.5C 2026.17,799.5 2036.83,799.5 2047.5,799.5C 2047.5,788.833 2047.5,778.167 2047.5,767.5C 2058.17,767.5 2068.83,767.5 2079.5,767.5 Z"/></g>
<g><path style="opacity:1" fill="#1b1a1e" d="M 2175.5,767.5 C 2175.5,778.167 2175.5,788.833 2175.5,799.5C 2164.83,799.5 2154.17,799.5 2143.5,799.5C 2143.5,788.833 2143.5,778.167 2143.5,767.5C 2154.17,767.5 2164.83,767.5 2175.5,767.5 Z"/></g>
<g><path style="opacity:1" fill="#be9177" d="M 2239.5,767.5 C 2250.17,767.5 2260.83,767.5 2271.5,767.5C 2271.5,778.167 2271.5,788.833 2271.5,799.5C 2271.5,810.167 2271.5,820.833 2271.5,831.5C 2260.83,831.5 2250.17,831.5 2239.5,831.5C 2239.5,842.167 2239.5,852.833 2239.5,863.5C 2228.83,863.5 2218.17,863.5 2207.5,863.5C 2207.5,842.167 2207.5,820.833 2207.5,799.5C 2218.17,799.5 2228.83,799.5 2239.5,799.5C 2239.5,788.833 2239.5,778.167 2239.5,767.5 Z"/></g>
<g><path style="opacity:1" fill="#342820" d="M 2271.5,767.5 C 2282.17,767.5 2292.83,767.5 2303.5,767.5C 2303.5,778.167 2303.5,788.833 2303.5,799.5C 2292.83,799.5 2282.17,799.5 2271.5,799.5C 2271.5,788.833 2271.5,778.167 2271.5,767.5 Z"/></g>
<g><path style="opacity:1" fill="#e4c2ae" d="M 2495.5,799.5 C 2495.5,810.167 2495.5,820.833 2495.5,831.5C 2484.83,831.5 2474.17,831.5 2463.5,831.5C 2463.5,842.167 2463.5,852.833 2463.5,863.5C 2442.17,863.5 2420.83,863.5 2399.5,863.5C 2399.5,874.167 2399.5,884.833 2399.5,895.5C 2388.83,895.5 2378.17,895.5 2367.5,895.5C 2367.5,906.167 2367.5,916.833 2367.5,927.5C 2378.17,927.5 2388.83,927.5 2399.5,927.5C 2399.5,938.167 2399.5,948.833 2399.5,959.5C 2399.5,970.167 2399.5,980.833 2399.5,991.5C 2388.83,991.5 2378.17,991.5 2367.5,991.5C 2367.5,1023.5 2367.5,1055.5 2367.5,1087.5C 2378.17,1087.5 2388.83,1087.5 2399.5,1087.5C 2399.5,1140.83 2399.5,1194.17 2399.5,1247.5C 2410.17,1247.5 2420.83,1247.5 2431.5,1247.5C 2431.5,1226.17 2431.5,1204.83 2431.5,1183.5C 2452.83,1183.5 2474.17,1183.5 2495.5,1183.5C 2495.5,1172.83 2495.5,1162.17 2495.5,1151.5C 2516.83,1151.5 2538.17,1151.5 2559.5,1151.5C 2559.5,1183.5 2559.5,1215.5 2559.5,1247.5C 2548.83,1247.5 2538.17,1247.5 2527.5,1247.5C 2527.5,1268.83 2527.5,1290.17 2527.5,1311.5C 2516.83,1311.5 2506.17,1311.5 2495.5,1311.5C 2495.5,1322.17 2495.5,1332.83 2495.5,1343.5C 2484.83,1343.5 2474.17,1343.5 2463.5,1343.5C 2463.5,1354.17 2463.5,1364.83 2463.5,1375.5C 2442.17,1375.5 2420.83,1375.5 2399.5,1375.5C 2388.83,1375.5 2378.17,1375.5 2367.5,1375.5C 2367.5,1386.17 2367.5,1396.83 2367.5,1407.5C 2303.5,1407.5 2239.5,1407.5 2175.5,1407.5C 2175.5,1396.83 2175.5,1386.17 2175.5,1375.5C 2164.83,1375.5 2154.17,1375.5 2143.5,1375.5C 2143.5,1364.83 2143.5,1354.17 2143.5,1343.5C 2132.83,1343.5 2122.17,1343.5 2111.5,1343.5C 2111.5,1332.83 2111.5,1322.17 2111.5,1311.5C 2100.83,1311.5 2090.17,1311.5 2079.5,1311.5C 2079.5,1300.83 2079.5,1290.17 2079.5,1279.5C 2068.83,1279.5 2058.17,1279.5 2047.5,1279.5C 2047.5,1268.83 2047.5,1258.17 2047.5,1247.5C 2036.83,1247.5 2026.17,1247.5 2015.5,1247.5C 2015.5,1226.17 2015.5,1204.83 2015.5,1183.5C 2004.83,1183.5 1994.17,1183.5 1983.5,1183.5C 1983.5,1098.17 1983.5,1012.83 1983.5,927.5C 1994.17,927.5 2004.83,927.5 2015.5,927.5C 2015.5,991.5 2015.5,1055.5 2015.5,1119.5C 2026.17,1119.5 2036.83,1119.5 2047.5,1119.5C 2047.5,1130.17 2047.5,1140.83 2047.5,1151.5C 2068.83,1151.5 2090.17,1151.5 2111.5,1151.5C 2111.5,1162.17 2111.5,1172.83 2111.5,1183.5C 2143.5,1183.5 2175.5,1183.5 2207.5,1183.5C 2207.5,1172.83 2207.5,1162.17 2207.5,1151.5C 2218.17,1151.5 2228.83,1151.5 2239.5,1151.5C 2250.17,1151.5 2260.83,1151.5 2271.5,1151.5C 2271.5,1140.83 2271.5,1130.17 2271.5,1119.5C 2271.5,1108.83 2271.5,1098.17 2271.5,1087.5C 2282.17,1087.5 2292.83,1087.5 2303.5,1087.5C 2303.5,1066.17 2303.5,1044.83 2303.5,1023.5C 2303.5,1012.83 2303.5,1002.17 2303.5,991.5C 2292.83,991.5 2282.17,991.5 2271.5,991.5C 2271.5,980.833 2271.5,970.167 2271.5,959.5C 2260.83,959.5 2250.17,959.5 2239.5,959.5C 2239.5,948.833 2239.5,938.167 2239.5,927.5C 2260.83,927.5 2282.17,927.5 2303.5,927.5C 2303.5,906.167 2303.5,884.833 2303.5,863.5C 2324.83,863.5 2346.17,863.5 2367.5,863.5C 2367.5,852.833 2367.5,842.167 2367.5,831.5C 2378.17,831.5 2388.83,831.5 2399.5,831.5C 2399.5,820.833 2399.5,810.167 2399.5,799.5C 2410.17,799.5 2420.83,799.5 2431.5,799.5C 2431.5,788.833 2431.5,778.167 2431.5,767.5C 2442.17,767.5 2452.83,767.5 2463.5,767.5C 2463.5,778.167 2463.5,788.833 2463.5,799.5C 2474.17,799.5 2484.83,799.5 2495.5,799.5 Z"/></g>
<g><path style="opacity:1" fill="#1b1a1e" d="M 2687.5,767.5 C 2698.17,767.5 2708.83,767.5 2719.5,767.5C 2719.5,778.167 2719.5,788.833 2719.5,799.5C 2708.83,799.5 2698.17,799.5 2687.5,799.5C 2687.5,788.833 2687.5,778.167 2687.5,767.5 Z"/></g>
<g><path style="opacity:1" fill="#000000" d="M 2399.5,799.5 C 2399.5,810.167 2399.5,820.833 2399.5,831.5C 2388.83,831.5 2378.17,831.5 2367.5,831.5C 2367.5,820.833 2367.5,810.167 2367.5,799.5C 2378.17,799.5 2388.83,799.5 2399.5,799.5 Z"/></g>
<g><path style="opacity:1" fill="#151418" d="M 1791.5,831.5 C 1791.5,842.167 1791.5,852.833 1791.5,863.5C 1780.83,863.5 1770.17,863.5 1759.5,863.5C 1759.5,852.833 1759.5,842.167 1759.5,831.5C 1770.17,831.5 1780.83,831.5 1791.5,831.5 Z"/></g>
<g><path style="opacity:1" fill="#1b1a1e" d="M 1567.5,863.5 C 1567.5,874.167 1567.5,884.833 1567.5,895.5C 1556.83,895.5 1546.17,895.5 1535.5,895.5C 1535.5,884.833 1535.5,874.167 1535.5,863.5C 1546.17,863.5 1556.83,863.5 1567.5,863.5 Z"/></g>
<g><path style="opacity:1" fill="#0a090e" d="M 1567.5,863.5 C 1588.83,863.5 1610.17,863.5 1631.5,863.5C 1631.5,874.167 1631.5,884.833 1631.5,895.5C 1610.17,895.5 1588.83,895.5 1567.5,895.5C 1567.5,884.833 1567.5,874.167 1567.5,863.5 Z"/></g>
<g><path style="opacity:1" fill="#0b090f" d="M 1759.5,863.5 C 1770.17,863.5 1780.83,863.5 1791.5,863.5C 1791.5,895.5 1791.5,927.5 1791.5,959.5C 1780.83,959.5 1770.17,959.5 1759.5,959.5C 1759.5,970.167 1759.5,980.833 1759.5,991.5C 1738.17,991.5 1716.83,991.5 1695.5,991.5C 1695.5,1002.17 1695.5,1012.83 1695.5,1023.5C 1684.83,1023.5 1674.17,1023.5 1663.5,1023.5C 1663.5,1044.83 1663.5,1066.17 1663.5,1087.5C 1631.5,1087.5 1599.5,1087.5 1567.5,1087.5C 1567.5,1098.17 1567.5,1108.83 1567.5,1119.5C 1556.83,1119.5 1546.17,1119.5 1535.5,1119.5C 1535.5,1098.17 1535.5,1076.83 1535.5,1055.5C 1546.17,1055.5 1556.83,1055.5 1567.5,1055.5C 1567.5,1023.5 1567.5,991.5 1567.5,959.5C 1578.17,959.5 1588.83,959.5 1599.5,959.5C 1599.5,948.833 1599.5,938.167 1599.5,927.5C 1610.17,927.5 1620.83,927.5 1631.5,927.5C 1631.5,916.833 1631.5,906.167 1631.5,895.5C 1642.17,895.5 1652.83,895.5 1663.5,895.5C 1663.5,906.167 1663.5,916.833 1663.5,927.5C 1674.17,927.5 1684.83,927.5 1695.5,927.5C 1695.5,916.833 1695.5,906.167 1695.5,895.5C 1716.83,895.5 1738.17,895.5 1759.5,895.5C 1759.5,884.833 1759.5,874.167 1759.5,863.5 Z"/></g>
<g><path style="opacity:1" fill="#1b1a1e" d="M 1535.5,895.5 C 1535.5,906.167 1535.5,916.833 1535.5,927.5C 1524.83,927.5 1514.17,927.5 1503.5,927.5C 1503.5,916.833 1503.5,906.167 1503.5,895.5C 1514.17,895.5 1524.83,895.5 1535.5,895.5 Z"/></g>
<g><path style="opacity:1" fill="#0a090e" d="M 1535.5,895.5 C 1546.17,895.5 1556.83,895.5 1567.5,895.5C 1567.5,906.167 1567.5,916.833 1567.5,927.5C 1556.83,927.5 1546.17,927.5 1535.5,927.5C 1535.5,916.833 1535.5,906.167 1535.5,895.5 Z"/></g>
<g><path style="opacity:1" fill="#be9177" d="M 2015.5,927.5 C 2004.83,927.5 1994.17,927.5 1983.5,927.5C 1983.5,916.833 1983.5,906.167 1983.5,895.5C 2004.83,895.5 2026.17,895.5 2047.5,895.5C 2047.5,906.167 2047.5,916.833 2047.5,927.5C 2036.83,927.5 2026.17,927.5 2015.5,927.5 Z"/></g>
<g><path style="opacity:1" fill="#e4c2ae" d="M 2239.5,927.5 C 2228.83,927.5 2218.17,927.5 2207.5,927.5C 2207.5,916.833 2207.5,906.167 2207.5,895.5C 2218.17,895.5 2228.83,895.5 2239.5,895.5C 2239.5,906.167 2239.5,916.833 2239.5,927.5 Z"/></g>
<g><path style="opacity:1" fill="#e4c2ae" d="M 2527.5,895.5 C 2527.5,906.167 2527.5,916.833 2527.5,927.5C 2495.5,927.5 2463.5,927.5 2431.5,927.5C 2431.5,916.833 2431.5,906.167 2431.5,895.5C 2463.5,895.5 2495.5,895.5 2527.5,895.5 Z"/></g>
<g><path style="opacity:1" fill="#61534a" d="M 2527.5,895.5 C 2538.17,895.5 2548.83,895.5 2559.5,895.5C 2559.5,906.167 2559.5,916.833 2559.5,927.5C 2548.83,927.5 2538.17,927.5 2527.5,927.5C 2527.5,916.833 2527.5,906.167 2527.5,895.5 Z"/></g>
<g><path style="opacity:1" fill="#0a090e" d="M 1503.5,927.5 C 1503.5,938.167 1503.5,948.833 1503.5,959.5C 1492.83,959.5 1482.17,959.5 1471.5,959.5C 1471.5,948.833 1471.5,938.167 1471.5,927.5C 1482.17,927.5 1492.83,927.5 1503.5,927.5 Z"/></g>
<g><path style="opacity:1" fill="#fefffe" d="M 2207.5,927.5 C 2207.5,938.167 2207.5,948.833 2207.5,959.5C 2196.83,959.5 2186.17,959.5 2175.5,959.5C 2175.5,970.167 2175.5,980.833 2175.5,991.5C 2164.83,991.5 2154.17,991.5 2143.5,991.5C 2143.5,1012.83 2143.5,1034.17 2143.5,1055.5C 2154.17,1055.5 2164.83,1055.5 2175.5,1055.5C 2175.5,1076.83 2175.5,1098.17 2175.5,1119.5C 2175.5,1130.17 2175.5,1140.83 2175.5,1151.5C 2154.17,1151.5 2132.83,1151.5 2111.5,1151.5C 2111.5,1140.83 2111.5,1130.17 2111.5,1119.5C 2100.83,1119.5 2090.17,1119.5 2079.5,1119.5C 2079.5,1108.83 2079.5,1098.17 2079.5,1087.5C 2068.83,1087.5 2058.17,1087.5 2047.5,1087.5C 2047.5,1044.83 2047.5,1002.17 2047.5,959.5C 2058.17,959.5 2068.83,959.5 2079.5,959.5C 2079.5,948.833 2079.5,938.167 2079.5,927.5C 2122.17,927.5 2164.83,927.5 2207.5,927.5 Z"/></g>
<g><path style="opacity:1" fill="#000000" d="M 2207.5,927.5 C 2218.17,927.5 2228.83,927.5 2239.5,927.5C 2239.5,938.167 2239.5,948.833 2239.5,959.5C 2250.17,959.5 2260.83,959.5 2271.5,959.5C 2271.5,970.167 2271.5,980.833 2271.5,991.5C 2282.17,991.5 2292.83,991.5 2303.5,991.5C 2303.5,1002.17 2303.5,1012.83 2303.5,1023.5C 2292.83,1023.5 2282.17,1023.5 2271.5,1023.5C 2271.5,1044.83 2271.5,1066.17 2271.5,1087.5C 2260.83,1087.5 2250.17,1087.5 2239.5,1087.5C 2239.5,1098.17 2239.5,1108.83 2239.5,1119.5C 2239.5,1130.17 2239.5,1140.83 2239.5,1151.5C 2228.83,1151.5 2218.17,1151.5 2207.5,1151.5C 2207.5,1140.83 2207.5,1130.17 2207.5,1119.5C 2196.83,1119.5 2186.17,1119.5 2175.5,1119.5C 2175.5,1098.17 2175.5,1076.83 2175.5,1055.5C 2164.83,1055.5 2154.17,1055.5 2143.5,1055.5C 2143.5,1034.17 2143.5,1012.83 2143.5,991.5C 2154.17,991.5 2164.83,991.5 2175.5,991.5C 2175.5,980.833 2175.5,970.167 2175.5,959.5C 2186.17,959.5 2196.83,959.5 2207.5,959.5C 2207.5,948.833 2207.5,938.167 2207.5,927.5 Z"/></g>
<g><path style="opacity:1" fill="#726156" d="M 2399.5,927.5 C 2410.17,927.5 2420.83,927.5 2431.5,927.5C 2431.5,938.167 2431.5,948.833 2431.5,959.5C 2420.83,959.5 2410.17,959.5 2399.5,959.5C 2399.5,948.833 2399.5,938.167 2399.5,927.5 Z"/></g>
<g><path style="opacity:1" fill="#131316" d="M 2655.5,927.5 C 2666.17,927.5 2676.83,927.5 2687.5,927.5C 2687.5,938.167 2687.5,948.833 2687.5,959.5C 2687.5,948.833 2687.5,938.167 2687.5,927.5C 2676.83,927.5 2666.17,927.5 2655.5,927.5 Z"/></g>
<g><path style="opacity:1" fill="#000000" d="M 2399.5,959.5 C 2410.17,959.5 2420.83,959.5 2431.5,959.5C 2431.5,980.833 2431.5,1002.17 2431.5,1023.5C 2420.83,1023.5 2410.17,1023.5 2399.5,1023.5C 2399.5,1044.83 2399.5,1066.17 2399.5,1087.5C 2388.83,1087.5 2378.17,1087.5 2367.5,1087.5C 2367.5,1055.5 2367.5,1023.5 2367.5,991.5C 2378.17,991.5 2388.83,991.5 2399.5,991.5C 2399.5,980.833 2399.5,970.167 2399.5,959.5 Z"/></g>
<g><path style="opacity:1" fill="#fefffe" d="M 2431.5,959.5 C 2442.17,959.5 2452.83,959.5 2463.5,959.5C 2463.5,1012.83 2463.5,1066.17 2463.5,1119.5C 2452.83,1119.5 2442.17,1119.5 2431.5,1119.5C 2431.5,1108.83 2431.5,1098.17 2431.5,1087.5C 2420.83,1087.5 2410.17,1087.5 2399.5,1087.5C 2399.5,1066.17 2399.5,1044.83 2399.5,1023.5C 2410.17,1023.5 2420.83,1023.5 2431.5,1023.5C 2431.5,1002.17 2431.5,980.833 2431.5,959.5 Z"/></g>
<g><path style="opacity:1" fill="#fefefe" d="M 2559.5,1055.5 C 2548.83,1055.5 2538.17,1055.5 2527.5,1055.5C 2527.5,1023.5 2527.5,991.5 2527.5,959.5C 2538.17,959.5 2548.83,959.5 2559.5,959.5C 2559.5,991.5 2559.5,1023.5 2559.5,1055.5 Z"/></g>
<g><path style="opacity:1" fill="#0a090e" d="M 2591.5,991.5 C 2602.17,991.5 2612.83,991.5 2623.5,991.5C 2623.5,1034.17 2623.5,1076.83 2623.5,1119.5C 2623.5,1151.5 2623.5,1183.5 2623.5,1215.5C 2612.83,1215.5 2602.17,1215.5 2591.5,1215.5C 2591.5,1140.83 2591.5,1066.17 2591.5,991.5 Z"/></g>
<g><path style="opacity:1" fill="#e4c2ae" d="M 1727.5,1055.5 C 1727.5,1044.83 1727.5,1034.17 1727.5,1023.5C 1748.83,1023.5 1770.17,1023.5 1791.5,1023.5C 1791.5,1034.17 1791.5,1044.83 1791.5,1055.5C 1770.17,1055.5 1748.83,1055.5 1727.5,1055.5 Z"/></g>
<g><path style="opacity:1" fill="#fefffe" d="M 2303.5,1023.5 C 2303.5,1044.83 2303.5,1066.17 2303.5,1087.5C 2292.83,1087.5 2282.17,1087.5 2271.5,1087.5C 2271.5,1066.17 2271.5,1044.83 2271.5,1023.5C 2282.17,1023.5 2292.83,1023.5 2303.5,1023.5 Z"/></g>
<g><path style="opacity:1" fill="#e4c2ae" d="M 1727.5,1055.5 C 1727.5,1066.17 1727.5,1076.83 1727.5,1087.5C 1727.5,1098.17 1727.5,1108.83 1727.5,1119.5C 1727.5,1130.17 1727.5,1140.83 1727.5,1151.5C 1716.83,1151.5 1706.17,1151.5 1695.5,1151.5C 1695.5,1119.5 1695.5,1087.5 1695.5,1055.5C 1706.17,1055.5 1716.83,1055.5 1727.5,1055.5 Z"/></g>
<g><path style="opacity:1" fill="#b6b7b6" d="M 2527.5,1055.5 C 2538.17,1055.5 2548.83,1055.5 2559.5,1055.5C 2559.5,1066.17 2559.5,1076.83 2559.5,1087.5C 2548.83,1087.5 2538.17,1087.5 2527.5,1087.5C 2527.5,1076.83 2527.5,1066.17 2527.5,1055.5 Z"/></g>
<g><path style="opacity:1" fill="#534034" d="M 1727.5,1087.5 C 1738.17,1087.5 1748.83,1087.5 1759.5,1087.5C 1759.5,1098.17 1759.5,1108.83 1759.5,1119.5C 1748.83,1119.5 1738.17,1119.5 1727.5,1119.5C 1727.5,1108.83 1727.5,1098.17 1727.5,1087.5 Z"/></g>
<g><path style="opacity:1" fill="#be9177" d="M 1759.5,1087.5 C 1770.17,1087.5 1780.83,1087.5 1791.5,1087.5C 1791.5,1098.17 1791.5,1108.83 1791.5,1119.5C 1780.83,1119.5 1770.17,1119.5 1759.5,1119.5C 1759.5,1108.83 1759.5,1098.17 1759.5,1087.5 Z"/></g>
<g><path style="opacity:1" fill="#fefffe" d="M 2271.5,1087.5 C 2271.5,1098.17 2271.5,1108.83 2271.5,1119.5C 2260.83,1119.5 2250.17,1119.5 2239.5,1119.5C 2239.5,1108.83 2239.5,1098.17 2239.5,1087.5C 2250.17,1087.5 2260.83,1087.5 2271.5,1087.5 Z"/></g>
<g><path style="opacity:1" fill="#000000" d="M 2399.5,1087.5 C 2410.17,1087.5 2420.83,1087.5 2431.5,1087.5C 2431.5,1098.17 2431.5,1108.83 2431.5,1119.5C 2442.17,1119.5 2452.83,1119.5 2463.5,1119.5C 2463.5,1130.17 2463.5,1140.83 2463.5,1151.5C 2474.17,1151.5 2484.83,1151.5 2495.5,1151.5C 2495.5,1162.17 2495.5,1172.83 2495.5,1183.5C 2474.17,1183.5 2452.83,1183.5 2431.5,1183.5C 2431.5,1204.83 2431.5,1226.17 2431.5,1247.5C 2420.83,1247.5 2410.17,1247.5 2399.5,1247.5C 2399.5,1194.17 2399.5,1140.83 2399.5,1087.5 Z"/></g>
<g><path style="opacity:1" fill="#be9177" d="M 1727.5,1119.5 C 1738.17,1119.5 1748.83,1119.5 1759.5,1119.5C 1759.5,1130.17 1759.5,1140.83 1759.5,1151.5C 1748.83,1151.5 1738.17,1151.5 1727.5,1151.5C 1727.5,1140.83 1727.5,1130.17 1727.5,1119.5 Z"/></g>
<g><path style="opacity:1" fill="#000000" d="M 1759.5,1119.5 C 1770.17,1119.5 1780.83,1119.5 1791.5,1119.5C 1791.5,1130.17 1791.5,1140.83 1791.5,1151.5C 1791.5,1162.17 1791.5,1172.83 1791.5,1183.5C 1780.83,1183.5 1770.17,1183.5 1759.5,1183.5C 1759.5,1172.83 1759.5,1162.17 1759.5,1151.5C 1759.5,1140.83 1759.5,1130.17 1759.5,1119.5 Z"/></g>
<g><path style="opacity:1" fill="#be9177" d="M 1791.5,1119.5 C 1802.17,1119.5 1812.83,1119.5 1823.5,1119.5C 1823.5,1130.17 1823.5,1140.83 1823.5,1151.5C 1812.83,1151.5 1802.17,1151.5 1791.5,1151.5C 1791.5,1140.83 1791.5,1130.17 1791.5,1119.5 Z"/></g>
<g><path style="opacity:1" fill="#9e9f9e" d="M 2175.5,1119.5 C 2186.17,1119.5 2196.83,1119.5 2207.5,1119.5C 2207.5,1130.17 2207.5,1140.83 2207.5,1151.5C 2196.83,1151.5 2186.17,1151.5 2175.5,1151.5C 2175.5,1140.83 2175.5,1130.17 2175.5,1119.5 Z"/></g>
<g><path style="opacity:1" fill="#1f1b18" d="M 2239.5,1119.5 C 2250.17,1119.5 2260.83,1119.5 2271.5,1119.5C 2271.5,1130.17 2271.5,1140.83 2271.5,1151.5C 2260.83,1151.5 2250.17,1151.5 2239.5,1151.5C 2239.5,1140.83 2239.5,1130.17 2239.5,1119.5 Z"/></g>
<g><path style="opacity:1" fill="#fefffe" d="M 2463.5,1119.5 C 2474.17,1119.5 2484.83,1119.5 2495.5,1119.5C 2495.5,1130.17 2495.5,1140.83 2495.5,1151.5C 2495.5,1140.83 2495.5,1130.17 2495.5,1119.5C 2484.83,1119.5 2474.17,1119.5 2463.5,1119.5 Z"/></g>
<g><path style="opacity:1" fill="#0a080d" d="M 1631.5,1119.5 C 1642.17,1119.5 1652.83,1119.5 1663.5,1119.5C 1663.5,1140.83 1663.5,1162.17 1663.5,1183.5C 1674.17,1183.5 1684.83,1183.5 1695.5,1183.5C 1695.5,1194.17 1695.5,1204.83 1695.5,1215.5C 1674.17,1215.5 1652.83,1215.5 1631.5,1215.5C 1631.5,1183.5 1631.5,1151.5 1631.5,1119.5 Z"/></g>
<g><path style="opacity:1" fill="#e4c2ae" d="M 1727.5,1151.5 C 1738.17,1151.5 1748.83,1151.5 1759.5,1151.5C 1759.5,1162.17 1759.5,1172.83 1759.5,1183.5C 1748.83,1183.5 1738.17,1183.5 1727.5,1183.5C 1727.5,1172.83 1727.5,1162.17 1727.5,1151.5 Z"/></g>
<g><path style="opacity:1" fill="#7b5e4c" d="M 1791.5,1151.5 C 1802.17,1151.5 1812.83,1151.5 1823.5,1151.5C 1823.5,1162.17 1823.5,1172.83 1823.5,1183.5C 1812.83,1183.5 1802.17,1183.5 1791.5,1183.5C 1791.5,1172.83 1791.5,1162.17 1791.5,1151.5 Z"/></g>
<g><path style="opacity:1" fill="#000000" d="M 2111.5,1151.5 C 2132.83,1151.5 2154.17,1151.5 2175.5,1151.5C 2186.17,1151.5 2196.83,1151.5 2207.5,1151.5C 2207.5,1162.17 2207.5,1172.83 2207.5,1183.5C 2175.5,1183.5 2143.5,1183.5 2111.5,1183.5C 2111.5,1172.83 2111.5,1162.17 2111.5,1151.5 Z"/></g>
<g><path style="opacity:1" fill="#322b26" d="M 1727.5,1183.5 C 1738.17,1183.5 1748.83,1183.5 1759.5,1183.5C 1759.5,1194.17 1759.5,1204.83 1759.5,1215.5C 1748.83,1215.5 1738.17,1215.5 1727.5,1215.5C 1727.5,1204.83 1727.5,1194.17 1727.5,1183.5 Z"/></g>
<g><path style="opacity:1" fill="#e4c2ae" d="M 1759.5,1183.5 C 1770.17,1183.5 1780.83,1183.5 1791.5,1183.5C 1791.5,1194.17 1791.5,1204.83 1791.5,1215.5C 1780.83,1215.5 1770.17,1215.5 1759.5,1215.5C 1759.5,1204.83 1759.5,1194.17 1759.5,1183.5 Z"/></g>
<g><path style="opacity:1" fill="#be9177" d="M 1983.5,1183.5 C 1994.17,1183.5 2004.83,1183.5 2015.5,1183.5C 2015.5,1204.83 2015.5,1226.17 2015.5,1247.5C 2004.83,1247.5 1994.17,1247.5 1983.5,1247.5C 1983.5,1226.17 1983.5,1204.83 1983.5,1183.5 Z"/></g>
<g><path style="opacity:1" fill="#0a090e" d="M 1727.5,1247.5 C 1738.17,1247.5 1748.83,1247.5 1759.5,1247.5C 1759.5,1268.83 1759.5,1290.17 1759.5,1311.5C 1748.83,1311.5 1738.17,1311.5 1727.5,1311.5C 1727.5,1290.17 1727.5,1268.83 1727.5,1247.5 Z"/></g>
<g><path style="opacity:1" fill="#be9177" d="M 2015.5,1247.5 C 2026.17,1247.5 2036.83,1247.5 2047.5,1247.5C 2047.5,1258.17 2047.5,1268.83 2047.5,1279.5C 2058.17,1279.5 2068.83,1279.5 2079.5,1279.5C 2079.5,1290.17 2079.5,1300.83 2079.5,1311.5C 2090.17,1311.5 2100.83,1311.5 2111.5,1311.5C 2111.5,1322.17 2111.5,1332.83 2111.5,1343.5C 2090.17,1343.5 2068.83,1343.5 2047.5,1343.5C 2047.5,1332.83 2047.5,1322.17 2047.5,1311.5C 2036.83,1311.5 2026.17,1311.5 2015.5,1311.5C 2015.5,1290.17 2015.5,1268.83 2015.5,1247.5 Z"/></g>
<g><path style="opacity:1" fill="#000000" d="M 2239.5,1279.5 C 2292.83,1279.5 2346.17,1279.5 2399.5,1279.5C 2399.5,1290.17 2399.5,1300.83 2399.5,1311.5C 2346.17,1311.5 2292.83,1311.5 2239.5,1311.5C 2239.5,1300.83 2239.5,1290.17 2239.5,1279.5 Z"/></g>
<g><path style="opacity:1" fill="#07060a" d="M 1855.5,1279.5 C 1866.17,1279.5 1876.83,1279.5 1887.5,1279.5C 1887.5,1300.83 1887.5,1322.17 1887.5,1343.5C 1876.83,1343.5 1866.17,1343.5 1855.5,1343.5C 1855.5,1322.17 1855.5,1300.83 1855.5,1279.5 Z"/></g>
<g><path style="opacity:1" fill="#0a090e" d="M 2559.5,1343.5 C 2559.5,1332.83 2559.5,1322.17 2559.5,1311.5C 2570.17,1311.5 2580.83,1311.5 2591.5,1311.5C 2591.5,1322.17 2591.5,1332.83 2591.5,1343.5C 2580.83,1343.5 2570.17,1343.5 2559.5,1343.5 Z"/></g>
<g><path style="opacity:1" fill="#be9177" d="M 2111.5,1343.5 C 2122.17,1343.5 2132.83,1343.5 2143.5,1343.5C 2143.5,1354.17 2143.5,1364.83 2143.5,1375.5C 2132.83,1375.5 2122.17,1375.5 2111.5,1375.5C 2111.5,1364.83 2111.5,1354.17 2111.5,1343.5 Z"/></g>
<g><path style="opacity:1" fill="#0a090e" d="M 2559.5,1343.5 C 2559.5,1364.83 2559.5,1386.17 2559.5,1407.5C 2548.83,1407.5 2538.17,1407.5 2527.5,1407.5C 2527.5,1386.17 2527.5,1364.83 2527.5,1343.5C 2538.17,1343.5 2548.83,1343.5 2559.5,1343.5 Z"/></g>
<g><path style="opacity:1" fill="#a1897a" d="M 2399.5,1375.5 C 2399.5,1386.17 2399.5,1396.83 2399.5,1407.5C 2388.83,1407.5 2378.17,1407.5 2367.5,1407.5C 2367.5,1396.83 2367.5,1386.17 2367.5,1375.5C 2378.17,1375.5 2388.83,1375.5 2399.5,1375.5 Z"/></g>
</svg>
