<?xml version="1.0" encoding="UTF-8"?>
<!DOCTYPE svg PUBLIC "-//W3C//DTD SVG 1.1//EN" "http://www.w3.org/Graphics/SVG/1.1/DTD/svg11.dtd">
<svg xmlns="http://www.w3.org/2000/svg" version="1.1" width="4320px" height="4320px" style="shape-rendering:geometricPrecision; text-rendering:geometricPrecision; image-rendering:optimizeQuality; fill-rule:evenodd; clip-rule:evenodd" xmlns:xlink="http://www.w3.org/1999/xlink">
<g><path style="opacity:0.97" fill="#0a090f" d="M 2175.5,2591.5 C 2164.83,2591.5 2154.17,2591.5 2143.5,2591.5C 2143.5,2538.17 2143.5,2484.83 2143.5,2431.5C 2132.83,2431.5 2122.17,2431.5 2111.5,2431.5C 2111.5,2420.83 2111.5,2410.17 2111.5,2399.5C 2100.83,2399.5 2090.17,2399.5 2079.5,2399.5C 2079.5,2388.83 2079.5,2378.17 2079.5,2367.5C 2058.17,2367.5 2036.83,2367.5 2015.5,2367.5C 2004.83,2367.5 1994.17,2367.5 1983.5,2367.5C 1962.17,2367.5 1940.83,2367.5 1919.5,2367.5C 1919.5,2378.17 1919.5,2388.83 1919.5,2399.5C 1908.83,2399.5 1898.17,2399.5 1887.5,2399.5C 1887.5,2420.83 1887.5,2442.17 1887.5,2463.5C 1876.83,2463.5 1866.17,2463.5 1855.5,2463.5C 1855.5,2484.83 1855.5,2506.17 1855.5,2527.5C 1844.83,2527.5 1834.17,2527.5 1823.5,2527.5C 1823.5,2484.83 1823.5,2442.17 1823.5,2399.5C 1834.17,2399.5 1844.83,2399.5 1855.5,2399.5C 1855.5,2388.83 1855.5,2378.17 1855.5,2367.5C 1866.17,2367.5 1876.83,2367.5 1887.5,2367.5C 1887.5,2356.83 1887.5,2346.17 1887.5,2335.5C 1898.17,2335.5 1908.83,2335.5 1919.5,2335.5C 1919.5,2324.83 1919.5,2314.17 1919.5,2303.5C 1972.83,2303.5 2026.17,2303.5 2079.5,2303.5C 2079.5,2314.17 2079.5,2324.83 2079.5,2335.5C 2100.83,2335.5 2122.17,2335.5 2143.5,2335.5C 2143.5,2356.83 2143.5,2378.17 2143.5,2399.5C 2154.17,2399.5 2164.83,2399.5 2175.5,2399.5C 2175.5,2463.5 2175.5,2527.5 2175.5,2591.5 Z"/></g>
<g><path style="opacity:1" fill="#0e1a49" d="M 1983.5,2367.5 C 1983.5,2378.17 1983.5,2388.83 1983.5,2399.5C 1983.5,2420.83 1983.5,2442.17 1983.5,2463.5C 1972.83,2463.5 1962.17,2463.5 1951.5,2463.5C 1951.5,2516.83 1951.5,2570.17 1951.5,2623.5C 1940.83,2623.5 1930.17,2623.5 1919.5,2623.5C 1919.5,2666.17 1919.5,2708.83 1919.5,2751.5C 1908.83,2751.5 1898.17,2751.5 1887.5,2751.5C 1887.5,2783.5 1887.5,2815.5 1887.5,2847.5C 1876.83,2847.5 1866.17,2847.5 1855.5,2847.5C 1855.5,2900.83 1855.5,2954.17 1855.5,3007.5C 1844.83,3007.5 1834.17,3007.5 1823.5,3007.5C 1823.5,2996.83 1823.5,2986.17 1823.5,2975.5C 1802.17,2975.5 1780.83,2975.5 1759.5,2975.5C 1759.5,2954.17 1759.5,2932.83 1759.5,2911.5C 1770.17,2911.5 1780.83,2911.5 1791.5,2911.5C 1791.5,2858.17 1791.5,2804.83 1791.5,2751.5C 1802.17,2751.5 1812.83,2751.5 1823.5,2751.5C 1823.5,2708.83 1823.5,2666.17 1823.5,2623.5C 1834.17,2623.5 1844.83,2623.5 1855.5,2623.5C 1855.5,2612.83 1855.5,2602.17 1855.5,2591.5C 1855.5,2570.17 1855.5,2548.83 1855.5,2527.5C 1855.5,2506.17 1855.5,2484.83 1855.5,2463.5C 1866.17,2463.5 1876.83,2463.5 1887.5,2463.5C 1887.5,2442.17 1887.5,2420.83 1887.5,2399.5C 1898.17,2399.5 1908.83,2399.5 1919.5,2399.5C 1919.5,2388.83 1919.5,2378.17 1919.5,2367.5C 1940.83,2367.5 1962.17,2367.5 1983.5,2367.5 Z"/></g>
<g><path style="opacity:1" fill="#253677" d="M 1983.5,2367.5 C 1994.17,2367.5 2004.83,2367.5 2015.5,2367.5C 2015.5,2378.17 2015.5,2388.83 2015.5,2399.5C 2004.83,2399.5 1994.17,2399.5 1983.5,2399.5C 1983.5,2388.83 1983.5,2378.17 1983.5,2367.5 Z"/></g>
<g><path style="opacity:1" fill="#2d3e87" d="M 2015.5,2367.5 C 2036.83,2367.5 2058.17,2367.5 2079.5,2367.5C 2079.5,2378.17 2079.5,2388.83 2079.5,2399.5C 2090.17,2399.5 2100.83,2399.5 2111.5,2399.5C 2111.5,2410.17 2111.5,2420.83 2111.5,2431.5C 2122.17,2431.5 2132.83,2431.5 2143.5,2431.5C 2143.5,2484.83 2143.5,2538.17 2143.5,2591.5C 2143.5,2612.83 2143.5,2634.17 2143.5,2655.5C 2132.83,2655.5 2122.17,2655.5 2111.5,2655.5C 2111.5,2666.17 2111.5,2676.83 2111.5,2687.5C 2111.5,2794.17 2111.5,2900.83 2111.5,3007.5C 2100.83,3007.5 2090.17,3007.5 2079.5,3007.5C 2004.83,3007.5 1930.17,3007.5 1855.5,3007.5C 1855.5,2954.17 1855.5,2900.83 1855.5,2847.5C 1866.17,2847.5 1876.83,2847.5 1887.5,2847.5C 1887.5,2815.5 1887.5,2783.5 1887.5,2751.5C 1898.17,2751.5 1908.83,2751.5 1919.5,2751.5C 1919.5,2708.83 1919.5,2666.17 1919.5,2623.5C 1930.17,2623.5 1940.83,2623.5 1951.5,2623.5C 1951.5,2570.17 1951.5,2516.83 1951.5,2463.5C 1962.17,2463.5 1972.83,2463.5 1983.5,2463.5C 1983.5,2442.17 1983.5,2420.83 1983.5,2399.5C 1994.17,2399.5 2004.83,2399.5 2015.5,2399.5C 2015.5,2388.83 2015.5,2378.17 2015.5,2367.5 Z"/></g>
<g><path style="opacity:0.95" fill="#000000" d="M 1823.5,2527.5 C 1834.17,2527.5 1844.83,2527.5 1855.5,2527.5C 1855.5,2548.83 1855.5,2570.17 1855.5,2591.5C 1844.83,2591.5 1834.17,2591.5 1823.5,2591.5C 1823.5,2602.17 1823.5,2612.83 1823.5,2623.5C 1823.5,2666.17 1823.5,2708.83 1823.5,2751.5C 1812.83,2751.5 1802.17,2751.5 1791.5,2751.5C 1791.5,2804.83 1791.5,2858.17 1791.5,2911.5C 1780.83,2911.5 1770.17,2911.5 1759.5,2911.5C 1759.5,2932.83 1759.5,2954.17 1759.5,2975.5C 1738.17,2975.5 1716.83,2975.5 1695.5,2975.5C 1695.5,2964.83 1695.5,2954.17 1695.5,2943.5C 1706.17,2943.5 1716.83,2943.5 1727.5,2943.5C 1727.5,2900.83 1727.5,2858.17 1727.5,2815.5C 1738.17,2815.5 1748.83,2815.5 1759.5,2815.5C 1759.5,2762.17 1759.5,2708.83 1759.5,2655.5C 1770.17,2655.5 1780.83,2655.5 1791.5,2655.5C 1791.5,2612.83 1791.5,2570.17 1791.5,2527.5C 1802.17,2527.5 1812.83,2527.5 1823.5,2527.5 Z"/></g>
<g><path style="opacity:1" fill="#060c20" d="M 1855.5,2591.5 C 1855.5,2602.17 1855.5,2612.83 1855.5,2623.5C 1844.83,2623.5 1834.17,2623.5 1823.5,2623.5C 1823.5,2612.83 1823.5,2602.17 1823.5,2591.5C 1834.17,2591.5 1844.83,2591.5 1855.5,2591.5 Z"/></g>
<g><path style="opacity:1" fill="#000000" d="M 2143.5,2591.5 C 2154.17,2591.5 2164.83,2591.5 2175.5,2591.5C 2175.5,2740.83 2175.5,2890.17 2175.5,3039.5C 2154.17,3039.5 2132.83,3039.5 2111.5,3039.5C 2111.5,3028.83 2111.5,3018.17 2111.5,3007.5C 2111.5,2900.83 2111.5,2794.17 2111.5,2687.5C 2122.17,2687.5 2132.83,2687.5 2143.5,2687.5C 2143.5,2676.83 2143.5,2666.17 2143.5,2655.5C 2143.5,2634.17 2143.5,2612.83 2143.5,2591.5 Z"/></g>
<g><path style="opacity:1" fill="#111833" d="M 2143.5,2655.5 C 2143.5,2666.17 2143.5,2676.83 2143.5,2687.5C 2132.83,2687.5 2122.17,2687.5 2111.5,2687.5C 2111.5,2676.83 2111.5,2666.17 2111.5,2655.5C 2122.17,2655.5 2132.83,2655.5 2143.5,2655.5 Z"/></g>
<g><path style="opacity:0.02" fill="#3332cc" d="M 2079.5,3007.5 C 2090.17,3007.5 2100.83,3007.5 2111.5,3007.5C 2111.5,3018.17 2111.5,3028.83 2111.5,3039.5C 2100.83,3039.5 2090.17,3039.5 2079.5,3039.5C 2079.5,3028.83 2079.5,3018.17 2079.5,3007.5 Z"/></g>
</svg>
