<?xml version="1.0" encoding="UTF-8"?>
<!DOCTYPE svg PUBLIC "-//W3C//DTD SVG 1.1//EN" "http://www.w3.org/Graphics/SVG/1.1/DTD/svg11.dtd">
<svg xmlns="http://www.w3.org/2000/svg" version="1.1" width="4320px" height="4320px" style="shape-rendering:geometricPrecision; text-rendering:geometricPrecision; image-rendering:optimizeQuality; fill-rule:evenodd; clip-rule:evenodd" xmlns:xlink="http://www.w3.org/1999/xlink">
<g><path style="opacity:0.99" fill="#0a080e" d="M 2431.5,2431.5 C 2431.5,2442.17 2431.5,2452.83 2431.5,2463.5C 2442.17,2463.5 2452.83,2463.5 2463.5,2463.5C 2463.5,2495.5 2463.5,2527.5 2463.5,2559.5C 2452.83,2559.5 2442.17,2559.5 2431.5,2559.5C 2431.5,2548.83 2431.5,2538.17 2431.5,2527.5C 2431.5,2516.83 2431.5,2506.17 2431.5,2495.5C 2420.83,2495.5 2410.17,2495.5 2399.5,2495.5C 2399.5,2474.17 2399.5,2452.83 2399.5,2431.5C 2388.83,2431.5 2378.17,2431.5 2367.5,2431.5C 2367.5,2420.83 2367.5,2410.17 2367.5,2399.5C 2346.17,2399.5 2324.83,2399.5 2303.5,2399.5C 2303.5,2388.83 2303.5,2378.17 2303.5,2367.5C 2292.83,2367.5 2282.17,2367.5 2271.5,2367.5C 2271.5,2378.17 2271.5,2388.83 2271.5,2399.5C 2250.17,2399.5 2228.83,2399.5 2207.5,2399.5C 2207.5,2410.17 2207.5,2420.83 2207.5,2431.5C 2196.83,2431.5 2186.17,2431.5 2175.5,2431.5C 2175.5,2463.5 2175.5,2495.5 2175.5,2527.5C 2164.83,2527.5 2154.17,2527.5 2143.5,2527.5C 2143.5,2538.17 2143.5,2548.83 2143.5,2559.5C 2132.83,2559.5 2122.17,2559.5 2111.5,2559.5C 2111.5,2527.5 2111.5,2495.5 2111.5,2463.5C 2122.17,2463.5 2132.83,2463.5 2143.5,2463.5C 2143.5,2442.17 2143.5,2420.83 2143.5,2399.5C 2154.17,2399.5 2164.83,2399.5 2175.5,2399.5C 2175.5,2388.83 2175.5,2378.17 2175.5,2367.5C 2186.17,2367.5 2196.83,2367.5 2207.5,2367.5C 2207.5,2356.83 2207.5,2346.17 2207.5,2335.5C 2260.83,2335.5 2314.17,2335.5 2367.5,2335.5C 2367.5,2346.17 2367.5,2356.83 2367.5,2367.5C 2378.17,2367.5 2388.83,2367.5 2399.5,2367.5C 2399.5,2378.17 2399.5,2388.83 2399.5,2399.5C 2410.17,2399.5 2420.83,2399.5 2431.5,2399.5C 2431.5,2410.17 2431.5,2420.83 2431.5,2431.5 Z"/></g>
<g><path style="opacity:1" fill="#070a1e" d="M 2303.5,2399.5 C 2292.83,2399.5 2282.17,2399.5 2271.5,2399.5C 2271.5,2388.83 2271.5,2378.17 2271.5,2367.5C 2282.17,2367.5 2292.83,2367.5 2303.5,2367.5C 2303.5,2378.17 2303.5,2388.83 2303.5,2399.5 Z"/></g>
<g><path style="opacity:1" fill="#000a38" d="M 2271.5,2399.5 C 2282.17,2399.5 2292.83,2399.5 2303.5,2399.5C 2303.5,2420.83 2303.5,2442.17 2303.5,2463.5C 2292.83,2463.5 2282.17,2463.5 2271.5,2463.5C 2271.5,2495.5 2271.5,2527.5 2271.5,2559.5C 2260.83,2559.5 2250.17,2559.5 2239.5,2559.5C 2239.5,2634.17 2239.5,2708.83 2239.5,2783.5C 2228.83,2783.5 2218.17,2783.5 2207.5,2783.5C 2207.5,2794.17 2207.5,2804.83 2207.5,2815.5C 2207.5,2826.17 2207.5,2836.83 2207.5,2847.5C 2207.5,2911.5 2207.5,2975.5 2207.5,3039.5C 2186.17,3039.5 2164.83,3039.5 2143.5,3039.5C 2143.5,2943.5 2143.5,2847.5 2143.5,2751.5C 2154.17,2751.5 2164.83,2751.5 2175.5,2751.5C 2175.5,2740.83 2175.5,2730.17 2175.5,2719.5C 2175.5,2655.5 2175.5,2591.5 2175.5,2527.5C 2175.5,2495.5 2175.5,2463.5 2175.5,2431.5C 2186.17,2431.5 2196.83,2431.5 2207.5,2431.5C 2207.5,2420.83 2207.5,2410.17 2207.5,2399.5C 2228.83,2399.5 2250.17,2399.5 2271.5,2399.5 Z"/></g>
<g><path style="opacity:1" fill="#152f75" d="M 2303.5,2399.5 C 2324.83,2399.5 2346.17,2399.5 2367.5,2399.5C 2367.5,2410.17 2367.5,2420.83 2367.5,2431.5C 2378.17,2431.5 2388.83,2431.5 2399.5,2431.5C 2399.5,2452.83 2399.5,2474.17 2399.5,2495.5C 2399.5,2506.17 2399.5,2516.83 2399.5,2527.5C 2399.5,2538.17 2399.5,2548.83 2399.5,2559.5C 2410.17,2559.5 2420.83,2559.5 2431.5,2559.5C 2431.5,2612.83 2431.5,2666.17 2431.5,2719.5C 2442.17,2719.5 2452.83,2719.5 2463.5,2719.5C 2463.5,2783.5 2463.5,2847.5 2463.5,2911.5C 2474.17,2911.5 2484.83,2911.5 2495.5,2911.5C 2495.5,2943.5 2495.5,2975.5 2495.5,3007.5C 2463.5,3007.5 2431.5,3007.5 2399.5,3007.5C 2388.83,3007.5 2378.17,3007.5 2367.5,3007.5C 2367.5,3018.17 2367.5,3028.83 2367.5,3039.5C 2314.17,3039.5 2260.83,3039.5 2207.5,3039.5C 2207.5,2975.5 2207.5,2911.5 2207.5,2847.5C 2218.17,2847.5 2228.83,2847.5 2239.5,2847.5C 2239.5,2836.83 2239.5,2826.17 2239.5,2815.5C 2239.5,2804.83 2239.5,2794.17 2239.5,2783.5C 2239.5,2708.83 2239.5,2634.17 2239.5,2559.5C 2250.17,2559.5 2260.83,2559.5 2271.5,2559.5C 2271.5,2527.5 2271.5,2495.5 2271.5,2463.5C 2282.17,2463.5 2292.83,2463.5 2303.5,2463.5C 2303.5,2442.17 2303.5,2420.83 2303.5,2399.5 Z"/></g>
<g><path style="opacity:0.016" fill="#000000" d="M 2431.5,2431.5 C 2442.17,2431.5 2452.83,2431.5 2463.5,2431.5C 2463.5,2442.17 2463.5,2452.83 2463.5,2463.5C 2463.5,2452.83 2463.5,2442.17 2463.5,2431.5C 2452.83,2431.5 2442.17,2431.5 2431.5,2431.5 Z"/></g>
<g><path style="opacity:1" fill="#000000" d="M 2399.5,2495.5 C 2410.17,2495.5 2420.83,2495.5 2431.5,2495.5C 2431.5,2506.17 2431.5,2516.83 2431.5,2527.5C 2420.83,2527.5 2410.17,2527.5 2399.5,2527.5C 2399.5,2516.83 2399.5,2506.17 2399.5,2495.5 Z"/></g>
<g><path style="opacity:1" fill="#000000" d="M 2175.5,2527.5 C 2175.5,2591.5 2175.5,2655.5 2175.5,2719.5C 2164.83,2719.5 2154.17,2719.5 2143.5,2719.5C 2143.5,2730.17 2143.5,2740.83 2143.5,2751.5C 2143.5,2847.5 2143.5,2943.5 2143.5,3039.5C 2132.83,3039.5 2122.17,3039.5 2111.5,3039.5C 2111.5,2879.5 2111.5,2719.5 2111.5,2559.5C 2122.17,2559.5 2132.83,2559.5 2143.5,2559.5C 2143.5,2548.83 2143.5,2538.17 2143.5,2527.5C 2154.17,2527.5 2164.83,2527.5 2175.5,2527.5 Z"/></g>
<g><path style="opacity:1" fill="#0c1b45" d="M 2399.5,2527.5 C 2410.17,2527.5 2420.83,2527.5 2431.5,2527.5C 2431.5,2538.17 2431.5,2548.83 2431.5,2559.5C 2420.83,2559.5 2410.17,2559.5 2399.5,2559.5C 2399.5,2548.83 2399.5,2538.17 2399.5,2527.5 Z"/></g>
<g><path style="opacity:0.947" fill="#000000" d="M 2431.5,2559.5 C 2442.17,2559.5 2452.83,2559.5 2463.5,2559.5C 2463.5,2580.83 2463.5,2602.17 2463.5,2623.5C 2474.17,2623.5 2484.83,2623.5 2495.5,2623.5C 2495.5,2676.83 2495.5,2730.17 2495.5,2783.5C 2506.17,2783.5 2516.83,2783.5 2527.5,2783.5C 2527.5,2847.5 2527.5,2911.5 2527.5,2975.5C 2538.17,2975.5 2548.83,2975.5 2559.5,2975.5C 2559.5,2986.17 2559.5,2996.83 2559.5,3007.5C 2538.17,3007.5 2516.83,3007.5 2495.5,3007.5C 2495.5,2975.5 2495.5,2943.5 2495.5,2911.5C 2484.83,2911.5 2474.17,2911.5 2463.5,2911.5C 2463.5,2847.5 2463.5,2783.5 2463.5,2719.5C 2452.83,2719.5 2442.17,2719.5 2431.5,2719.5C 2431.5,2666.17 2431.5,2612.83 2431.5,2559.5 Z"/></g>
<g><path style="opacity:1" fill="#00072b" d="M 2175.5,2719.5 C 2175.5,2730.17 2175.5,2740.83 2175.5,2751.5C 2164.83,2751.5 2154.17,2751.5 2143.5,2751.5C 2143.5,2740.83 2143.5,2730.17 2143.5,2719.5C 2154.17,2719.5 2164.83,2719.5 2175.5,2719.5 Z"/></g>
<g><path style="opacity:1" fill="#0e286b" d="M 2239.5,2783.5 C 2239.5,2794.17 2239.5,2804.83 2239.5,2815.5C 2228.83,2815.5 2218.17,2815.5 2207.5,2815.5C 2207.5,2804.83 2207.5,2794.17 2207.5,2783.5C 2218.17,2783.5 2228.83,2783.5 2239.5,2783.5 Z"/></g>
<g><path style="opacity:1" fill="#122c70" d="M 2207.5,2815.5 C 2218.17,2815.5 2228.83,2815.5 2239.5,2815.5C 2239.5,2826.17 2239.5,2836.83 2239.5,2847.5C 2228.83,2847.5 2218.17,2847.5 2207.5,2847.5C 2207.5,2836.83 2207.5,2826.17 2207.5,2815.5 Z"/></g>
<g><path style="opacity:0.024" fill="#002955" d="M 2399.5,3007.5 C 2399.5,3018.17 2399.5,3028.83 2399.5,3039.5C 2388.83,3039.5 2378.17,3039.5 2367.5,3039.5C 2367.5,3028.83 2367.5,3018.17 2367.5,3007.5C 2378.17,3007.5 2388.83,3007.5 2399.5,3007.5 Z"/></g>
</svg>
