<?xml version="1.0" encoding="UTF-8"?>
<!DOCTYPE svg PUBLIC "-//W3C//DTD SVG 1.1//EN" "http://www.w3.org/Graphics/SVG/1.1/DTD/svg11.dtd">
<svg xmlns="http://www.w3.org/2000/svg" version="1.1" width="4320px" height="4320px" style="shape-rendering:geometricPrecision; text-rendering:geometricPrecision; image-rendering:optimizeQuality; fill-rule:evenodd; clip-rule:evenodd" xmlns:xlink="http://www.w3.org/1999/xlink">
<g><path style="opacity:0.971" fill="#0a080f" d="M 2559.5,3071.5 C 2548.83,3071.5 2538.17,3071.5 2527.5,3071.5C 2527.5,3060.83 2527.5,3050.17 2527.5,3039.5C 2516.83,3039.5 2506.17,3039.5 2495.5,3039.5C 2495.5,3007.5 2495.5,2975.5 2495.5,2943.5C 2484.83,2943.5 2474.17,2943.5 2463.5,2943.5C 2463.5,2932.83 2463.5,2922.17 2463.5,2911.5C 2452.83,2911.5 2442.17,2911.5 2431.5,2911.5C 2431.5,2900.83 2431.5,2890.17 2431.5,2879.5C 2410.17,2879.5 2388.83,2879.5 2367.5,2879.5C 2367.5,2868.83 2367.5,2858.17 2367.5,2847.5C 2335.5,2847.5 2303.5,2847.5 2271.5,2847.5C 2271.5,2858.17 2271.5,2868.83 2271.5,2879.5C 2250.17,2879.5 2228.83,2879.5 2207.5,2879.5C 2207.5,2890.17 2207.5,2900.83 2207.5,2911.5C 2196.83,2911.5 2186.17,2911.5 2175.5,2911.5C 2175.5,2932.83 2175.5,2954.17 2175.5,2975.5C 2164.83,2975.5 2154.17,2975.5 2143.5,2975.5C 2143.5,3007.5 2143.5,3039.5 2143.5,3071.5C 2132.83,3071.5 2122.17,3071.5 2111.5,3071.5C 2111.5,3028.83 2111.5,2986.17 2111.5,2943.5C 2122.17,2943.5 2132.83,2943.5 2143.5,2943.5C 2143.5,2922.17 2143.5,2900.83 2143.5,2879.5C 2154.17,2879.5 2164.83,2879.5 2175.5,2879.5C 2175.5,2868.83 2175.5,2858.17 2175.5,2847.5C 2196.83,2847.5 2218.17,2847.5 2239.5,2847.5C 2239.5,2836.83 2239.5,2826.17 2239.5,2815.5C 2303.5,2815.5 2367.5,2815.5 2431.5,2815.5C 2431.5,2826.17 2431.5,2836.83 2431.5,2847.5C 2442.17,2847.5 2452.83,2847.5 2463.5,2847.5C 2463.5,2858.17 2463.5,2868.83 2463.5,2879.5C 2474.17,2879.5 2484.83,2879.5 2495.5,2879.5C 2495.5,2890.17 2495.5,2900.83 2495.5,2911.5C 2506.17,2911.5 2516.83,2911.5 2527.5,2911.5C 2527.5,2932.83 2527.5,2954.17 2527.5,2975.5C 2538.17,2975.5 2548.83,2975.5 2559.5,2975.5C 2559.5,3007.5 2559.5,3039.5 2559.5,3071.5 Z"/></g>
<g><path style="opacity:1" fill="#132d72" d="M 2495.5,3039.5 C 2495.5,3050.17 2495.5,3060.83 2495.5,3071.5C 2495.5,3082.17 2495.5,3092.83 2495.5,3103.5C 2506.17,3103.5 2516.83,3103.5 2527.5,3103.5C 2527.5,3135.5 2527.5,3167.5 2527.5,3199.5C 2516.83,3199.5 2506.17,3199.5 2495.5,3199.5C 2495.5,3263.5 2495.5,3327.5 2495.5,3391.5C 2484.83,3391.5 2474.17,3391.5 2463.5,3391.5C 2463.5,3402.17 2463.5,3412.83 2463.5,3423.5C 2442.17,3423.5 2420.83,3423.5 2399.5,3423.5C 2399.5,3434.17 2399.5,3444.83 2399.5,3455.5C 2356.83,3455.5 2314.17,3455.5 2271.5,3455.5C 2271.5,3412.83 2271.5,3370.17 2271.5,3327.5C 2260.83,3327.5 2250.17,3327.5 2239.5,3327.5C 2239.5,3274.17 2239.5,3220.83 2239.5,3167.5C 2228.83,3167.5 2218.17,3167.5 2207.5,3167.5C 2207.5,3082.17 2207.5,2996.83 2207.5,2911.5C 2207.5,2900.83 2207.5,2890.17 2207.5,2879.5C 2228.83,2879.5 2250.17,2879.5 2271.5,2879.5C 2271.5,2868.83 2271.5,2858.17 2271.5,2847.5C 2303.5,2847.5 2335.5,2847.5 2367.5,2847.5C 2367.5,2858.17 2367.5,2868.83 2367.5,2879.5C 2388.83,2879.5 2410.17,2879.5 2431.5,2879.5C 2431.5,2890.17 2431.5,2900.83 2431.5,2911.5C 2442.17,2911.5 2452.83,2911.5 2463.5,2911.5C 2463.5,2922.17 2463.5,2932.83 2463.5,2943.5C 2474.17,2943.5 2484.83,2943.5 2495.5,2943.5C 2495.5,2975.5 2495.5,3007.5 2495.5,3039.5 Z"/></g>
<g><path style="opacity:1" fill="#000638" d="M 2207.5,2911.5 C 2207.5,2996.83 2207.5,3082.17 2207.5,3167.5C 2218.17,3167.5 2228.83,3167.5 2239.5,3167.5C 2239.5,3220.83 2239.5,3274.17 2239.5,3327.5C 2250.17,3327.5 2260.83,3327.5 2271.5,3327.5C 2271.5,3370.17 2271.5,3412.83 2271.5,3455.5C 2250.17,3455.5 2228.83,3455.5 2207.5,3455.5C 2207.5,3444.83 2207.5,3434.17 2207.5,3423.5C 2196.83,3423.5 2186.17,3423.5 2175.5,3423.5C 2175.5,3412.83 2175.5,3402.17 2175.5,3391.5C 2164.83,3391.5 2154.17,3391.5 2143.5,3391.5C 2143.5,3284.83 2143.5,3178.17 2143.5,3071.5C 2143.5,3039.5 2143.5,3007.5 2143.5,2975.5C 2154.17,2975.5 2164.83,2975.5 2175.5,2975.5C 2175.5,2954.17 2175.5,2932.83 2175.5,2911.5C 2186.17,2911.5 2196.83,2911.5 2207.5,2911.5 Z"/></g>
<g><path style="opacity:1" fill="#000000" d="M 2495.5,3039.5 C 2506.17,3039.5 2516.83,3039.5 2527.5,3039.5C 2527.5,3050.17 2527.5,3060.83 2527.5,3071.5C 2516.83,3071.5 2506.17,3071.5 2495.5,3071.5C 2495.5,3060.83 2495.5,3050.17 2495.5,3039.5 Z"/></g>
<g><path style="opacity:0.971" fill="#000000" d="M 2111.5,3071.5 C 2122.17,3071.5 2132.83,3071.5 2143.5,3071.5C 2143.5,3178.17 2143.5,3284.83 2143.5,3391.5C 2154.17,3391.5 2164.83,3391.5 2175.5,3391.5C 2175.5,3402.17 2175.5,3412.83 2175.5,3423.5C 2186.17,3423.5 2196.83,3423.5 2207.5,3423.5C 2207.5,3434.17 2207.5,3444.83 2207.5,3455.5C 2228.83,3455.5 2250.17,3455.5 2271.5,3455.5C 2314.17,3455.5 2356.83,3455.5 2399.5,3455.5C 2399.5,3444.83 2399.5,3434.17 2399.5,3423.5C 2420.83,3423.5 2442.17,3423.5 2463.5,3423.5C 2463.5,3412.83 2463.5,3402.17 2463.5,3391.5C 2474.17,3391.5 2484.83,3391.5 2495.5,3391.5C 2495.5,3327.5 2495.5,3263.5 2495.5,3199.5C 2506.17,3199.5 2516.83,3199.5 2527.5,3199.5C 2527.5,3167.5 2527.5,3135.5 2527.5,3103.5C 2527.5,3092.83 2527.5,3082.17 2527.5,3071.5C 2538.17,3071.5 2548.83,3071.5 2559.5,3071.5C 2559.5,3156.83 2559.5,3242.17 2559.5,3327.5C 2548.83,3327.5 2538.17,3327.5 2527.5,3327.5C 2527.5,3402.17 2527.5,3476.83 2527.5,3551.5C 2506.17,3551.5 2484.83,3551.5 2463.5,3551.5C 2463.5,3562.17 2463.5,3572.83 2463.5,3583.5C 2356.83,3583.5 2250.17,3583.5 2143.5,3583.5C 2143.5,3530.17 2143.5,3476.83 2143.5,3423.5C 2132.83,3423.5 2122.17,3423.5 2111.5,3423.5C 2111.5,3412.83 2111.5,3402.17 2111.5,3391.5C 2100.83,3391.5 2090.17,3391.5 2079.5,3391.5C 2079.5,3306.17 2079.5,3220.83 2079.5,3135.5C 2090.17,3135.5 2100.83,3135.5 2111.5,3135.5C 2111.5,3114.17 2111.5,3092.83 2111.5,3071.5 Z"/></g>
<g><path style="opacity:1" fill="#091637" d="M 2495.5,3071.5 C 2506.17,3071.5 2516.83,3071.5 2527.5,3071.5C 2527.5,3082.17 2527.5,3092.83 2527.5,3103.5C 2516.83,3103.5 2506.17,3103.5 2495.5,3103.5C 2495.5,3092.83 2495.5,3082.17 2495.5,3071.5 Z"/></g>
<g><path style="opacity:1" fill="#112764" d="M 2495.5,3487.5 C 2484.83,3487.5 2474.17,3487.5 2463.5,3487.5C 2463.5,3476.83 2463.5,3466.17 2463.5,3455.5C 2474.17,3455.5 2484.83,3455.5 2495.5,3455.5C 2495.5,3466.17 2495.5,3476.83 2495.5,3487.5 Z"/></g>
<g><path style="opacity:1" fill="#132d73" d="M 2463.5,3487.5 C 2474.17,3487.5 2484.83,3487.5 2495.5,3487.5C 2495.5,3498.17 2495.5,3508.83 2495.5,3519.5C 2463.5,3519.5 2431.5,3519.5 2399.5,3519.5C 2388.83,3519.5 2378.17,3519.5 2367.5,3519.5C 2367.5,3508.83 2367.5,3498.17 2367.5,3487.5C 2399.5,3487.5 2431.5,3487.5 2463.5,3487.5 Z"/></g>
<g><path style="opacity:1" fill="#000638" d="M 2367.5,3519.5 C 2378.17,3519.5 2388.83,3519.5 2399.5,3519.5C 2399.5,3530.17 2399.5,3540.83 2399.5,3551.5C 2335.5,3551.5 2271.5,3551.5 2207.5,3551.5C 2207.5,3540.83 2207.5,3530.17 2207.5,3519.5C 2260.83,3519.5 2314.17,3519.5 2367.5,3519.5 Z"/></g>
</svg>
