<?xml version="1.0" encoding="UTF-8"?>
<!DOCTYPE svg PUBLIC "-//W3C//DTD SVG 1.1//EN" "http://www.w3.org/Graphics/SVG/1.1/DTD/svg11.dtd">
<svg xmlns="http://www.w3.org/2000/svg" version="1.1" width="4320px" height="4320px" style="shape-rendering:geometricPrecision; text-rendering:geometricPrecision; image-rendering:optimizeQuality; fill-rule:evenodd; clip-rule:evenodd" xmlns:xlink="http://www.w3.org/1999/xlink">
<g><path style="opacity:0.987" fill="#000000" d="M 2239.5,3391.5 C 2303.5,3391.5 2367.5,3391.5 2431.5,3391.5C 2431.5,3402.17 2431.5,3412.83 2431.5,3423.5C 2442.17,3423.5 2452.83,3423.5 2463.5,3423.5C 2463.5,3434.17 2463.5,3444.83 2463.5,3455.5C 2474.17,3455.5 2484.83,3455.5 2495.5,3455.5C 2495.5,3498.17 2495.5,3540.83 2495.5,3583.5C 2538.17,3583.5 2580.83,3583.5 2623.5,3583.5C 2623.5,3594.17 2623.5,3604.83 2623.5,3615.5C 2634.17,3615.5 2644.83,3615.5 2655.5,3615.5C 2655.5,3626.17 2655.5,3636.83 2655.5,3647.5C 2666.17,3647.5 2676.83,3647.5 2687.5,3647.5C 2687.5,3658.17 2687.5,3668.83 2687.5,3679.5C 2698.17,3679.5 2708.83,3679.5 2719.5,3679.5C 2719.5,3700.83 2719.5,3722.17 2719.5,3743.5C 2730.17,3743.5 2740.83,3743.5 2751.5,3743.5C 2751.5,3786.17 2751.5,3828.83 2751.5,3871.5C 2740.83,3871.5 2730.17,3871.5 2719.5,3871.5C 2719.5,3882.17 2719.5,3892.83 2719.5,3903.5C 2708.83,3903.5 2698.17,3903.5 2687.5,3903.5C 2687.5,3914.17 2687.5,3924.83 2687.5,3935.5C 2580.83,3935.5 2474.17,3935.5 2367.5,3935.5C 2367.5,3924.83 2367.5,3914.17 2367.5,3903.5C 2335.5,3903.5 2303.5,3903.5 2271.5,3903.5C 2271.5,3892.83 2271.5,3882.17 2271.5,3871.5C 2250.17,3871.5 2228.83,3871.5 2207.5,3871.5C 2207.5,3860.83 2207.5,3850.17 2207.5,3839.5C 2186.17,3839.5 2164.83,3839.5 2143.5,3839.5C 2143.5,3743.5 2143.5,3647.5 2143.5,3551.5C 2154.17,3551.5 2164.83,3551.5 2175.5,3551.5C 2175.5,3530.17 2175.5,3508.83 2175.5,3487.5C 2186.17,3487.5 2196.83,3487.5 2207.5,3487.5C 2207.5,3466.17 2207.5,3444.83 2207.5,3423.5C 2218.17,3423.5 2228.83,3423.5 2239.5,3423.5C 2239.5,3412.83 2239.5,3402.17 2239.5,3391.5 Z"/></g>
<g><path style="opacity:1" fill="#be9177" d="M 2367.5,3423.5 C 2367.5,3434.17 2367.5,3444.83 2367.5,3455.5C 2378.17,3455.5 2388.83,3455.5 2399.5,3455.5C 2410.17,3455.5 2420.83,3455.5 2431.5,3455.5C 2431.5,3476.83 2431.5,3498.17 2431.5,3519.5C 2442.17,3519.5 2452.83,3519.5 2463.5,3519.5C 2463.5,3530.17 2463.5,3540.83 2463.5,3551.5C 2452.83,3551.5 2442.17,3551.5 2431.5,3551.5C 2431.5,3562.17 2431.5,3572.83 2431.5,3583.5C 2378.17,3583.5 2324.83,3583.5 2271.5,3583.5C 2271.5,3572.83 2271.5,3562.17 2271.5,3551.5C 2260.83,3551.5 2250.17,3551.5 2239.5,3551.5C 2239.5,3519.5 2239.5,3487.5 2239.5,3455.5C 2260.83,3455.5 2282.17,3455.5 2303.5,3455.5C 2303.5,3444.83 2303.5,3434.17 2303.5,3423.5C 2324.83,3423.5 2346.17,3423.5 2367.5,3423.5 Z"/></g>
<g><path style="opacity:1" fill="#a98169" d="M 2367.5,3423.5 C 2378.17,3423.5 2388.83,3423.5 2399.5,3423.5C 2399.5,3434.17 2399.5,3444.83 2399.5,3455.5C 2399.5,3444.83 2399.5,3434.17 2399.5,3423.5C 2388.83,3423.5 2378.17,3423.5 2367.5,3423.5 Z"/></g>
<g><path style="opacity:1" fill="#0b0c0b" d="M 2239.5,3615.5 C 2228.83,3615.5 2218.17,3615.5 2207.5,3615.5C 2207.5,3604.83 2207.5,3594.17 2207.5,3583.5C 2218.17,3583.5 2228.83,3583.5 2239.5,3583.5C 2239.5,3594.17 2239.5,3604.83 2239.5,3615.5 Z"/></g>
<g><path style="opacity:1" fill="#1c1c1b" d="M 2207.5,3615.5 C 2218.17,3615.5 2228.83,3615.5 2239.5,3615.5C 2282.17,3615.5 2324.83,3615.5 2367.5,3615.5C 2367.5,3626.17 2367.5,3636.83 2367.5,3647.5C 2378.17,3647.5 2388.83,3647.5 2399.5,3647.5C 2399.5,3658.17 2399.5,3668.83 2399.5,3679.5C 2410.17,3679.5 2420.83,3679.5 2431.5,3679.5C 2431.5,3690.17 2431.5,3700.83 2431.5,3711.5C 2442.17,3711.5 2452.83,3711.5 2463.5,3711.5C 2506.17,3711.5 2548.83,3711.5 2591.5,3711.5C 2591.5,3700.83 2591.5,3690.17 2591.5,3679.5C 2612.83,3679.5 2634.17,3679.5 2655.5,3679.5C 2655.5,3690.17 2655.5,3700.83 2655.5,3711.5C 2666.17,3711.5 2676.83,3711.5 2687.5,3711.5C 2687.5,3754.17 2687.5,3796.83 2687.5,3839.5C 2644.83,3839.5 2602.17,3839.5 2559.5,3839.5C 2559.5,3828.83 2559.5,3818.17 2559.5,3807.5C 2527.5,3807.5 2495.5,3807.5 2463.5,3807.5C 2463.5,3796.83 2463.5,3786.17 2463.5,3775.5C 2442.17,3775.5 2420.83,3775.5 2399.5,3775.5C 2399.5,3764.83 2399.5,3754.17 2399.5,3743.5C 2367.5,3743.5 2335.5,3743.5 2303.5,3743.5C 2303.5,3732.83 2303.5,3722.17 2303.5,3711.5C 2282.17,3711.5 2260.83,3711.5 2239.5,3711.5C 2239.5,3700.83 2239.5,3690.17 2239.5,3679.5C 2228.83,3679.5 2218.17,3679.5 2207.5,3679.5C 2207.5,3668.83 2207.5,3658.17 2207.5,3647.5C 2207.5,3636.83 2207.5,3626.17 2207.5,3615.5 Z"/></g>
<g><path style="opacity:1" fill="#edeeed" d="M 2527.5,3647.5 C 2527.5,3658.17 2527.5,3668.83 2527.5,3679.5C 2506.17,3679.5 2484.83,3679.5 2463.5,3679.5C 2463.5,3668.83 2463.5,3658.17 2463.5,3647.5C 2452.83,3647.5 2442.17,3647.5 2431.5,3647.5C 2420.83,3647.5 2410.17,3647.5 2399.5,3647.5C 2399.5,3636.83 2399.5,3626.17 2399.5,3615.5C 2442.17,3615.5 2484.83,3615.5 2527.5,3615.5C 2527.5,3626.17 2527.5,3636.83 2527.5,3647.5 Z"/></g>
<g><path style="opacity:1" fill="#1b1817" d="M 2207.5,3647.5 C 2207.5,3658.17 2207.5,3668.83 2207.5,3679.5C 2218.17,3679.5 2228.83,3679.5 2239.5,3679.5C 2239.5,3690.17 2239.5,3700.83 2239.5,3711.5C 2260.83,3711.5 2282.17,3711.5 2303.5,3711.5C 2303.5,3722.17 2303.5,3732.83 2303.5,3743.5C 2335.5,3743.5 2367.5,3743.5 2399.5,3743.5C 2399.5,3754.17 2399.5,3764.83 2399.5,3775.5C 2420.83,3775.5 2442.17,3775.5 2463.5,3775.5C 2463.5,3786.17 2463.5,3796.83 2463.5,3807.5C 2495.5,3807.5 2527.5,3807.5 2559.5,3807.5C 2559.5,3818.17 2559.5,3828.83 2559.5,3839.5C 2516.83,3839.5 2474.17,3839.5 2431.5,3839.5C 2420.83,3839.5 2410.17,3839.5 2399.5,3839.5C 2399.5,3828.83 2399.5,3818.17 2399.5,3807.5C 2378.17,3807.5 2356.83,3807.5 2335.5,3807.5C 2324.83,3807.5 2314.17,3807.5 2303.5,3807.5C 2303.5,3796.83 2303.5,3786.17 2303.5,3775.5C 2282.17,3775.5 2260.83,3775.5 2239.5,3775.5C 2239.5,3764.83 2239.5,3754.17 2239.5,3743.5C 2218.17,3743.5 2196.83,3743.5 2175.5,3743.5C 2175.5,3711.5 2175.5,3679.5 2175.5,3647.5C 2186.17,3647.5 2196.83,3647.5 2207.5,3647.5 Z"/></g>
<g><path style="opacity:1" fill="#000000" d="M 2399.5,3647.5 C 2410.17,3647.5 2420.83,3647.5 2431.5,3647.5C 2431.5,3658.17 2431.5,3668.83 2431.5,3679.5C 2420.83,3679.5 2410.17,3679.5 2399.5,3679.5C 2399.5,3668.83 2399.5,3658.17 2399.5,3647.5 Z"/></g>
<g><path style="opacity:1" fill="#9d9e9d" d="M 2431.5,3647.5 C 2442.17,3647.5 2452.83,3647.5 2463.5,3647.5C 2463.5,3658.17 2463.5,3668.83 2463.5,3679.5C 2452.83,3679.5 2442.17,3679.5 2431.5,3679.5C 2431.5,3668.83 2431.5,3658.17 2431.5,3647.5 Z"/></g>
<g><path style="opacity:1" fill="#cbcccb" d="M 2527.5,3647.5 C 2548.83,3647.5 2570.17,3647.5 2591.5,3647.5C 2591.5,3658.17 2591.5,3668.83 2591.5,3679.5C 2570.17,3679.5 2548.83,3679.5 2527.5,3679.5C 2527.5,3668.83 2527.5,3658.17 2527.5,3647.5 Z"/></g>
<g><path style="opacity:1" fill="#101110" d="M 2431.5,3679.5 C 2442.17,3679.5 2452.83,3679.5 2463.5,3679.5C 2463.5,3690.17 2463.5,3700.83 2463.5,3711.5C 2452.83,3711.5 2442.17,3711.5 2431.5,3711.5C 2431.5,3700.83 2431.5,3690.17 2431.5,3679.5 Z"/></g>
<g><path style="opacity:1" fill="#000000" d="M 2463.5,3679.5 C 2484.83,3679.5 2506.17,3679.5 2527.5,3679.5C 2548.83,3679.5 2570.17,3679.5 2591.5,3679.5C 2591.5,3690.17 2591.5,3700.83 2591.5,3711.5C 2548.83,3711.5 2506.17,3711.5 2463.5,3711.5C 2463.5,3700.83 2463.5,3690.17 2463.5,3679.5 Z"/></g>
<g><path style="opacity:1" fill="#cbcccb" d="M 2239.5,3775.5 C 2239.5,3786.17 2239.5,3796.83 2239.5,3807.5C 2228.83,3807.5 2218.17,3807.5 2207.5,3807.5C 2207.5,3796.83 2207.5,3786.17 2207.5,3775.5C 2218.17,3775.5 2228.83,3775.5 2239.5,3775.5 Z"/></g>
<g><path style="opacity:1" fill="#000000" d="M 2239.5,3775.5 C 2260.83,3775.5 2282.17,3775.5 2303.5,3775.5C 2303.5,3786.17 2303.5,3796.83 2303.5,3807.5C 2292.83,3807.5 2282.17,3807.5 2271.5,3807.5C 2260.83,3807.5 2250.17,3807.5 2239.5,3807.5C 2239.5,3796.83 2239.5,3786.17 2239.5,3775.5 Z"/></g>
<g><path style="opacity:1" fill="#5f605f" d="M 2239.5,3807.5 C 2250.17,3807.5 2260.83,3807.5 2271.5,3807.5C 2271.5,3818.17 2271.5,3828.83 2271.5,3839.5C 2260.83,3839.5 2250.17,3839.5 2239.5,3839.5C 2239.5,3828.83 2239.5,3818.17 2239.5,3807.5 Z"/></g>
<g><path style="opacity:1" fill="#cbcccb" d="M 2271.5,3807.5 C 2282.17,3807.5 2292.83,3807.5 2303.5,3807.5C 2303.5,3818.17 2303.5,3828.83 2303.5,3839.5C 2292.83,3839.5 2282.17,3839.5 2271.5,3839.5C 2271.5,3828.83 2271.5,3818.17 2271.5,3807.5 Z"/></g>
<g><path style="opacity:1" fill="#141514" d="M 2303.5,3807.5 C 2314.17,3807.5 2324.83,3807.5 2335.5,3807.5C 2335.5,3818.17 2335.5,3828.83 2335.5,3839.5C 2324.83,3839.5 2314.17,3839.5 2303.5,3839.5C 2303.5,3828.83 2303.5,3818.17 2303.5,3807.5 Z"/></g>
<g><path style="opacity:1" fill="#000000" d="M 2335.5,3807.5 C 2356.83,3807.5 2378.17,3807.5 2399.5,3807.5C 2399.5,3818.17 2399.5,3828.83 2399.5,3839.5C 2378.17,3839.5 2356.83,3839.5 2335.5,3839.5C 2335.5,3828.83 2335.5,3818.17 2335.5,3807.5 Z"/></g>
<g><path style="opacity:1" fill="#cbcccb" d="M 2335.5,3839.5 C 2356.83,3839.5 2378.17,3839.5 2399.5,3839.5C 2410.17,3839.5 2420.83,3839.5 2431.5,3839.5C 2431.5,3850.17 2431.5,3860.83 2431.5,3871.5C 2399.5,3871.5 2367.5,3871.5 2335.5,3871.5C 2335.5,3860.83 2335.5,3850.17 2335.5,3839.5 Z"/></g>
<g><path style="opacity:1" fill="#cbcccb" d="M 2495.5,3871.5 C 2495.5,3882.17 2495.5,3892.83 2495.5,3903.5C 2484.83,3903.5 2474.17,3903.5 2463.5,3903.5C 2463.5,3892.83 2463.5,3882.17 2463.5,3871.5C 2474.17,3871.5 2484.83,3871.5 2495.5,3871.5 Z"/></g>
<g><path style="opacity:1" fill="#edeeed" d="M 2495.5,3871.5 C 2548.83,3871.5 2602.17,3871.5 2655.5,3871.5C 2655.5,3882.17 2655.5,3892.83 2655.5,3903.5C 2602.17,3903.5 2548.83,3903.5 2495.5,3903.5C 2495.5,3892.83 2495.5,3882.17 2495.5,3871.5 Z"/></g>
</svg>
