<?xml version="1.0" encoding="UTF-8"?>
<!DOCTYPE svg PUBLIC "-//W3C//DTD SVG 1.1//EN" "http://www.w3.org/Graphics/SVG/1.1/DTD/svg11.dtd">
<svg xmlns="http://www.w3.org/2000/svg" version="1.1" width="4320px" height="4320px" style="shape-rendering:geometricPrecision; text-rendering:geometricPrecision; image-rendering:optimizeQuality; fill-rule:evenodd; clip-rule:evenodd" xmlns:xlink="http://www.w3.org/1999/xlink">
<g><path style="opacity:0.957" fill="#000000" d="M 1279.5,1695.5 C 1279.5,1706.17 1279.5,1716.83 1279.5,1727.5C 1258.17,1727.5 1236.83,1727.5 1215.5,1727.5C 1162.17,1727.5 1108.83,1727.5 1055.5,1727.5C 1055.5,1716.83 1055.5,1706.17 1055.5,1695.5C 1076.83,1695.5 1098.17,1695.5 1119.5,1695.5C 1119.5,1684.83 1119.5,1674.17 1119.5,1663.5C 1130.17,1663.5 1140.83,1663.5 1151.5,1663.5C 1151.5,1674.17 1151.5,1684.83 1151.5,1695.5C 1194.17,1695.5 1236.83,1695.5 1279.5,1695.5 Z"/></g>
<g><path style="opacity:0.925" fill="#000000" d="M 1311.5,1695.5 C 1300.83,1695.5 1290.17,1695.5 1279.5,1695.5C 1279.5,1684.83 1279.5,1674.17 1279.5,1663.5C 1290.17,1663.5 1300.83,1663.5 1311.5,1663.5C 1311.5,1674.17 1311.5,1684.83 1311.5,1695.5 Z"/></g>
<g><path style="opacity:1" fill="#413328" d="M 1279.5,1695.5 C 1290.17,1695.5 1300.83,1695.5 1311.5,1695.5C 1311.5,1706.17 1311.5,1716.83 1311.5,1727.5C 1300.83,1727.5 1290.17,1727.5 1279.5,1727.5C 1279.5,1716.83 1279.5,1706.17 1279.5,1695.5 Z"/></g>
<g><path style="opacity:0.844" fill="#000000" d="M 1311.5,1695.5 C 1332.83,1695.5 1354.17,1695.5 1375.5,1695.5C 1375.5,1706.17 1375.5,1716.83 1375.5,1727.5C 1386.17,1727.5 1396.83,1727.5 1407.5,1727.5C 1407.5,1759.5 1407.5,1791.5 1407.5,1823.5C 1396.83,1823.5 1386.17,1823.5 1375.5,1823.5C 1375.5,1812.83 1375.5,1802.17 1375.5,1791.5C 1375.5,1780.83 1375.5,1770.17 1375.5,1759.5C 1364.83,1759.5 1354.17,1759.5 1343.5,1759.5C 1343.5,1748.83 1343.5,1738.17 1343.5,1727.5C 1332.83,1727.5 1322.17,1727.5 1311.5,1727.5C 1311.5,1716.83 1311.5,1706.17 1311.5,1695.5 Z"/></g>
<g><path style="opacity:1" fill="#000000" d="M 1055.5,1727.5 C 1055.5,1748.83 1055.5,1770.17 1055.5,1791.5C 1087.5,1791.5 1119.5,1791.5 1151.5,1791.5C 1151.5,1802.17 1151.5,1812.83 1151.5,1823.5C 1108.83,1823.5 1066.17,1823.5 1023.5,1823.5C 1023.5,1866.17 1023.5,1908.83 1023.5,1951.5C 1012.83,1951.5 1002.17,1951.5 991.5,1951.5C 991.5,1898.17 991.5,1844.83 991.5,1791.5C 1002.17,1791.5 1012.83,1791.5 1023.5,1791.5C 1023.5,1770.17 1023.5,1748.83 1023.5,1727.5C 1034.17,1727.5 1044.83,1727.5 1055.5,1727.5 Z"/></g>
<g><path style="opacity:1" fill="#e4c1ae" d="M 1055.5,1727.5 C 1108.83,1727.5 1162.17,1727.5 1215.5,1727.5C 1215.5,1738.17 1215.5,1748.83 1215.5,1759.5C 1236.83,1759.5 1258.17,1759.5 1279.5,1759.5C 1279.5,1748.83 1279.5,1738.17 1279.5,1727.5C 1290.17,1727.5 1300.83,1727.5 1311.5,1727.5C 1322.17,1727.5 1332.83,1727.5 1343.5,1727.5C 1343.5,1738.17 1343.5,1748.83 1343.5,1759.5C 1354.17,1759.5 1364.83,1759.5 1375.5,1759.5C 1375.5,1770.17 1375.5,1780.83 1375.5,1791.5C 1364.83,1791.5 1354.17,1791.5 1343.5,1791.5C 1343.5,1802.17 1343.5,1812.83 1343.5,1823.5C 1343.5,1834.17 1343.5,1844.83 1343.5,1855.5C 1322.17,1855.5 1300.83,1855.5 1279.5,1855.5C 1279.5,1866.17 1279.5,1876.83 1279.5,1887.5C 1268.83,1887.5 1258.17,1887.5 1247.5,1887.5C 1236.83,1887.5 1226.17,1887.5 1215.5,1887.5C 1215.5,1898.17 1215.5,1908.83 1215.5,1919.5C 1204.83,1919.5 1194.17,1919.5 1183.5,1919.5C 1183.5,1930.17 1183.5,1940.83 1183.5,1951.5C 1140.83,1951.5 1098.17,1951.5 1055.5,1951.5C 1055.5,1919.5 1055.5,1887.5 1055.5,1855.5C 1087.5,1855.5 1119.5,1855.5 1151.5,1855.5C 1162.17,1855.5 1172.83,1855.5 1183.5,1855.5C 1183.5,1844.83 1183.5,1834.17 1183.5,1823.5C 1183.5,1812.83 1183.5,1802.17 1183.5,1791.5C 1183.5,1780.83 1183.5,1770.17 1183.5,1759.5C 1172.83,1759.5 1162.17,1759.5 1151.5,1759.5C 1151.5,1770.17 1151.5,1780.83 1151.5,1791.5C 1119.5,1791.5 1087.5,1791.5 1055.5,1791.5C 1055.5,1770.17 1055.5,1748.83 1055.5,1727.5 Z"/></g>
<g><path style="opacity:1" fill="#bf9077" d="M 1215.5,1727.5 C 1236.83,1727.5 1258.17,1727.5 1279.5,1727.5C 1279.5,1738.17 1279.5,1748.83 1279.5,1759.5C 1258.17,1759.5 1236.83,1759.5 1215.5,1759.5C 1215.5,1748.83 1215.5,1738.17 1215.5,1727.5 Z"/></g>
<g><path style="opacity:1" fill="#000000" d="M 1183.5,1791.5 C 1172.83,1791.5 1162.17,1791.5 1151.5,1791.5C 1151.5,1780.83 1151.5,1770.17 1151.5,1759.5C 1162.17,1759.5 1172.83,1759.5 1183.5,1759.5C 1183.5,1770.17 1183.5,1780.83 1183.5,1791.5 Z"/></g>
<g><path style="opacity:1" fill="#bd9076" d="M 1151.5,1791.5 C 1162.17,1791.5 1172.83,1791.5 1183.5,1791.5C 1183.5,1802.17 1183.5,1812.83 1183.5,1823.5C 1172.83,1823.5 1162.17,1823.5 1151.5,1823.5C 1151.5,1812.83 1151.5,1802.17 1151.5,1791.5 Z"/></g>
<g><path style="opacity:1" fill="#dcbba8" d="M 1375.5,1791.5 C 1375.5,1802.17 1375.5,1812.83 1375.5,1823.5C 1364.83,1823.5 1354.17,1823.5 1343.5,1823.5C 1343.5,1812.83 1343.5,1802.17 1343.5,1791.5C 1354.17,1791.5 1364.83,1791.5 1375.5,1791.5 Z"/></g>
<g><path style="opacity:1" fill="#bf9177" d="M 1151.5,1823.5 C 1151.5,1834.17 1151.5,1844.83 1151.5,1855.5C 1119.5,1855.5 1087.5,1855.5 1055.5,1855.5C 1055.5,1887.5 1055.5,1919.5 1055.5,1951.5C 1044.83,1951.5 1034.17,1951.5 1023.5,1951.5C 1023.5,1908.83 1023.5,1866.17 1023.5,1823.5C 1066.17,1823.5 1108.83,1823.5 1151.5,1823.5 Z"/></g>
<g><path style="opacity:1" fill="#c49980" d="M 1151.5,1823.5 C 1162.17,1823.5 1172.83,1823.5 1183.5,1823.5C 1183.5,1834.17 1183.5,1844.83 1183.5,1855.5C 1172.83,1855.5 1162.17,1855.5 1151.5,1855.5C 1151.5,1844.83 1151.5,1834.17 1151.5,1823.5 Z"/></g>
<g><path style="opacity:1" fill="#000000" d="M 1343.5,1823.5 C 1354.17,1823.5 1364.83,1823.5 1375.5,1823.5C 1375.5,1834.17 1375.5,1844.83 1375.5,1855.5C 1364.83,1855.5 1354.17,1855.5 1343.5,1855.5C 1343.5,1844.83 1343.5,1834.17 1343.5,1823.5 Z"/></g>
<g><path style="opacity:1" fill="#000000" d="M 1343.5,1855.5 C 1343.5,1866.17 1343.5,1876.83 1343.5,1887.5C 1322.17,1887.5 1300.83,1887.5 1279.5,1887.5C 1279.5,1876.83 1279.5,1866.17 1279.5,1855.5C 1300.83,1855.5 1322.17,1855.5 1343.5,1855.5 Z"/></g>
<g><path style="opacity:1" fill="#33312f" d="M 1247.5,1887.5 C 1247.5,1898.17 1247.5,1908.83 1247.5,1919.5C 1236.83,1919.5 1226.17,1919.5 1215.5,1919.5C 1215.5,1908.83 1215.5,1898.17 1215.5,1887.5C 1226.17,1887.5 1236.83,1887.5 1247.5,1887.5 Z"/></g>
<g><path style="opacity:1" fill="#000000" d="M 1247.5,1887.5 C 1258.17,1887.5 1268.83,1887.5 1279.5,1887.5C 1279.5,1898.17 1279.5,1908.83 1279.5,1919.5C 1268.83,1919.5 1258.17,1919.5 1247.5,1919.5C 1247.5,1908.83 1247.5,1898.17 1247.5,1887.5 Z"/></g>
<g><path style="opacity:0.892" fill="#000000" d="M 1215.5,1919.5 C 1226.17,1919.5 1236.83,1919.5 1247.5,1919.5C 1247.5,1930.17 1247.5,1940.83 1247.5,1951.5C 1236.83,1951.5 1226.17,1951.5 1215.5,1951.5C 1215.5,1962.17 1215.5,1972.83 1215.5,1983.5C 1183.5,1983.5 1151.5,1983.5 1119.5,1983.5C 1119.5,1994.17 1119.5,2004.83 1119.5,2015.5C 1108.83,2015.5 1098.17,2015.5 1087.5,2015.5C 1087.5,2004.83 1087.5,1994.17 1087.5,1983.5C 1066.17,1983.5 1044.83,1983.5 1023.5,1983.5C 1023.5,1972.83 1023.5,1962.17 1023.5,1951.5C 1034.17,1951.5 1044.83,1951.5 1055.5,1951.5C 1098.17,1951.5 1140.83,1951.5 1183.5,1951.5C 1183.5,1940.83 1183.5,1930.17 1183.5,1919.5C 1194.17,1919.5 1204.83,1919.5 1215.5,1919.5 Z"/></g>
</svg>
