<?xml version="1.0" encoding="UTF-8"?>
<!DOCTYPE svg PUBLIC "-//W3C//DTD SVG 1.1//EN" "http://www.w3.org/Graphics/SVG/1.1/DTD/svg11.dtd">
<svg xmlns="http://www.w3.org/2000/svg" version="1.1" width="4320px" height="4320px" style="shape-rendering:geometricPrecision; text-rendering:geometricPrecision; image-rendering:optimizeQuality; fill-rule:evenodd; clip-rule:evenodd" xmlns:xlink="http://www.w3.org/1999/xlink">
<g><path style="opacity:1" fill="#000000" d="M 3295.5,1471.5 C 3252.83,1471.5 3210.17,1471.5 3167.5,1471.5C 3167.5,1482.17 3167.5,1492.83 3167.5,1503.5C 3146.17,1503.5 3124.83,1503.5 3103.5,1503.5C 3103.5,1492.83 3103.5,1482.17 3103.5,1471.5C 3114.17,1471.5 3124.83,1471.5 3135.5,1471.5C 3135.5,1460.83 3135.5,1450.17 3135.5,1439.5C 3188.83,1439.5 3242.17,1439.5 3295.5,1439.5C 3295.5,1450.17 3295.5,1460.83 3295.5,1471.5 Z"/></g>
<g><path style="opacity:1" fill="#e4c2ae" d="M 3295.5,1471.5 C 3295.5,1482.17 3295.5,1492.83 3295.5,1503.5C 3295.5,1524.83 3295.5,1546.17 3295.5,1567.5C 3284.83,1567.5 3274.17,1567.5 3263.5,1567.5C 3263.5,1578.17 3263.5,1588.83 3263.5,1599.5C 3231.5,1599.5 3199.5,1599.5 3167.5,1599.5C 3167.5,1610.17 3167.5,1620.83 3167.5,1631.5C 3156.83,1631.5 3146.17,1631.5 3135.5,1631.5C 3135.5,1642.17 3135.5,1652.83 3135.5,1663.5C 3146.17,1663.5 3156.83,1663.5 3167.5,1663.5C 3178.17,1663.5 3188.83,1663.5 3199.5,1663.5C 3199.5,1652.83 3199.5,1642.17 3199.5,1631.5C 3210.17,1631.5 3220.83,1631.5 3231.5,1631.5C 3231.5,1642.17 3231.5,1652.83 3231.5,1663.5C 3242.17,1663.5 3252.83,1663.5 3263.5,1663.5C 3263.5,1674.17 3263.5,1684.83 3263.5,1695.5C 3252.83,1695.5 3242.17,1695.5 3231.5,1695.5C 3199.5,1695.5 3167.5,1695.5 3135.5,1695.5C 3124.83,1695.5 3114.17,1695.5 3103.5,1695.5C 3103.5,1684.83 3103.5,1674.17 3103.5,1663.5C 3082.17,1663.5 3060.83,1663.5 3039.5,1663.5C 3039.5,1674.17 3039.5,1684.83 3039.5,1695.5C 3018.17,1695.5 2996.83,1695.5 2975.5,1695.5C 2975.5,1652.83 2975.5,1610.17 2975.5,1567.5C 3007.5,1567.5 3039.5,1567.5 3071.5,1567.5C 3071.5,1556.83 3071.5,1546.17 3071.5,1535.5C 3082.17,1535.5 3092.83,1535.5 3103.5,1535.5C 3103.5,1524.83 3103.5,1514.17 3103.5,1503.5C 3124.83,1503.5 3146.17,1503.5 3167.5,1503.5C 3167.5,1492.83 3167.5,1482.17 3167.5,1471.5C 3210.17,1471.5 3252.83,1471.5 3295.5,1471.5 Z"/></g>
<g><path style="opacity:1" fill="#000000" d="M 3295.5,1471.5 C 3306.17,1471.5 3316.83,1471.5 3327.5,1471.5C 3327.5,1482.17 3327.5,1492.83 3327.5,1503.5C 3316.83,1503.5 3306.17,1503.5 3295.5,1503.5C 3295.5,1492.83 3295.5,1482.17 3295.5,1471.5 Z"/></g>
<g><path style="opacity:0.806" fill="#000000" d="M 3103.5,1503.5 C 3103.5,1514.17 3103.5,1524.83 3103.5,1535.5C 3092.83,1535.5 3082.17,1535.5 3071.5,1535.5C 3071.5,1546.17 3071.5,1556.83 3071.5,1567.5C 3039.5,1567.5 3007.5,1567.5 2975.5,1567.5C 2975.5,1556.83 2975.5,1546.17 2975.5,1535.5C 2996.83,1535.5 3018.17,1535.5 3039.5,1535.5C 3039.5,1524.83 3039.5,1514.17 3039.5,1503.5C 3060.83,1503.5 3082.17,1503.5 3103.5,1503.5 Z"/></g>
<g><path style="opacity:1" fill="#be9177" d="M 3295.5,1503.5 C 3306.17,1503.5 3316.83,1503.5 3327.5,1503.5C 3327.5,1535.5 3327.5,1567.5 3327.5,1599.5C 3316.83,1599.5 3306.17,1599.5 3295.5,1599.5C 3295.5,1610.17 3295.5,1620.83 3295.5,1631.5C 3284.83,1631.5 3274.17,1631.5 3263.5,1631.5C 3263.5,1620.83 3263.5,1610.17 3263.5,1599.5C 3263.5,1588.83 3263.5,1578.17 3263.5,1567.5C 3274.17,1567.5 3284.83,1567.5 3295.5,1567.5C 3295.5,1546.17 3295.5,1524.83 3295.5,1503.5 Z"/></g>
<g><path style="opacity:0.998" fill="#000000" d="M 3327.5,1503.5 C 3338.17,1503.5 3348.83,1503.5 3359.5,1503.5C 3359.5,1546.17 3359.5,1588.83 3359.5,1631.5C 3348.83,1631.5 3338.17,1631.5 3327.5,1631.5C 3327.5,1642.17 3327.5,1652.83 3327.5,1663.5C 3316.83,1663.5 3306.17,1663.5 3295.5,1663.5C 3295.5,1684.83 3295.5,1706.17 3295.5,1727.5C 3284.83,1727.5 3274.17,1727.5 3263.5,1727.5C 3263.5,1716.83 3263.5,1706.17 3263.5,1695.5C 3263.5,1684.83 3263.5,1674.17 3263.5,1663.5C 3263.5,1652.83 3263.5,1642.17 3263.5,1631.5C 3274.17,1631.5 3284.83,1631.5 3295.5,1631.5C 3295.5,1620.83 3295.5,1610.17 3295.5,1599.5C 3306.17,1599.5 3316.83,1599.5 3327.5,1599.5C 3327.5,1567.5 3327.5,1535.5 3327.5,1503.5 Z"/></g>
<g><path style="opacity:1" fill="#000000" d="M 2975.5,1567.5 C 2975.5,1610.17 2975.5,1652.83 2975.5,1695.5C 2964.83,1695.5 2954.17,1695.5 2943.5,1695.5C 2943.5,1652.83 2943.5,1610.17 2943.5,1567.5C 2954.17,1567.5 2964.83,1567.5 2975.5,1567.5 Z"/></g>
<g><path style="opacity:1" fill="#000000" d="M 3263.5,1599.5 C 3263.5,1610.17 3263.5,1620.83 3263.5,1631.5C 3252.83,1631.5 3242.17,1631.5 3231.5,1631.5C 3220.83,1631.5 3210.17,1631.5 3199.5,1631.5C 3188.83,1631.5 3178.17,1631.5 3167.5,1631.5C 3167.5,1620.83 3167.5,1610.17 3167.5,1599.5C 3199.5,1599.5 3231.5,1599.5 3263.5,1599.5 Z"/></g>
<g><path style="opacity:1" fill="#000000" d="M 3167.5,1631.5 C 3167.5,1642.17 3167.5,1652.83 3167.5,1663.5C 3156.83,1663.5 3146.17,1663.5 3135.5,1663.5C 3135.5,1652.83 3135.5,1642.17 3135.5,1631.5C 3146.17,1631.5 3156.83,1631.5 3167.5,1631.5 Z"/></g>
<g><path style="opacity:1" fill="#14120f" d="M 3167.5,1631.5 C 3178.17,1631.5 3188.83,1631.5 3199.5,1631.5C 3199.5,1642.17 3199.5,1652.83 3199.5,1663.5C 3188.83,1663.5 3178.17,1663.5 3167.5,1663.5C 3167.5,1652.83 3167.5,1642.17 3167.5,1631.5 Z"/></g>
<g><path style="opacity:1" fill="#0f0e0c" d="M 3231.5,1631.5 C 3242.17,1631.5 3252.83,1631.5 3263.5,1631.5C 3263.5,1642.17 3263.5,1652.83 3263.5,1663.5C 3252.83,1663.5 3242.17,1663.5 3231.5,1663.5C 3231.5,1652.83 3231.5,1642.17 3231.5,1631.5 Z"/></g>
<g><path style="opacity:1" fill="#be9177" d="M 3103.5,1695.5 C 3082.17,1695.5 3060.83,1695.5 3039.5,1695.5C 3039.5,1684.83 3039.5,1674.17 3039.5,1663.5C 3060.83,1663.5 3082.17,1663.5 3103.5,1663.5C 3103.5,1674.17 3103.5,1684.83 3103.5,1695.5 Z"/></g>
<g><path style="opacity:1" fill="#000000" d="M 2975.5,1695.5 C 2996.83,1695.5 3018.17,1695.5 3039.5,1695.5C 3060.83,1695.5 3082.17,1695.5 3103.5,1695.5C 3114.17,1695.5 3124.83,1695.5 3135.5,1695.5C 3135.5,1706.17 3135.5,1716.83 3135.5,1727.5C 3082.17,1727.5 3028.83,1727.5 2975.5,1727.5C 2975.5,1716.83 2975.5,1706.17 2975.5,1695.5 Z"/></g>
<g><path style="opacity:1" fill="#be9177" d="M 3135.5,1695.5 C 3167.5,1695.5 3199.5,1695.5 3231.5,1695.5C 3231.5,1706.17 3231.5,1716.83 3231.5,1727.5C 3199.5,1727.5 3167.5,1727.5 3135.5,1727.5C 3135.5,1716.83 3135.5,1706.17 3135.5,1695.5 Z"/></g>
<g><path style="opacity:1" fill="#8a6956" d="M 3231.5,1695.5 C 3242.17,1695.5 3252.83,1695.5 3263.5,1695.5C 3263.5,1706.17 3263.5,1716.83 3263.5,1727.5C 3252.83,1727.5 3242.17,1727.5 3231.5,1727.5C 3231.5,1716.83 3231.5,1706.17 3231.5,1695.5 Z"/></g>
<g><path style="opacity:1" fill="#000000" d="M 3135.5,1727.5 C 3167.5,1727.5 3199.5,1727.5 3231.5,1727.5C 3242.17,1727.5 3252.83,1727.5 3263.5,1727.5C 3263.5,1738.17 3263.5,1748.83 3263.5,1759.5C 3220.83,1759.5 3178.17,1759.5 3135.5,1759.5C 3135.5,1748.83 3135.5,1738.17 3135.5,1727.5 Z"/></g>
</svg>
